<?xml version="1.0" encoding="utf-8"?>
<!-- Generator: Adobe Illustrator 18.1.1, SVG Export Plug-In . SVG Version: 6.00 Build 0)  -->
<!DOCTYPE svg PUBLIC "-//W3C//DTD SVG 1.1//EN" "http://www.w3.org/Graphics/SVG/1.1/DTD/svg11.dtd">
<svg version="1.1" id="Layer_1" xmlns="http://www.w3.org/2000/svg" xmlns:xlink="http://www.w3.org/1999/xlink" x="0px" y="0px" viewBox="0 0 24 24" xml:space="preserve">
<path d="M4,10.5c-0.8,0-1.5,0.7-1.5,1.5s0.7,1.5,1.5,1.5s1.5-0.7,1.5-1.5S4.8,10.5,4,10.5z M4,4.5C3.2,4.5,2.5,5.2,2.5,6S3.2,7.5,4,7.5S5.5,6.8,5.5,6S4.8,4.5,4,4.5z M4,16.7c-0.7,0-1.3,0.6-1.3,1.3s0.6,1.3,1.3,1.3s1.3-0.6,1.3-1.3S4.7,16.7,4,16.7zM7,19h14v-2H7V19z M7,13h14v-2H7V13z M7,5v2h14V5H7z"/>
</svg>
