<?xml version="1.0" encoding="utf-8"?>
<!-- Generator: Adobe Illustrator 19.2.1, SVG Export Plug-In . SVG Version: 6.00 Build 0)  -->
<svg version="1.1" id="Layer_1" xmlns="http://www.w3.org/2000/svg" xmlns:xlink="http://www.w3.org/1999/xlink" x="0px" y="0px"
	 viewBox="0 0 24 24" style="enable-background:new 0 0 24 24;" xml:space="preserve">
<path d="M4,4.5C3.2,4.5,2.5,5.2,2.5,6S3.2,7.5,4,7.5S5.5,6.8,5.5,6S4.8,4.5,4,4.5z M7,5v2h14V5H7z M4,10.6c-0.8,0-1.5,0.7-1.5,1.5
	s0.7,1.5,1.5,1.5s1.5-0.7,1.5-1.5S4.8,10.6,4,10.6z M7,11.1v2h14v-2H7z M4,16.6c-0.8,0-1.5,0.7-1.5,1.5s0.7,1.5,1.5,1.5
	s1.5-0.7,1.5-1.5S4.8,16.6,4,16.6z M7,17.1v2h14v-2H7z"/>
</svg>
