<?xml version="1.0" encoding="utf-8"?>
<!-- Generator: Adobe Illustrator 19.1.0, SVG Export Plug-In . SVG Version: 6.00 Build 0)  -->
<svg version="1.1" id="Layer_1" xmlns="http://www.w3.org/2000/svg" xmlns:xlink="http://www.w3.org/1999/xlink" x="0px" y="0px"
	 viewBox="0 0 320 320" style="enable-background:new 0 0 320 320;" xml:space="preserve">
<style type="text/css">
	.st0{fill:#616262;}
	.st1{fill:#FAA629;}
	.st2{fill:#9D9D9D;}
	.st3{fill-rule:evenodd;clip-rule:evenodd;fill:#FAA629;}
</style>
<g>
	<path class="st0" d="M157,318.6c-2,0-4-0.1-6-0.3l0.2-3c2,0.1,3.9,0.2,5.9,0.3L157,318.6z M163.1,318.6l-0.1-3c2,0,3.9-0.1,5.9-0.3
		l0.2,3C167.1,318.5,165.1,318.6,163.1,318.6z M145,317.8c-2-0.2-4-0.5-6-0.9l0.5-3c1.9,0.3,3.9,0.6,5.8,0.9L145,317.8z
		 M175.2,317.7l-0.4-3c1.9-0.2,3.9-0.5,5.8-0.9l0.5,3C179.2,317.2,177.2,317.5,175.2,317.7z M133,315.7c-2-0.4-3.9-0.9-5.9-1.5
		l0.8-2.9c1.9,0.5,3.8,1,5.7,1.5L133,315.7z M187.1,315.7l-0.7-2.9c1.9-0.4,3.8-0.9,5.7-1.5l0.8,2.9
		C191,314.7,189,315.2,187.1,315.7z M121.4,312.4c-1.9-0.6-3.8-1.3-5.7-2.1l1.1-2.8c1.8,0.7,3.7,1.4,5.6,2L121.4,312.4z
		 M198.7,312.4l-1-2.8c1.9-0.6,3.7-1.3,5.6-2l1.1,2.8C202.6,311,200.6,311.7,198.7,312.4z M110.1,308c-1.8-0.8-3.7-1.7-5.5-2.6
		l1.4-2.7c1.7,0.9,3.5,1.8,5.3,2.6L110.1,308z M210,307.9l-1.2-2.7c1.8-0.8,3.6-1.7,5.3-2.6l1.4,2.7
		C213.7,306.2,211.8,307.1,210,307.9z M99.3,302.4c-1.7-1-3.5-2.1-5.2-3.2l1.6-2.5c1.6,1.1,3.3,2.1,5,3.1L99.3,302.4z M220.8,302.4
		l-1.5-2.6c1.7-1,3.4-2,5-3.1l1.6,2.5C224.2,300.3,222.5,301.4,220.8,302.4z M89.1,295.9c-1.6-1.2-3.3-2.4-4.8-3.7l1.9-2.3
		c1.5,1.2,3.1,2.4,4.7,3.6L89.1,295.9z M230.9,295.8l-1.8-2.4c1.6-1.1,3.2-2.3,4.7-3.6l1.9,2.3C234.2,293.5,232.5,294.7,230.9,295.8
		z M79.6,288.3c-1.5-1.3-3-2.7-4.4-4.1l2.1-2.1c1.4,1.4,2.9,2.7,4.3,4L79.6,288.3z M240.4,288.3l-2-2.2c1.5-1.3,2.9-2.7,4.3-4
		l2.1,2.1C243.4,285.6,241.9,287,240.4,288.3z M71,279.8c-1.4-1.5-2.7-3-4-4.5l2.3-1.9c1.3,1.5,2.6,3,3.9,4.4L71,279.8z M249,279.8
		l-2.2-2c1.3-1.4,2.7-2.9,3.9-4.4l2.3,1.9C251.8,276.8,250.4,278.4,249,279.8z M63.2,270.6c-1.2-1.6-2.4-3.3-3.5-4.9l2.5-1.7
		c1.1,1.6,2.3,3.2,3.5,4.8L63.2,270.6z M256.8,270.6l-2.4-1.8c1.2-1.6,2.4-3.2,3.5-4.8l2.5,1.7C259.2,267.3,258.1,269,256.8,270.6z
		 M56.3,260.6c-1.1-1.7-2.1-3.5-3-5.2l2.6-1.4c0.9,1.7,1.9,3.4,3,5.1L56.3,260.6z M263.7,260.6l-2.6-1.6c1-1.7,2-3.4,3-5.1l2.6,1.4
		C265.8,257.1,264.7,258.8,263.7,260.6z M50.5,250c-0.9-1.8-1.7-3.7-2.5-5.5l2.8-1.2c0.8,1.8,1.6,3.6,2.4,5.4L50.5,250z
		 M269.5,249.9l-2.7-1.3c0.9-1.8,1.7-3.6,2.4-5.4l2.8,1.2C271.2,246.2,270.4,248.1,269.5,249.9z M45.8,238.9
		c-0.7-1.9-1.3-3.8-1.9-5.7l2.9-0.9c0.6,1.9,1.2,3.8,1.9,5.6L45.8,238.9z M274.2,238.7l-2.8-1c0.7-1.8,1.3-3.7,1.9-5.6l2.9,0.9
		C275.5,234.9,274.9,236.8,274.2,238.7z M42.3,227.3c-0.5-1.9-1-3.9-1.3-5.9l2.9-0.6c0.4,1.9,0.8,3.9,1.3,5.8L42.3,227.3z
		 M277.8,227.2l-2.9-0.7c0.5-1.9,0.9-3.8,1.3-5.8l2.9,0.6C278.7,223.2,278.3,225.2,277.8,227.2z M39.9,215.4c-0.3-2-0.6-4-0.8-6
		l3-0.3c0.2,2,0.4,3.9,0.7,5.9L39.9,215.4z M280.2,215.3l-3-0.4c0.3-1.9,0.5-3.9,0.7-5.9l3,0.3C280.7,211.3,280.5,213.3,280.2,215.3
		z M38.7,203.4c-0.1-2-0.2-4-0.2-6.1l3,0c0,2,0.1,4,0.2,5.9L38.7,203.4z M281.4,203.2l-3-0.1c0.1-1.9,0.1-3.9,0.1-5.9l0-0.3h3l0,0.2
		C281.5,199.2,281.5,201.2,281.4,203.2z M41.6,191.4l-3-0.1c0.1-2,0.2-4,0.4-6l3,0.3C41.9,187.5,41.7,189.4,41.6,191.4z M278.3,191
		c-0.1-2-0.3-3.9-0.4-5.9l3-0.3c0.2,2,0.4,4,0.5,6L278.3,191z M42.8,179.6l-3-0.4c0.3-2,0.6-4,1-6l2.9,0.6
		C43.4,175.8,43.1,177.7,42.8,179.6z M277.2,179.3c-0.3-1.9-0.6-3.9-1-5.8l2.9-0.6c0.4,2,0.8,4,1.1,6L277.2,179.3z M45.1,168.1
		l-2.9-0.7c0.5-1.9,1-3.9,1.6-5.8l2.9,0.9C46.1,164.3,45.6,166.2,45.1,168.1z M274.8,167.7c-0.5-1.9-1-3.8-1.6-5.7l2.9-0.9
		c0.6,1.9,1.1,3.9,1.6,5.8L274.8,167.7z M48.6,156.8l-2.8-1c0.7-1.9,1.4-3.8,2.2-5.7l2.8,1.2C50,153.1,49.2,154.9,48.6,156.8z
		 M271.3,156.4c-0.7-1.8-1.4-3.7-2.2-5.5l2.8-1.2c0.8,1.8,1.5,3.7,2.2,5.6L271.3,156.4z M53.2,145.9l-2.7-1.3
		c0.9-1.8,1.8-3.6,2.8-5.4l2.6,1.4C54.9,142.3,54,144.1,53.2,145.9z M266.7,145.6c-0.9-1.8-1.8-3.5-2.7-5.2l2.6-1.4
		c1,1.8,1.9,3.6,2.8,5.4L266.7,145.6z M58.8,135.5l-2.6-1.6c1-1.7,2.2-3.4,3.3-5.1l2.5,1.7C60.9,132.1,59.8,133.8,58.8,135.5z
		 M261,135.2c-1-1.7-2.1-3.3-3.2-4.9l2.5-1.7c1.1,1.6,2.2,3.4,3.3,5.1L261,135.2z M65.5,125.7l-2.4-1.8c1.2-1.6,2.5-3.2,3.8-4.7
		l2.3,1.9C67.9,122.6,66.7,124.1,65.5,125.7z M254.4,125.5c-1.2-1.6-2.4-3.1-3.7-4.6l2.3-1.9c1.3,1.5,2.6,3.1,3.8,4.7L254.4,125.5z
		 M73.1,116.7l-2.2-2c1.4-1.5,2.8-2.9,4.2-4.3l2.1,2.1C75.8,113.8,74.4,115.2,73.1,116.7z M246.8,116.5c-1.3-1.4-2.7-2.9-4.1-4.2
		l2.1-2.2c1.4,1.4,2.9,2.9,4.2,4.3L246.8,116.5z M81.5,108.4l-2-2.2c1.5-1.3,3.1-2.6,4.6-3.9l1.9,2.3
		C84.5,105.8,83,107.1,81.5,108.4z M238.3,108.2c-1.5-1.3-3-2.6-4.5-3.8l1.9-2.3c1.6,1.2,3.1,2.6,4.6,3.9L238.3,108.2z M90.7,101
		L89,98.6c1.6-1.2,3.3-2.3,5-3.4l1.6,2.5C94,98.8,92.3,99.9,90.7,101z M229,100.9c-1.6-1.1-3.2-2.3-4.9-3.3l1.6-2.5
		c1.7,1.1,3.4,2.2,5,3.4L229,100.9z M100.6,94.6L99.1,92c1.7-1,3.5-2,5.3-2.9l1.4,2.7C104.1,92.7,102.3,93.6,100.6,94.6z
		 M219.1,94.5c-1.7-1-3.4-1.9-5.2-2.8l1.4-2.7c1.8,0.9,3.6,1.9,5.3,2.9L219.1,94.5z M111.1,89.2l-1.2-2.7c1.8-0.8,3.7-1.6,5.6-2.4
		l1.1,2.8C114.7,87.6,112.9,88.4,111.1,89.2z M208.6,89.1c-1.8-0.8-3.6-1.6-5.5-2.3l1.1-2.8c1.9,0.7,3.8,1.5,5.6,2.4L208.6,89.1z
		 M122.1,84.9l-1-2.8c1.9-0.6,3.9-1.2,5.8-1.8l0.8,2.9C125.8,83.7,123.9,84.2,122.1,84.9z M197.6,84.8c-1.9-0.6-3.8-1.2-5.6-1.7
		l0.8-2.9c1.9,0.5,3.9,1.1,5.8,1.8L197.6,84.8z M133.5,81.7l-0.7-2.9c2-0.4,4-0.9,5.9-1.2l0.5,3C137.3,80.8,135.4,81.2,133.5,81.7z
		 M186.2,81.6c-1.9-0.4-3.9-0.8-5.8-1.2l0.5-3c2,0.3,4,0.7,5.9,1.2L186.2,81.6z M145.1,79.6l-0.4-3c2-0.2,4-0.5,6-0.6l0.2,3
		C149,79.2,147,79.4,145.1,79.6z M174.5,79.6c-1.9-0.2-3.9-0.4-5.9-0.6l0.2-3c2,0.1,4,0.3,6,0.6L174.5,79.6z M156.9,78.7l-0.1-3
		c2-0.1,4-0.1,6.1,0l-0.1,3C160.8,78.7,158.8,78.7,156.9,78.7z"/>
</g>
<g>
	<g>
		<path class="st1" d="M138.5,214.4h-4.8v-10.1h4.7c2.1,0,3.3,1,3.3,2.6v0c0,1.1-0.6,1.8-1.3,2.2c1.2,0.4,1.9,1.1,1.9,2.5v0
			C142.3,213.4,140.8,214.4,138.5,214.4z M139.5,207.3c0-0.7-0.5-1-1.5-1h-2.2v2.1h2C138.9,208.4,139.5,208,139.5,207.3L139.5,207.3
			z M140.1,211.3c0-0.7-0.5-1.1-1.6-1.1h-2.6v2.2h2.6C139.5,212.4,140.1,212.1,140.1,211.3L140.1,211.3z"/>
		<path class="st1" d="M148.4,214.4v-0.8c-0.5,0.6-1.3,1-2.3,1c-1.5,0-2.7-0.8-2.7-2.4v0c0-1.7,1.3-2.5,3.1-2.5
			c0.8,0,1.3,0.1,1.9,0.3v-0.1c0-0.9-0.6-1.4-1.7-1.4c-0.8,0-1.4,0.2-2.1,0.4l-0.5-1.7c0.9-0.4,1.7-0.6,3-0.6c2.4,0,3.4,1.2,3.4,3.3
			v4.5H148.4z M148.4,211.2c-0.4-0.2-0.9-0.3-1.4-0.3c-0.9,0-1.5,0.4-1.5,1.1v0c0,0.6,0.5,0.9,1.2,0.9c1,0,1.7-0.6,1.7-1.4V211.2z"
			/>
		<path class="st1" d="M155.1,214.5c-1.1,0-2.3-0.4-3.3-1.2l0.9-1.4c0.8,0.6,1.7,0.9,2.4,0.9c0.6,0,0.9-0.2,0.9-0.6v0
			c0-0.5-0.7-0.6-1.6-0.9c-1.1-0.3-2.3-0.8-2.3-2.3v0c0-1.6,1.3-2.4,2.8-2.4c1,0,2,0.3,2.9,0.9l-0.8,1.5c-0.8-0.4-1.5-0.7-2.1-0.7
			c-0.5,0-0.8,0.2-0.8,0.5v0c0,0.4,0.7,0.6,1.6,0.9c1.1,0.4,2.3,0.9,2.3,2.3v0C158.1,213.7,156.8,214.5,155.1,214.5z"/>
		<path class="st1" d="M162.2,214.5c-1.3,0-2.2-0.5-2.2-2.3v-3.7h-0.9v-1.9h0.9v-2h2.2v2h1.8v1.9h-1.8v3.3c0,0.5,0.2,0.7,0.7,0.7
			c0.4,0,0.8-0.1,1.1-0.3v1.8C163.5,214.3,163,214.5,162.2,214.5z"/>
		<path class="st1" d="M165.6,205.8v-1.9h2.3v1.9H165.6z M165.7,214.4v-7.7h2.2v7.7H165.7z"/>
		<path class="st1" d="M173.7,214.5c-2.4,0-4.2-1.8-4.2-4v0c0-2.2,1.8-4,4.2-4c2.4,0,4.2,1.8,4.2,4v0
			C177.9,212.7,176.1,214.5,173.7,214.5z M175.8,210.5c0-1.1-0.8-2.1-2-2.1c-1.3,0-2,1-2,2.1v0c0,1.1,0.8,2.1,2,2.1
			C175,212.6,175.8,211.7,175.8,210.5L175.8,210.5z"/>
		<path class="st1" d="M184.4,214.4v-4.3c0-1-0.5-1.6-1.3-1.6c-0.8,0-1.4,0.5-1.4,1.6v4.3h-2.2v-7.7h2.2v1.1
			c0.5-0.6,1.2-1.2,2.3-1.2c1.7,0,2.6,1.1,2.6,2.9v5H184.4z"/>
		<path class="st1" d="M130.5,231.6v-10.1h2.2v10.1H130.5z"/>
		<path class="st1" d="M139.9,231.6v-4.3c0-1-0.5-1.6-1.3-1.6c-0.8,0-1.4,0.5-1.4,1.6v4.3H135v-7.7h2.2v1.1c0.5-0.6,1.2-1.2,2.3-1.2
			c1.7,0,2.6,1.1,2.6,2.9v5H139.9z"/>
		<path class="st1" d="M146.7,231.8c-1.1,0-2.3-0.4-3.3-1.2l0.9-1.4c0.8,0.6,1.7,0.9,2.4,0.9c0.6,0,0.9-0.2,0.9-0.6v0
			c0-0.5-0.7-0.6-1.6-0.9c-1.1-0.3-2.3-0.8-2.3-2.3v0c0-1.6,1.3-2.4,2.8-2.4c1,0,2,0.3,2.9,0.9l-0.8,1.5c-0.8-0.4-1.5-0.7-2.1-0.7
			c-0.5,0-0.8,0.2-0.8,0.5v0c0,0.4,0.7,0.6,1.6,0.9c1.1,0.4,2.3,0.9,2.3,2.3v0C149.7,231,148.4,231.8,146.7,231.8z"/>
		<path class="st1" d="M153.8,231.8c-1.3,0-2.2-0.5-2.2-2.3v-3.7h-0.9v-1.9h0.9v-2h2.2v2h1.8v1.9h-1.8v3.3c0,0.5,0.2,0.7,0.7,0.7
			c0.4,0,0.8-0.1,1.1-0.3v1.8C155.1,231.6,154.6,231.8,153.8,231.8z"/>
		<path class="st1" d="M161.7,231.6v-0.8c-0.5,0.6-1.3,1-2.3,1c-1.5,0-2.7-0.8-2.7-2.4v0c0-1.7,1.3-2.5,3.1-2.5
			c0.8,0,1.3,0.1,1.9,0.3v-0.1c0-0.9-0.6-1.4-1.7-1.4c-0.8,0-1.4,0.2-2.1,0.4l-0.5-1.7c0.8-0.4,1.7-0.6,3-0.6c2.4,0,3.4,1.2,3.4,3.3
			v4.5H161.7z M161.8,228.5c-0.4-0.2-0.9-0.3-1.4-0.3c-0.9,0-1.5,0.4-1.5,1.1v0c0,0.6,0.5,0.9,1.2,0.9c1,0,1.7-0.6,1.7-1.4V228.5z"
			/>
		<path class="st1" d="M170.6,231.6v-4.3c0-1-0.5-1.6-1.3-1.6c-0.8,0-1.4,0.5-1.4,1.6v4.3h-2.2v-7.7h2.2v1.1
			c0.5-0.6,1.2-1.2,2.3-1.2c1.7,0,2.6,1.1,2.6,2.9v5H170.6z"/>
		<path class="st1" d="M178.4,231.8c-2.3,0-4-1.8-4-4v0c0-2.2,1.7-4,4-4c1.5,0,2.4,0.5,3.1,1.3l-1.3,1.4c-0.5-0.5-1-0.8-1.8-0.8
			c-1.1,0-1.9,1-1.9,2.1v0c0,1.2,0.8,2.1,2,2.1c0.7,0,1.2-0.3,1.8-0.8l1.3,1.3C180.8,231.2,179.9,231.8,178.4,231.8z"/>
		<path class="st1" d="M190.1,228.5h-5.4c0.2,1,0.9,1.5,1.9,1.5c0.7,0,1.3-0.2,1.9-0.8l1.3,1.1c-0.7,0.9-1.8,1.4-3.2,1.4
			c-2.3,0-4-1.6-4-4v0c0-2.2,1.6-4,3.8-4c2.6,0,3.8,2,3.8,4.2v0C190.1,228.2,190.1,228.3,190.1,228.5z M186.4,225.5
			c-0.9,0-1.5,0.6-1.7,1.6h3.3C187.9,226.2,187.3,225.5,186.4,225.5z"/>
	</g>
</g>
<g>
	<path class="st2" d="M176,21c0.6,0,1-0.5,1-1v-6c0-0.5-0.4-1-1-1s-1,0.5-1,1v6C175,20.5,175.4,21,176,21z"/>
	<path class="st2" d="M192,13c-0.6,0-1,0.5-1,1v6c0,0.5,0.4,1,1,1s1-0.5,1-1v-6C193,13.5,192.6,13,192,13z"/>
	<path class="st2" d="M192,5c-3.5,0-6.5,2-8,4.9C182.5,7,179.5,5,176,5s-6.5,2-8,4.9C166.5,7,163.5,5,160,5s-6.5,2-8,4.9
		C150.5,7,147.5,5,144,5s-6.5,2-8,4.9C134.5,7,131.5,5,128,5c-4.9,0-9,4-9,9v18c0,5,4.1,9,9,9c2.9,0,5.4-1.3,7-3.3V47
		c0,2.8,2.2,5,5,5s5-2.2,5-5v-6c3.1-0.3,5.6-2.2,7-4.8c1.5,2.9,4.5,4.9,8,4.9s6.5-2,8-4.9c1.5,2.9,4.5,4.9,8,4.9s6.5-2,8-4.9
		c1.5,2.9,4.5,4.9,8,4.9c4.9,0,9-4,9-9V14C201,9,196.9,5,192,5z M128,39c-3.8,0-7-3.2-7-7V14c0-3.9,3.2-7,7-7c3.9,0,7,3.1,7,7l0,0
		v18l0,0C135,35.8,131.9,39,128,39z M144,39c-0.4,0-0.6,0-1-0.1V47c0,1.7-1.4,3-3,3s-3-1.3-3-3V32V14c0-3.9,3.1-7,7-7s7,3.1,7,7l0,0
		v18l0,0C151,35.8,147.9,39,144,39z M159.6,39c-3.8-0.2-6.6-3.5-6.6-7.2V29c0-0.5,0.4-1,1-1h4c0.6,0,1,0.5,1,1v3c0,0.5,0.4,1,0.9,1
		c0.6,0.1,1.1-0.4,1.1-1v-3c0-1.7-1.4-3-3-3h-0.5c-2.5,0-4.5-2-4.5-4.5v-7.3c0-3.8,2.9-7,6.6-7.2c4-0.2,7.4,3,7.4,7l0,0v3
		c0,0.5-0.4,1-1,1h-4c-0.6,0-1-0.5-1-1v-3c0-0.5-0.4-1-0.9-1c-0.6-0.1-1.1,0.4-1.1,1v3c0,1.7,1.4,3,3,3h0.5c2.5,0,4.5,2,4.5,4.5V32
		l0,0C167,36,163.6,39.2,159.6,39z M175.6,39c-3.8-0.2-6.6-3.5-6.6-7.2V14.2c0-3.8,2.9-7,6.6-7.2c4-0.2,7.4,3,7.4,7l0,0v12
		c0,0.5-0.4,1-1,1h-4c-1.6,0-3,1.3-3,3v2c0,0.5,0.4,1,0.9,1c0.6,0.1,1.1-0.4,1.1-1v-2.3c0-0.5,0.4-1,1-1h4c0.6,0,1,0.5,1,1V32l0,0
		C183,36,179.6,39.2,175.6,39z M199,26c0,0.5-0.4,1-1,1h-4c-1.6,0-3,1.3-3,3v2c0,0.5,0.4,1,0.9,1c0.6,0.1,1.1-0.4,1.1-1v-2.3
		c0-0.5,0.4-1,1-1h4c0.6,0,1,0.5,1,1V32c0,4-3.4,7.2-7.4,7c-3.8-0.2-6.6-3.5-6.6-7.2V14.2c0-3.8,2.9-7,6.6-7.2c4-0.2,7.4,3,7.4,7V26
		z"/>
	<path class="st2" d="M144,13c-0.6,0-1,0.5-1,1v18c0,0.5,0.4,1,1,1s1-0.5,1-1V14C145,13.5,144.6,13,144,13z"/>
	<path class="st2" d="M128,13c-0.6,0-1,0.5-1,1v18c0,0.5,0.4,1,1,1s1-0.5,1-1V14C129,13.5,128.6,13,128,13z"/>
</g>
<g>
	<path class="st0" d="M130.5,272.3v3.9h-0.7v-3.9l-4.2-5.9h0.9l3.7,5.3l3.7-5.3h0.9L130.5,272.3z"/>
	<path class="st0" d="M138.1,276.4c-2.1,0-3.7-1.7-3.7-3.7v0c0-2,1.6-3.7,3.7-3.7c2.1,0,3.7,1.7,3.7,3.7v0
		C141.8,274.7,140.2,276.4,138.1,276.4z M141,272.6c0-1.7-1.3-3.1-2.9-3.1c-1.7,0-2.9,1.4-2.9,3.1v0c0,1.7,1.3,3.1,2.9,3.1
		C139.8,275.7,141,274.4,141,272.6L141,272.6z"/>
	<path class="st0" d="M149.2,276.2v-1.3c-0.5,0.8-1.3,1.5-2.6,1.5c-1.8,0-2.9-1.2-2.9-2.9v-4.4h0.7v4.2c0,1.5,0.8,2.4,2.3,2.4
		c1.4,0,2.5-1.1,2.5-2.5v-4.1h0.7v7.1H149.2z"/>
	<path class="st0" d="M156.2,269.7c-1.7,0-3.1,1.2-3.1,3.6v2.9h-0.7v-7.1h0.7v2c0.6-1.3,1.8-2.2,3.2-2.1L156.2,269.7L156.2,269.7z"
		/>
	<path class="st0" d="M170.6,276.2l-1.2-2.7h-5.8l-1.2,2.7h-0.8l4.6-9.9h0.7l4.6,9.9H170.6z M166.5,267.1l-2.6,5.7h5.2L166.5,267.1z
		"/>
	<path class="st0" d="M181.9,276.3h-0.6l-2.9-8.5l-2.9,8.5H175l-3.6-9.9h0.8l3.1,8.7l2.9-8.8h0.6l2.9,8.8l3.1-8.7h0.8L181.9,276.3z"
		/>
	<path class="st0" d="M190.7,276.4c-1.6,0-2.8-0.5-4-1.6l0.5-0.5c1.1,1,2.1,1.5,3.5,1.5c1.5,0,2.5-0.8,2.5-1.9v0
		c0-1-0.5-1.6-2.8-2.1c-2.4-0.5-3.3-1.3-3.3-2.8v0c0-1.5,1.3-2.6,3.2-2.6c1.4,0,2.4,0.4,3.4,1.2l-0.5,0.6c-0.9-0.8-1.8-1.1-2.9-1.1
		c-1.4,0-2.4,0.8-2.4,1.8v0c0,1,0.5,1.7,2.9,2.1c2.3,0.5,3.2,1.3,3.2,2.7v0C193.9,275.3,192.6,276.4,190.7,276.4z"/>
	<path class="st0" d="M120.7,292.5c1.1,0,1.9-0.5,2.5-1.1l0.5,0.4c-0.7,0.8-1.6,1.3-3,1.3c-1.9,0-3.5-1.5-3.5-3.7v0
		c0-2.1,1.5-3.7,3.4-3.7c2,0,3.3,1.6,3.3,3.7v0c0,0.1,0,0.1,0,0.3h-5.9C118.1,291.5,119.3,292.5,120.7,292.5z M123.1,289.1
		c-0.1-1.4-0.9-2.8-2.6-2.8c-1.4,0-2.5,1.2-2.6,2.8H123.1z"/>
	<path class="st0" d="M131.3,293v-4.2c0-1.5-0.8-2.4-2.3-2.4c-1.4,0-2.5,1.1-2.5,2.5v4.1h-0.7v-7.1h0.7v1.3c0.5-0.8,1.3-1.5,2.6-1.5
		c1.8,0,2.9,1.2,2.9,2.9v4.4H131.3z"/>
	<path class="st0" d="M137.5,293.1h-0.6l-3.2-7.2h0.8l2.7,6.4l2.7-6.4h0.8L137.5,293.1z"/>
	<path class="st0" d="M142.6,284v-0.9h0.9v0.9H142.6z M142.7,293v-7.1h0.7v7.1H142.7z"/>
	<path class="st0" d="M149.9,286.5c-1.7,0-3.1,1.2-3.1,3.6v2.9h-0.7v-7.1h0.7v2c0.6-1.3,1.8-2.2,3.2-2.1L149.9,286.5L149.9,286.5z"
		/>
	<path class="st0" d="M154.9,293.2c-2.1,0-3.7-1.7-3.7-3.7v0c0-2,1.6-3.7,3.7-3.7c2.1,0,3.7,1.7,3.7,3.7v0
		C158.5,291.5,157,293.2,154.9,293.2z M157.8,289.4c0-1.7-1.3-3.1-2.9-3.1c-1.7,0-2.9,1.4-2.9,3.1v0c0,1.7,1.3,3.1,2.9,3.1
		C156.6,292.5,157.8,291.2,157.8,289.4L157.8,289.4z"/>
	<path class="st0" d="M166.1,293v-4.2c0-1.5-0.8-2.4-2.3-2.4c-1.4,0-2.5,1.1-2.5,2.5v4.1h-0.7v-7.1h0.7v1.3c0.5-0.8,1.3-1.5,2.6-1.5
		c1.8,0,2.9,1.2,2.9,2.9v4.4H166.1z"/>
	<path class="st0" d="M179.3,293v-4.2c0-1.5-0.8-2.4-2.1-2.4c-1.2,0-2.3,0.9-2.3,2.5v4.2h-0.7v-4.3c0-1.5-0.8-2.4-2.1-2.4
		s-2.3,1.1-2.3,2.6v4.1h-0.7v-7.1h0.7v1.3c0.5-0.7,1.1-1.4,2.4-1.4c1.2,0,2,0.7,2.4,1.5c0.5-0.8,1.2-1.5,2.6-1.5
		c1.7,0,2.7,1.2,2.7,3v4.3H179.3z"/>
	<path class="st0" d="M185.6,292.5c1.1,0,1.9-0.5,2.5-1.1l0.5,0.4c-0.7,0.8-1.6,1.3-3,1.3c-1.9,0-3.5-1.5-3.5-3.7v0
		c0-2.1,1.5-3.7,3.4-3.7c2,0,3.3,1.6,3.3,3.7v0c0,0.1,0,0.1,0,0.3h-5.9C182.9,291.5,184.2,292.5,185.6,292.5z M188,289.1
		c-0.1-1.4-0.9-2.8-2.6-2.8c-1.4,0-2.5,1.2-2.6,2.8H188z"/>
	<path class="st0" d="M196.2,293v-4.2c0-1.5-0.8-2.4-2.3-2.4c-1.4,0-2.5,1.1-2.5,2.5v4.1h-0.7v-7.1h0.7v1.3c0.5-0.8,1.3-1.5,2.6-1.5
		c1.8,0,2.9,1.2,2.9,2.9v4.4H196.2z"/>
	<path class="st0" d="M201.7,293.1c-1.1,0-2-0.6-2-2v-4.7h-1v-0.6h1v-2.3h0.7v2.3h2.5v0.6h-2.5v4.6c0,1,0.6,1.4,1.4,1.4
		c0.4,0,0.6-0.1,1.1-0.3v0.6C202.5,293.1,202.1,293.1,201.7,293.1z"/>
</g>
<circle class="st3" cx="160.3" cy="175.8" r="18"/>
<polygon class="st2" points="170.4,122.6 162,131.6 162,57 159,57 159,132 150.2,122.6 148,124.7 160.3,137.8 172.6,124.7 "/>
</svg>
