
<svg width="498px" height="643px" viewBox="126 868 498 643" version="1.1" xmlns="http://www.w3.org/2000/svg" xmlns:xlink="http://www.w3.org/1999/xlink">
    <!-- Generator: Sketch 3.7.1 (28215) - http://www.bohemiancoding.com/sketch -->
    <desc>Created with Sketch.</desc>
    <defs>
        <polygon id="path-1" points="497.952459 497.95082 0 497.95082 0 0.0705226805 497.952459 0.0705226805"></polygon>
        <polygon id="path-3" points="0 642.717213 497.952869 642.717213 497.952869 1.13686838e-13 0 1.13686838e-13"></polygon>
    </defs>
    <g id="Page-1" stroke="none" stroke-width="1" fill="none" fill-rule="evenodd" transform="translate(126.000000, 868.000000)">
        <g id="Group-3" transform="translate(0.000000, 144.766393)">
            <mask id="mask-2" fill="white">
                <use xlink:href="#path-1"></use>
            </mask>
            <g id="Clip-2"></g>
            <path d="M242.546721,6.30163934 L242.386885,0.156147541 C246.511885,0.0495901639 250.67377,0.0413934426 254.796721,0.137704918 L254.657377,6.28319672 C250.626639,6.19098361 246.569262,6.19713115 242.546721,6.30163934 L242.546721,6.30163934 Z M278.792623,8.03114754 C274.817213,7.54344262 270.763934,7.15 266.745492,6.85901639 L267.190164,0.727868852 C271.309016,1.025 275.464754,1.4307377 279.540574,1.9307377 L278.792623,8.03114754 Z M218.411475,8.12336066 L217.647131,2.025 C221.731148,1.51270492 225.884836,1.09467213 229.993443,0.785245902 L230.454508,6.91434426 C226.448361,7.21762295 222.397131,7.62336066 218.411475,8.12336066 L218.411475,8.12336066 Z M302.638934,12.1663934 C298.729098,11.2852459 294.733197,10.4881148 290.768033,9.80163934 L291.819262,3.74221311 C295.886885,4.44918033 299.981148,5.2647541 303.991393,6.1704918 L302.638934,12.1663934 Z M194.583607,12.3344262 L193.210656,6.34262295 C197.233197,5.4204918 201.32541,4.59262295 205.37459,3.87745902 L206.444262,9.9307377 C202.495492,10.627459 198.503689,11.4368852 194.583607,12.3344262 L194.583607,12.3344262 Z M325.95041,18.6684426 C322.132787,17.3959016 318.239344,16.2032787 314.37459,15.1254098 L316.028279,9.20327869 C319.989344,10.3098361 323.983197,11.5311475 327.895082,12.8364754 L325.95041,18.6684426 Z M171.294672,18.9102459 L169.329508,13.0844262 C173.237295,11.7668033 177.227049,10.5311475 181.186066,9.41434426 L182.854098,15.3303279 C178.995492,16.4184426 175.106148,17.6233607 171.294672,18.9102459 L171.294672,18.9102459 Z M348.534426,27.4983607 C344.85,25.8405738 341.087705,24.2606557 337.354098,22.7995902 L339.591803,17.0741803 C343.421721,18.5721311 347.278279,20.1909836 351.056967,21.8897541 L348.534426,27.4983607 Z M148.804918,27.7770492 L146.265984,22.1786885 C150.005738,20.4819672 153.841803,18.8569672 157.669672,17.3467213 L159.92582,23.0659836 C156.192213,24.5372951 152.452459,26.1233607 148.804918,27.7770492 L148.804918,27.7770492 Z M370.110246,38.5413934 C366.616393,36.5270492 363.032377,34.5782787 359.460656,32.7504098 L362.261885,27.2770492 C365.92377,29.1520492 369.597951,31.15 373.181967,33.2135246 L370.110246,38.5413934 Z M127.32541,38.842623 L124.241393,33.525 C127.79877,31.4614754 131.456557,29.4594262 135.114344,27.5762295 L137.929918,33.0413934 C134.362295,34.8795082 130.794672,36.8303279 127.32541,38.842623 L127.32541,38.842623 Z M390.466803,51.6766393 C387.196311,49.3282787 383.827459,47.0331967 380.45041,44.854918 L383.784426,39.6889344 C387.245492,41.922541 390.70041,44.275 394.052869,46.6807377 L390.466803,51.6766393 Z M107.040574,51.9983607 L103.442213,47.0147541 C106.788525,44.5967213 110.233197,42.2422131 113.67582,40.0106557 L117.020082,45.1684426 C113.661475,47.3446721 110.304918,49.6418033 107.040574,51.9983607 L107.040574,51.9983607 Z M409.409426,66.7586066 C406.386885,64.0987705 403.261885,61.4819672 400.12459,58.9819672 L403.954508,54.1745902 C407.169672,56.7340164 410.372541,59.4163934 413.472951,62.1459016 L409.409426,66.7586066 Z M88.1471311,67.1110656 L84.0754098,62.5065574 C87.1512295,59.7831967 90.3459016,57.0967213 93.5672131,54.5188525 L97.407377,59.320082 C94.2659836,61.8344262 91.1512295,64.4553279 88.1471311,67.1110656 L88.1471311,67.1110656 Z M426.761885,83.6397541 C424.015984,80.6909836 421.167623,77.7790984 418.294672,74.9860656 L422.581557,70.5782787 C425.52623,73.4430328 428.446311,76.4286885 431.259836,79.4512295 L426.761885,83.6397541 Z M70.8377049,84.0270492 L66.327459,79.8487705 C69.1348361,76.820082 72.0487705,73.8282787 74.9872951,70.957377 L79.2844262,75.3528689 C76.417623,78.1540984 73.5754098,81.0721311 70.8377049,84.0270492 L70.8377049,84.0270492 Z M442.347951,102.145902 C439.905328,98.9389344 437.360246,95.7606557 434.782377,92.6991803 L439.485246,88.7381148 C442.126639,91.8754098 444.735246,95.1336066 447.239344,98.4204918 L442.347951,102.145902 Z M55.2782787,102.580328 L50.3766393,98.8692623 C52.8602459,95.5885246 55.4647541,92.3241803 58.1163934,89.1602459 L62.827459,93.1090164 C60.2413934,96.195082 57.7004098,99.3815574 55.2782787,102.580328 L55.2782787,102.580328 Z M456.018033,122.092623 C453.905328,118.658197 451.688115,115.246311 449.429918,111.95123 L454.501639,108.47377 C456.817213,111.852869 459.087705,115.35082 461.253689,118.873361 L456.018033,122.092623 Z M41.6327869,122.592623 L36.3868852,119.387705 C38.532377,115.877459 40.7987705,112.367213 43.1286885,108.953279 L48.2065574,112.416393 C45.9360656,115.746311 43.725,119.170492 41.6327869,122.592623 L41.6327869,122.592623 Z M467.628689,143.289344 C465.880738,139.680738 464.015984,136.068033 462.087705,132.547541 L467.479098,129.594672 C469.456557,133.203279 471.368443,136.908197 473.161475,140.609016 L467.628689,143.289344 Z M30.042623,143.877459 L24.5036885,141.211475 C26.292623,137.492213 28.2004098,133.770902 30.1717213,130.15 L35.5713115,133.090574 C33.6471311,136.621311 31.7864754,140.25041 30.042623,143.877459 L30.042623,143.877459 Z M477.063115,165.518852 C475.681967,161.75041 474.188115,157.97377 472.62459,154.287295 L478.284426,151.885656 C479.886885,155.666393 481.417623,159.539344 482.833607,163.402049 L477.063115,165.518852 Z M20.6389344,166.22582 L14.8602459,164.129508 C16.2639344,160.258607 17.7885246,156.361066 19.3930328,152.547541 L25.0610656,154.930738 C23.4954918,158.652049 22.0077869,162.45123 20.6389344,166.22582 L20.6389344,166.22582 Z M484.231148,188.629508 C483.229098,184.721721 482.120492,180.803689 480.934016,176.981967 L486.806967,175.162295 C488.022131,179.078279 489.157377,183.094672 490.186066,187.102869 L484.231148,188.629508 Z M13.532377,189.387705 L7.57131148,187.883607 C8.5795082,183.889754 9.70245902,179.869262 10.9114754,175.928689 L16.7885246,177.731967 C15.6102459,181.572131 14.5139344,185.494262 13.532377,189.387705 L13.532377,189.387705 Z M489.04877,212.342623 C488.448361,208.379508 487.739344,204.369262 486.938115,200.426639 L492.962705,199.20123 C493.784426,203.244262 494.511885,207.356967 495.128689,211.422541 L489.04877,212.342623 Z M8.78852459,213.119262 L2.70655738,212.217623 C3.30901639,208.156148 4.02418033,204.043443 4.83155738,199.992213 L10.8602459,201.193033 C10.0713115,205.145902 9.37459016,209.158197 8.78852459,213.119262 L8.78852459,213.119262 Z M491.481148,236.422541 C491.27418,232.402049 490.966803,228.340574 490.565164,224.35082 L496.679918,223.734016 C497.091803,227.82418 497.411475,231.986066 497.620492,236.109016 L491.481148,236.422541 Z M6.43196721,237.205328 L0.292622951,236.910246 C0.489344262,232.789344 0.792622951,228.62541 1.1942623,224.533197 L7.31106557,225.131557 C6.92172131,229.123361 6.62663934,233.184836 6.43196721,237.205328 L6.43196721,237.205328 Z M497.64918,261.45123 L491.509836,261.147951 C491.704508,257.158197 491.804918,253.086475 491.804918,249.045492 L491.804918,248.520902 L497.952459,248.520902 L497.952459,249.045492 C497.952459,253.186885 497.85,257.361066 497.64918,261.45123 L497.64918,261.45123 Z M0.317213115,261.721721 C0.112295082,257.623361 0.00573770492,253.447131 -0.000409836066,249.313934 L6.14713115,249.305738 C6.15327869,253.340574 6.2557377,257.414344 6.45860656,261.412295 L0.317213115,261.721721 Z M495.204508,286.139754 L489.126639,285.234016 C489.720902,281.252459 490.220902,277.211475 490.614344,273.219672 L496.733197,273.82623 C496.327459,277.916393 495.813115,282.059836 495.204508,286.139754 L495.204508,286.139754 Z M2.78852459,286.408197 C2.17581967,282.334426 1.65532787,278.190984 1.24754098,274.092623 L7.36434426,273.481967 C7.76393443,277.477869 8.26803279,281.518852 8.86639344,285.494262 L2.78852459,286.408197 Z M490.319262,310.467623 L484.358197,308.957377 C485.347951,305.055738 486.24959,301.084426 487.040574,297.154098 L493.067213,298.365164 C492.257787,302.395902 491.333607,306.467623 490.319262,310.467623 L490.319262,310.467623 Z M7.70245902,310.731967 C6.68606557,306.740164 5.75778689,302.668443 4.94016393,298.633607 L10.9668033,297.414344 C11.7618852,301.35082 12.6696721,305.320082 13.6614754,309.213525 L7.70245902,310.731967 Z M483.003689,334.213525 L477.229098,332.111066 C478.606148,328.32418 479.905328,324.455328 481.089754,320.611066 L486.964754,322.420492 C485.74959,326.363115 484.419672,330.330328 483.003689,334.213525 L483.003689,334.213525 Z M15.0344262,334.440984 C13.6184426,330.565984 12.2864754,326.609016 11.0713115,322.678689 L16.9442623,320.863115 C18.1286885,324.695082 19.429918,328.553689 20.8090164,332.332377 L15.0344262,334.440984 Z M473.333607,357.123361 L467.796721,354.44918 C469.542623,350.834426 471.222951,347.119262 472.792623,343.402049 L478.456557,345.791393 C476.845902,349.604918 475.12459,353.416393 473.333607,357.123361 L473.333607,357.123361 Z M24.679918,357.248361 C22.8930328,353.547541 21.1737705,349.75041 19.5713115,345.963525 L25.2331967,343.568033 C26.7946721,347.262705 28.4709016,350.963525 30.2147541,354.57418 L24.679918,357.248361 Z M461.427869,378.932787 L456.184016,375.719672 C458.294672,372.279098 460.337705,368.75041 462.257787,365.231967 L467.653279,368.176639 C465.684016,371.783197 463.589754,375.404098 461.427869,378.932787 L461.427869,378.932787 Z M36.5610656,378.994262 C34.4114754,375.486066 32.3213115,371.87541 30.35,368.268852 L35.7454918,365.320082 C37.667623,368.838525 39.7045082,372.359016 41.8028689,375.781148 L36.5610656,378.994262 Z M447.415574,399.438934 L442.520082,395.719672 C444.944262,392.529098 447.327459,389.221721 449.602049,385.893852 L454.677869,389.361066 C452.343852,392.775 449.90123,396.164344 447.415574,399.438934 L447.415574,399.438934 Z M50.5569672,399.461475 C48.0610656,396.17459 45.622541,392.789344 43.304918,389.397951 L48.3807377,385.930738 C50.6409836,389.238115 53.020082,392.539344 55.452459,395.742213 L50.5569672,399.461475 Z M431.444262,418.443033 L426.942213,414.258607 C429.67582,411.313934 432.37459,408.260656 434.960656,405.182787 L439.667623,409.137705 C437.015984,412.293443 434.24959,415.422541 431.444262,418.443033 L431.444262,418.443033 Z M66.5159836,418.44918 C63.702459,415.420492 60.9381148,412.291393 58.2987705,409.15 L63.0057377,405.197131 C65.5795082,408.260656 68.2762295,411.311885 71.020082,414.264754 L66.5159836,418.44918 Z M413.681967,435.762705 L409.612295,431.154098 C412.622541,428.498361 415.608197,425.727869 418.487295,422.920492 L422.778279,427.322131 C419.82541,430.20123 416.763934,433.041393 413.681967,435.762705 L413.681967,435.762705 Z M84.2844262,435.772951 C81.1983607,433.04959 78.1389344,430.209426 75.1840164,427.330328 L79.475,422.926639 C82.3561475,425.736066 85.3438525,428.506557 88.3520492,431.164344 L84.2844262,435.772951 Z M394.296721,451.236066 L390.706557,446.244262 C393.954508,443.908197 397.198361,441.44918 400.345902,438.934836 L404.179918,443.740164 C400.952459,446.318033 397.628689,448.838525 394.296721,451.236066 L394.296721,451.236066 Z M103.688115,451.256557 C100.347951,448.852869 97.0180328,446.328279 93.792623,443.754508 L97.6266393,438.94918 C100.77418,441.461475 104.022131,443.922541 107.280328,446.268852 L103.688115,451.256557 Z M373.481148,464.70123 L370.403279,459.381557 C373.876639,457.371311 377.347951,455.246311 380.716803,453.065984 L384.054918,458.227869 C380.602049,460.463525 377.042623,462.641803 373.481148,464.70123 L373.481148,464.70123 Z M124.544672,464.746311 C120.981148,462.684836 117.417623,460.502459 113.948361,458.260656 L117.286475,453.09877 C120.667623,455.285246 124.147131,457.414344 127.622541,459.422541 L124.544672,464.746311 Z M351.446311,476.025 L348.913525,470.42459 C352.579508,468.766803 356.239344,466.998361 359.794672,465.172541 L362.604098,470.639754 C358.958607,472.512705 355.204508,474.32623 351.446311,476.025 L351.446311,476.025 Z M146.655328,476.092623 C142.878689,474.387705 139.110246,472.570082 135.454508,470.693033 L138.263934,465.22582 C141.827459,467.055738 145.501639,468.82623 149.184016,470.488115 L146.655328,476.092623 Z M328.37459,485.094672 L326.413525,479.268852 C330.214754,477.992213 334.040574,476.594672 337.788525,475.121311 L340.038525,480.844672 C336.194262,482.352869 332.270082,483.785246 328.37459,485.094672 L328.37459,485.094672 Z M169.809016,485.170492 C165.876639,483.854918 161.942213,482.42459 158.116393,480.922541 L160.362295,475.19918 C164.091803,476.664344 167.927869,478.057787 171.763934,479.344672 L169.809016,485.170492 Z M304.487295,491.813934 L303.122541,485.818033 C307.030328,484.928689 310.977049,483.92459 314.852049,482.834426 L316.515984,488.754508 C312.542623,489.869262 308.495492,490.9 304.487295,491.813934 L304.487295,491.813934 Z M193.706557,491.865164 C189.696311,490.957377 185.64918,489.930738 181.67377,488.818033 L183.333607,482.897951 C187.208607,483.984016 191.155328,484.984016 195.065164,485.869262 L193.706557,491.865164 Z M280.044672,496.10082 L279.288525,490.002459 C283.27623,489.506557 287.302869,488.902049 291.255738,488.207377 L292.321311,494.262705 C288.268033,494.97582 284.136885,495.592623 280.044672,496.10082 L280.044672,496.10082 Z M218.14918,496.131557 C214.052869,495.627459 209.92377,495.012705 205.87459,494.305738 L206.934016,488.248361 C210.880738,488.938934 214.907377,489.537295 218.90123,490.033197 L218.14918,496.131557 Z M255.302869,497.947131 L255.15123,491.79959 C259.163525,491.70123 263.229098,491.498361 267.241393,491.19918 L267.698361,497.330328 C263.585656,497.635656 259.415574,497.842623 255.302869,497.947131 L255.302869,497.947131 Z M242.893033,497.95123 C238.782377,497.85082 234.612295,497.647951 230.49959,497.346721 L230.95041,491.215574 C234.960656,491.510656 239.030328,491.709426 243.040574,491.803689 L242.893033,497.95123 Z" id="Fill-1" fill="#757575" mask="url(#mask-2)"></path>
        </g>
        <path d="M206.672131,418.370082 C206.672131,414.92541 204.147541,412.054508 200.588115,412.054508 C197.026639,412.054508 194.559426,414.870082 194.559426,418.312705 L194.559426,418.370082 C194.559426,421.814754 197.086066,424.685656 200.645492,424.685656 C204.202869,424.685656 206.672131,421.872131 206.672131,418.427459 L206.672131,418.370082 Z M200.588115,428.761475 C194.387295,428.761475 189.936475,424.140574 189.936475,418.427459 L189.936475,418.370082 C189.936475,412.659016 194.444672,407.978689 200.645492,407.978689 C206.844262,407.978689 211.293033,412.601639 211.293033,418.312705 L211.293033,418.370082 C211.293033,424.083197 206.786885,428.761475 200.588115,428.761475 L200.588115,428.761475 Z" id="Fill-4" fill="#FAA628"></path>
        <path d="M224.369262,428.416803 L224.369262,426.236475 C223.365164,427.527459 222.072131,428.703689 219.863115,428.703689 C216.561885,428.703689 214.637705,426.523361 214.637705,422.992623 L214.637705,413.031557 L219.002459,413.031557 L219.002459,421.613525 C219.002459,423.681148 219.977869,424.742623 221.641803,424.742623 C223.307787,424.742623 224.369262,423.681148 224.369262,421.613525 L224.369262,413.031557 L228.731967,413.031557 L228.731967,428.416803 L224.369262,428.416803 Z" id="Fill-6" fill="#FAA628"></path>
        <path d="M241.667213,417.308402 C238.767623,417.308402 236.988934,419.058402 236.988934,422.732582 L236.988934,428.417008 L232.62623,428.417008 L232.62623,413.031762 L236.988934,413.031762 L236.988934,416.132172 C237.878279,414.007172 239.314754,412.630123 241.896721,412.744877 L241.896721,417.308402 L241.667213,417.308402 Z" id="Fill-8" fill="#FAA628"></path>
        <polygon id="Fill-10" fill="#FAA628" points="253.682172 428.416803 253.682172 408.32459 268.83791 408.32459 268.83791 412.256967 258.075615 412.256967 258.075615 416.332787 267.546926 416.332787 267.546926 420.265164 258.075615 420.265164 258.075615 424.484426 268.981352 424.484426 268.981352 428.416803"></polygon>
        <path d="M282.318648,428.761066 C276.404713,428.761066 272.01332,424.197541 272.01332,418.429098 L272.01332,418.369672 C272.01332,412.658607 276.318648,407.978279 282.490779,407.978279 C286.281762,407.978279 288.548156,409.242623 290.41291,411.080738 L287.599385,414.322541 C286.050205,412.916803 284.472336,412.056148 282.46209,412.056148 C279.074795,412.056148 276.63627,414.869672 276.63627,418.312295 L276.63627,418.369672 C276.63627,421.814344 279.019467,424.685246 282.46209,424.685246 C284.757172,424.685246 286.164959,423.767213 287.742828,422.330738 L290.558402,425.172951 C288.490779,427.384016 286.195697,428.761066 282.318648,428.761066" id="Fill-12" fill="#FAA628"></path>
        <path d="M296.428689,414.695902 L293.328279,412.2 C295.309836,409.50123 297.234016,408.036066 300.822131,408.036066 C305.096721,408.036066 307.740164,410.505328 307.740164,414.265574 C307.740164,417.62418 306.016803,419.316803 302.455328,422.072951 L299.184836,424.59959 L307.938934,424.59959 L307.938934,428.417213 L293.070082,428.417213 L293.070082,424.915164 L299.758607,419.433607 C302.256557,417.365984 303.231967,416.27582 303.231967,414.609836 C303.231967,412.917213 302.111066,411.99918 300.533197,411.99918 C298.984016,411.99918 297.922541,412.859836 296.428689,414.695902" id="Fill-14" fill="#FAA628"></path>
        <mask id="mask-4" fill="white">
            <use xlink:href="#path-3"></use>
        </mask>
        <g id="Clip-17"></g>
        <polygon id="Fill-16" fill="#FAA628" mask="url(#mask-4)" points="190.268443 462.844262 194.688525 462.844262 194.688525 442.752049 190.268443 442.752049"></polygon>
        <path d="M208.978279,462.843648 L208.978279,454.26168 C208.978279,452.194057 208.00082,451.132582 206.336885,451.132582 C204.672951,451.132582 203.609426,452.194057 203.609426,454.26168 L203.609426,462.843648 L199.246721,462.843648 L199.246721,447.458402 L203.609426,447.458402 L203.609426,449.640779 C204.615574,448.347746 205.906557,447.171516 208.117623,447.171516 C211.416803,447.171516 213.340984,449.353893 213.340984,452.882582 L213.340984,462.843648 L208.978279,462.843648 Z" id="Fill-18" fill="#FAA628" mask="url(#mask-4)"></path>
        <path d="M222.516189,463.130738 C220.3625,463.130738 217.952664,462.413525 215.91373,460.804918 L217.780533,457.934016 C219.444467,459.140984 221.194467,459.772131 222.630943,459.772131 C223.893238,459.772131 224.469057,459.313115 224.469057,458.62459 L224.469057,458.567213 C224.469057,457.620492 222.975205,457.302869 221.280533,456.786475 C219.128893,456.155328 216.68832,455.15123 216.68832,452.165574 L216.68832,452.108197 C216.68832,448.979098 219.214959,447.229098 222.315369,447.229098 C224.266189,447.229098 226.391189,447.888934 228.057172,449.007787 L226.391189,452.022131 C224.868648,451.132787 223.348156,450.585656 222.229303,450.585656 C221.167828,450.585656 220.622746,451.046721 220.622746,451.64918 L220.622746,451.706557 C220.622746,452.567213 222.085861,452.968852 223.751844,453.542623 C225.903484,454.259836 228.401434,455.294672 228.401434,458.108197 L228.401434,458.165574 C228.401434,461.581557 225.846107,463.130738 222.516189,463.130738" id="Fill-19" fill="#FAA628" mask="url(#mask-4)"></path>
        <path d="M236.716393,463.101844 C234.046311,463.101844 232.238934,462.040369 232.238934,458.480943 L232.238934,451.189959 L230.40082,451.189959 L230.40082,447.458402 L232.238934,447.458402 L232.238934,443.526025 L236.601639,443.526025 L236.601639,447.458402 L240.218443,447.458402 L240.218443,451.189959 L236.601639,451.189959 L236.601639,457.76373 C236.601639,458.767828 237.031967,459.255533 238.007377,459.255533 C238.810656,459.255533 239.529918,459.054713 240.161066,458.710451 L240.161066,462.2125 C239.243033,462.757582 238.179508,463.101844 236.716393,463.101844" id="Fill-20" fill="#FAA628" mask="url(#mask-4)"></path>
        <path d="M252.52541,456.643033 C251.779508,456.29877 250.804098,456.069262 249.742623,456.069262 C247.87582,456.069262 246.728279,456.815164 246.728279,458.194262 L246.728279,458.251639 C246.728279,459.427869 247.703689,460.116393 249.109426,460.116393 C251.148361,460.116393 252.52541,458.997541 252.52541,457.417623 L252.52541,456.643033 Z M252.439344,462.843852 L252.439344,461.177869 C251.37582,462.356148 249.914754,463.130738 247.789754,463.130738 C244.890164,463.130738 242.509016,461.466803 242.509016,458.42377 L242.509016,458.366393 C242.509016,455.007787 245.062295,453.456557 248.707787,453.456557 C250.259016,453.456557 251.37582,453.714754 252.468033,454.087705 L252.468033,453.829508 C252.468033,452.022131 251.34918,451.018033 249.166803,451.018033 C247.502869,451.018033 246.326639,451.333607 244.918852,451.85 L243.828689,448.520082 C245.523361,447.77418 247.187295,447.286475 249.797951,447.286475 C254.564344,447.286475 256.660656,449.755738 256.660656,453.915574 L256.660656,462.843852 L252.439344,462.843852 Z" id="Fill-21" fill="#FAA628" mask="url(#mask-4)"></path>
        <path d="M270.141598,462.843648 L270.141598,454.26168 C270.141598,452.194057 269.164139,451.132582 267.500205,451.132582 C265.834221,451.132582 264.772746,452.194057 264.772746,454.26168 L264.772746,462.843648 L260.410041,462.843648 L260.410041,447.458402 L264.772746,447.458402 L264.772746,449.640779 C265.776844,448.347746 267.069877,447.171516 269.278893,447.171516 C272.580123,447.171516 274.504303,449.353893 274.504303,452.882582 L274.504303,462.843648 L270.141598,462.843648 Z" id="Fill-22" fill="#FAA628" mask="url(#mask-4)"></path>
        <path d="M285.544467,463.187705 C280.923566,463.187705 277.53627,459.628279 277.53627,455.236885 L277.53627,455.179508 C277.53627,450.788115 280.894877,447.171311 285.601844,447.171311 C288.501434,447.171311 290.308811,448.146721 291.745287,449.755328 L289.077254,452.62418 C288.099795,451.591393 287.124385,450.931557 285.575205,450.931557 C283.392828,450.931557 281.841598,452.855738 281.841598,455.122131 L281.841598,455.179508 C281.841598,457.534016 283.364139,459.427459 285.747336,459.427459 C287.208402,459.427459 288.214549,458.796311 289.276025,457.792213 L291.831352,460.37418 C290.339549,462.011475 288.616189,463.187705 285.544467,463.187705" id="Fill-23" fill="#FAA628" mask="url(#mask-4)"></path>
        <path d="M301.525615,450.673566 C299.716189,450.673566 298.539959,451.964549 298.195697,453.946107 L304.767418,453.946107 C304.509221,451.993238 303.36168,450.673566 301.525615,450.673566 M308.960041,456.671516 L298.251025,456.671516 C298.681352,458.653074 300.060451,459.685861 302.01127,459.685861 C303.476434,459.685861 304.539959,459.226844 305.744877,458.107992 L308.240779,460.317008 C306.806352,462.097746 304.73873,463.18791 301.955943,463.18791 C297.332992,463.18791 293.917008,459.944057 293.917008,455.23709 L293.917008,455.179713 C293.917008,450.78832 297.046107,447.171516 301.525615,447.171516 C306.66291,447.171516 309.015369,451.16127 309.015369,455.523975 L309.015369,455.581352 C309.015369,456.01168 308.98873,456.269877 308.960041,456.671516" id="Fill-24" fill="#FAA628" mask="url(#mask-4)"></path>
        <path d="M281.764344,32.7879098 C282.891393,32.7879098 283.813525,31.8657787 283.813525,30.7387295 L283.813525,18.4436475 C283.813525,17.3165984 282.891393,16.3944672 281.764344,16.3944672 C280.637295,16.3944672 279.715164,17.3165984 279.715164,18.4436475 L279.715164,30.7387295 C279.715164,31.8657787 280.637295,32.7879098 281.764344,32.7879098" id="Fill-25" fill="#9D9D9D" mask="url(#mask-4)"></path>
        <path d="M314.55123,16.3944672 C313.42418,16.3944672 312.502049,17.3165984 312.502049,18.4436475 L312.502049,30.7387295 C312.502049,31.8657787 313.42418,32.7879098 314.55123,32.7879098 C315.678279,32.7879098 316.60041,31.8657787 316.60041,30.7387295 L316.60041,18.4436475 C316.60041,17.3165984 315.678279,16.3944672 314.55123,16.3944672" id="Fill-26" fill="#9D9D9D" mask="url(#mask-4)"></path>
        <path d="M328.895492,43.0338115 C328.895492,44.1608607 327.973361,45.0829918 326.846311,45.0829918 L318.64959,45.0829918 C315.268443,45.0829918 312.502049,47.8493852 312.502049,51.2305328 L312.502049,55.2264344 C312.502049,56.2510246 313.219262,57.1731557 314.243852,57.3780738 C315.57582,57.5829918 316.60041,56.5584016 316.60041,55.3288934 L316.60041,50.5133197 C316.60041,49.3862705 317.522541,48.4641393 318.64959,48.4641393 L326.846311,48.4641393 C327.973361,48.4641393 328.895492,49.3862705 328.895492,50.5133197 L328.895492,55.3288934 C328.895492,63.5256148 322.030738,70.0829918 313.834016,69.6731557 C306.14959,69.2633197 300.206967,62.6034836 300.206967,54.9190574 L300.206967,18.8534836 C300.206967,11.1690574 306.14959,4.50922131 313.834016,4.09938525 C322.030738,3.68954918 328.895492,10.2469262 328.895492,18.4436475 L328.895492,43.0338115 Z M281.047131,69.6731557 C273.362705,69.2633197 267.420082,62.6034836 267.420082,54.9190574 L267.420082,18.8534836 C267.420082,11.1690574 273.362705,4.50922131 281.047131,4.09938525 C289.243852,3.68954918 296.108607,10.2469262 296.108607,18.4436475 L296.108607,43.0338115 C296.108607,44.1608607 295.186475,45.0829918 294.059426,45.0829918 L285.862705,45.0829918 C282.481557,45.0829918 279.715164,47.8493852 279.715164,51.2305328 L279.715164,55.2264344 C279.715164,56.2510246 280.432377,57.1731557 281.456967,57.3780738 C282.788934,57.5829918 283.813525,56.5584016 283.813525,55.3288934 L283.813525,50.5133197 C283.813525,49.3862705 284.735656,48.4641393 285.862705,48.4641393 L294.059426,48.4641393 C295.186475,48.4641393 296.108607,49.3862705 296.108607,50.5133197 L296.108607,55.3288934 C296.108607,63.5256148 289.243852,70.0829918 281.047131,69.6731557 L281.047131,69.6731557 Z M248.260246,69.6731557 C240.57582,69.2633197 234.633197,62.6034836 234.633197,54.9190574 L234.633197,49.1813525 C234.633197,48.0543033 235.555328,47.1321721 236.682377,47.1321721 L244.879098,47.1321721 C246.006148,47.1321721 246.928279,48.0543033 246.928279,49.1813525 L246.928279,55.2264344 C246.928279,56.2510246 247.645492,57.1731557 248.670082,57.3780738 C250.002049,57.5829918 251.026639,56.5584016 251.026639,55.3288934 L251.026639,49.1813525 C251.026639,45.8002049 248.260246,43.0338115 244.879098,43.0338115 L243.854508,43.0338115 C238.731557,43.0338115 234.633197,38.9354508 234.633197,33.8125 L234.633197,18.8534836 C234.633197,11.1690574 240.57582,4.50922131 248.260246,4.09938525 C256.456967,3.68954918 263.321721,10.2469262 263.321721,18.4436475 L263.321721,24.5911885 C263.321721,25.7182377 262.39959,26.6403689 261.272541,26.6403689 L253.07582,26.6403689 C251.94877,26.6403689 251.026639,25.7182377 251.026639,24.5911885 L251.026639,18.5461066 C251.026639,17.5215164 250.309426,16.5993852 249.284836,16.3944672 C247.952869,16.1895492 246.928279,17.2141393 246.928279,18.4436475 L246.928279,24.5911885 C246.928279,27.9723361 249.694672,30.7387295 253.07582,30.7387295 L254.10041,30.7387295 C259.223361,30.7387295 263.321721,34.8370902 263.321721,39.960041 L263.321721,55.3288934 C263.321721,63.5256148 256.456967,70.0829918 248.260246,69.6731557 L248.260246,69.6731557 Z M216.190574,69.6731557 C215.473361,69.6731557 214.858607,69.5706967 214.141393,69.4682377 L214.141393,86.0665984 C214.141393,89.4477459 211.375,92.2141393 207.993852,92.2141393 C204.612705,92.2141393 201.846311,89.4477459 201.846311,86.0665984 L201.846311,55.3288934 L201.846311,18.4436475 C201.846311,10.5543033 208.30123,4.09938525 216.190574,4.09938525 C224.079918,4.09938525 230.534836,10.5543033 230.534836,18.4436475 L230.534836,55.3288934 C230.534836,63.2182377 224.079918,69.6731557 216.190574,69.6731557 L216.190574,69.6731557 Z M183.403689,69.6731557 C175.514344,69.6731557 169.059426,63.2182377 169.059426,55.3288934 L169.059426,18.4436475 C169.059426,10.5543033 175.514344,4.09938525 183.403689,4.09938525 C191.293033,4.09938525 197.747951,10.5543033 197.747951,18.4436475 L197.747951,55.3288934 C197.747951,63.2182377 191.293033,69.6731557 183.403689,69.6731557 L183.403689,69.6731557 Z M314.55123,0.00102459016 C307.379098,0.00102459016 301.231557,4.09938525 298.157787,10.0420082 C295.084016,4.09938525 288.936475,0.00102459016 281.764344,0.00102459016 C274.592213,0.00102459016 268.444672,4.09938525 265.370902,10.0420082 C262.297131,4.09938525 256.14959,0.00102459016 248.977459,0.00102459016 C241.805328,0.00102459016 235.657787,4.09938525 232.584016,10.0420082 C229.510246,4.09938525 223.362705,0.00102459016 216.190574,0.00102459016 C209.018443,0.00102459016 202.870902,4.09938525 199.797131,10.0420082 C196.723361,4.09938525 190.57582,0.00102459016 183.403689,0.00102459016 C173.260246,0.00102459016 164.961066,8.30020492 164.961066,18.4436475 L164.961066,55.3288934 C164.961066,65.4723361 173.260246,73.7715164 183.403689,73.7715164 C189.243852,73.7715164 194.366803,71.107582 197.747951,66.9067623 L197.747951,86.0665984 C197.747951,91.7018443 202.358607,96.3125 207.993852,96.3125 C213.629098,96.3125 218.239754,91.7018443 218.239754,86.0665984 L218.239754,73.6690574 C224.489754,72.9518443 229.817623,69.1608607 232.584016,63.7305328 C235.657787,69.6731557 241.805328,73.7715164 248.977459,73.7715164 C256.14959,73.7715164 262.297131,69.6731557 265.370902,63.7305328 C268.444672,69.6731557 274.592213,73.7715164 281.764344,73.7715164 C288.936475,73.7715164 295.084016,69.6731557 298.157787,63.7305328 C301.231557,69.6731557 307.379098,73.7715164 314.55123,73.7715164 C324.694672,73.7715164 332.993852,65.4723361 332.993852,55.3288934 L332.993852,18.4436475 C332.993852,8.30020492 324.694672,0.00102459016 314.55123,0.00102459016 L314.55123,0.00102459016 Z" id="Fill-27" fill="#9D9D9D" mask="url(#mask-4)"></path>
        <path d="M216.190574,16.3944672 C215.063525,16.3944672 214.141393,17.3165984 214.141393,18.4436475 L214.141393,55.3288934 C214.141393,56.4559426 215.063525,57.3780738 216.190574,57.3780738 C217.317623,57.3780738 218.239754,56.4559426 218.239754,55.3288934 L218.239754,18.4436475 C218.239754,17.3165984 217.317623,16.3944672 216.190574,16.3944672" id="Fill-28" fill="#9D9D9D" mask="url(#mask-4)"></path>
        <path d="M183.403689,16.3944672 C182.276639,16.3944672 181.354508,17.3165984 181.354508,18.4436475 L181.354508,55.3288934 C181.354508,56.4559426 182.276639,57.3780738 183.403689,57.3780738 C184.530738,57.3780738 185.452869,56.4559426 185.452869,55.3288934 L185.452869,18.4436475 C185.452869,17.3165984 184.530738,16.3944672 183.403689,16.3944672" id="Fill-29" fill="#9D9D9D" mask="url(#mask-4)"></path>
        <polygon id="Fill-30" fill="#757575" mask="url(#mask-4)" points="188.651639 555.780123 186.354508 555.780123 186.354508 547.829303 178.002049 535.68791 180.756148 535.68791 187.530738 545.732992 194.362705 535.68791 197.004098 535.68791 188.651639 547.798566"></polygon>
        <path d="M203.882377,542.576434 C200.667213,542.576434 198.458197,545.131762 198.458197,548.344877 C198.458197,551.560041 200.810656,554.144057 203.937705,554.144057 C207.154918,554.144057 209.392623,551.58873 209.392623,548.404303 C209.392623,545.160451 207.009426,542.576434 203.882377,542.576434 M203.882377,556.123566 C199.431557,556.123566 196.189754,552.621516 196.189754,548.404303 C196.189754,544.182992 199.462295,540.623566 203.937705,540.623566 C208.388525,540.623566 211.661066,544.125615 211.661066,548.344877 C211.661066,552.564139 208.359836,556.123566 203.882377,556.123566" id="Fill-31" fill="#757575" mask="url(#mask-4)"></path>
        <path d="M226.175205,540.940574 L228.355533,540.940574 L228.355533,555.780738 L226.175205,555.780738 L226.175205,553.196721 C225.171107,554.803279 223.648566,556.096311 221.095287,556.096311 C217.507172,556.096311 215.410861,553.684426 215.410861,550.155738 L215.410861,540.940574 L217.619877,540.940574 L217.619877,549.608607 C217.619877,552.364754 219.11373,554.088115 221.724385,554.088115 C224.253074,554.088115 226.175205,552.219262 226.175205,549.436475 L226.175205,540.940574 Z" id="Fill-32" fill="#757575" mask="url(#mask-4)"></path>
        <path d="M235.522746,555.780123 L233.31373,555.780123 L233.31373,540.939959 L235.522746,540.939959 L235.522746,544.814959 C236.61291,542.345697 238.766598,540.567008 241.580123,540.681762 L241.580123,543.06291 L241.405943,543.06291 C238.164139,543.06291 235.522746,545.38873 235.522746,549.866189 L235.522746,555.780123 Z" id="Fill-33" fill="#757575" mask="url(#mask-4)"></path>
        <path d="M262.379098,538.185041 L257.786885,548.430943 L266.944672,548.430943 L262.379098,538.185041 Z M272.627049,555.779303 L270.188525,555.779303 L267.834016,550.469877 L256.897541,550.469877 L254.514344,555.779303 L252.188525,555.779303 L261.346311,535.543648 L263.471311,535.543648 L272.627049,555.779303 Z" id="Fill-34" fill="#757575" mask="url(#mask-4)"></path>
        <polygon id="Fill-35" fill="#757575" mask="url(#mask-4)" points="286.164754 535.629508 288.029508 535.629508 293.541803 552.422541 299.281557 535.686885 301.662705 535.686885 294.488525 555.92459 292.564344 555.92459 287.054098 539.619262 281.513115 555.92459 279.619672 555.92459 272.443443 535.686885 274.912705 535.686885 280.654508 552.422541"></polygon>
        <path d="M312.411885,544.642623 C316.891393,545.620082 318.956967,547.255328 318.956967,550.355738 C318.956967,553.829098 316.086066,556.066803 312.098361,556.066803 C308.909836,556.066803 306.29918,555.005328 303.887295,552.851639 L305.293033,551.187705 C307.389344,553.083197 309.397541,554.029918 312.184426,554.029918 C314.881148,554.029918 316.659836,552.622131 316.659836,550.585246 C316.659836,548.689754 315.655738,547.628279 311.436475,546.738934 C306.815574,545.732787 304.690574,544.240984 304.690574,540.911066 C304.690574,537.695902 307.47541,535.40082 311.293033,535.40082 C314.221311,535.40082 316.315574,536.232787 318.352459,537.868033 L317.034836,539.620082 C315.168033,538.097541 313.303279,537.437705 311.235656,537.437705 C308.622951,537.437705 306.959016,538.87418 306.959016,540.710246 C306.959016,542.634426 307.991803,543.695902 312.411885,544.642623" id="Fill-36" fill="#757575" mask="url(#mask-4)"></path>
        <path d="M172.128074,581.967213 C171.898566,579.270492 170.349385,576.915984 167.390369,576.915984 C164.808402,576.915984 162.857582,579.069672 162.568648,581.967213 L172.128074,581.967213 Z M167.794057,588.627049 C169.830943,588.627049 171.267418,587.795082 172.472336,586.532787 L173.849385,587.766393 C172.357582,589.432377 170.548156,590.54918 167.734631,590.54918 C163.658811,590.54918 160.330943,587.422131 160.330943,582.79918 C160.330943,578.495902 163.345287,575.04918 167.449795,575.04918 C171.839139,575.04918 174.367828,578.55123 174.367828,582.915984 C174.367828,583.116803 174.367828,583.346311 174.33709,583.604508 L162.568648,583.604508 C162.884221,586.817623 165.181352,588.627049 167.794057,588.627049 L167.794057,588.627049 Z" id="Fill-37" fill="#757575" mask="url(#mask-4)"></path>
        <path d="M180.443033,590.205943 L178.234016,590.205943 L178.234016,575.365779 L180.443033,575.365779 L180.443033,577.949795 C181.420492,576.341189 182.967623,575.050205 185.522951,575.050205 C189.111066,575.050205 191.207377,577.460041 191.207377,580.992828 L191.207377,590.205943 L188.996311,590.205943 L188.996311,581.53791 C188.996311,578.781762 187.504508,577.060451 184.891803,577.060451 C182.338525,577.060451 180.443033,578.925205 180.443033,581.710041 L180.443033,590.205943 Z" id="Fill-38" fill="#757575" mask="url(#mask-4)"></path>
        <polygon id="Fill-39" fill="#757575" mask="url(#mask-4)" points="206.898156 575.365369 209.281352 575.365369 202.822336 590.320287 200.871516 590.320287 194.441189 575.365369 196.879713 575.365369 201.875615 587.680943"></polygon>
        <path d="M212.944672,590.204918 L215.153689,590.204918 L215.153689,575.364754 L212.944672,575.364754 L212.944672,590.204918 Z M212.80123,572.120902 L215.32582,572.120902 L215.32582,569.682377 L212.80123,569.682377 L212.80123,572.120902 Z" id="Fill-40" fill="#757575" mask="url(#mask-4)"></path>
        <path d="M222.49918,590.205943 L220.290164,590.205943 L220.290164,575.365779 L222.49918,575.365779 L222.49918,579.240779 C223.589344,576.771516 225.743033,574.992828 228.556557,575.107582 L228.556557,577.490779 L228.382377,577.490779 C225.140574,577.490779 222.49918,579.816598 222.49918,584.292008 L222.49918,590.205943 Z" id="Fill-41" fill="#757575" mask="url(#mask-4)"></path>
        <path d="M238.682582,577.002459 C235.467418,577.002459 233.258402,579.555738 233.258402,582.770902 C233.258402,585.986066 235.610861,588.570082 238.73791,588.570082 C241.955123,588.570082 244.192828,586.014754 244.192828,582.830328 C244.192828,579.586475 241.809631,577.002459 238.682582,577.002459 M238.682582,590.54959 C234.231762,590.54959 230.989959,587.047541 230.989959,582.830328 C230.989959,578.609016 234.2625,575.04959 238.73791,575.04959 C243.18873,575.04959 246.46127,578.551639 246.46127,582.770902 C246.46127,586.992213 243.160041,590.54959 238.682582,590.54959" id="Fill-42" fill="#757575" mask="url(#mask-4)"></path>
        <path d="M252.651434,590.205943 L250.440369,590.205943 L250.440369,575.365779 L252.651434,575.365779 L252.651434,577.949795 C253.628893,576.341189 255.176025,575.050205 257.731352,575.050205 C261.319467,575.050205 263.415779,577.460041 263.415779,580.992828 L263.415779,590.205943 L261.204713,590.205943 L261.204713,581.53791 C261.204713,578.781762 259.71291,577.060451 257.100205,577.060451 C254.546926,577.060451 252.651434,578.925205 252.651434,581.710041 L252.651434,590.205943 Z" id="Fill-43" fill="#757575" mask="url(#mask-4)"></path>
        <path d="M285.106148,575.04918 C288.522131,575.04918 290.616393,577.346311 290.616393,581.020492 L290.616393,590.204918 L288.407377,590.204918 L288.407377,581.536885 C288.407377,578.668033 286.970902,577.059426 284.561066,577.059426 C282.323361,577.059426 280.454508,578.723361 280.454508,581.653689 L280.454508,590.204918 L278.27418,590.204918 L278.27418,581.481557 C278.27418,578.694672 276.811066,577.059426 274.458607,577.059426 C272.102049,577.059426 270.323361,579.012295 270.323361,581.739754 L270.323361,590.204918 L268.114344,590.204918 L268.114344,575.364754 L270.323361,575.364754 L270.323361,577.862705 C271.30082,576.39959 272.620492,575.04918 275.116393,575.04918 C277.528279,575.04918 279.079508,576.342213 279.880738,578.006148 C280.944262,576.370902 282.522131,575.04918 285.106148,575.04918" id="Fill-44" fill="#757575" mask="url(#mask-4)"></path>
        <path d="M306.274385,581.967213 C306.044877,579.270492 304.495697,576.915984 301.53668,576.915984 C298.954713,576.915984 297.003893,579.069672 296.714959,581.967213 L306.274385,581.967213 Z M301.940369,588.627049 C303.977254,588.627049 305.41373,587.795082 306.618648,586.532787 L307.995697,587.766393 C306.503893,589.432377 304.694467,590.54918 301.880943,590.54918 C297.805123,590.54918 294.477254,587.422131 294.477254,582.79918 C294.477254,578.495902 297.491598,575.04918 301.596107,575.04918 C305.985451,575.04918 308.514139,578.55123 308.514139,582.915984 C308.514139,583.116803 308.514139,583.346311 308.483402,583.604508 L296.714959,583.604508 C297.030533,586.817623 299.327664,588.627049 301.940369,588.627049 L301.940369,588.627049 Z" id="Fill-45" fill="#757575" mask="url(#mask-4)"></path>
        <path d="M314.589139,590.205943 L312.380123,590.205943 L312.380123,575.365779 L314.589139,575.365779 L314.589139,577.949795 C315.566598,576.341189 317.11373,575.050205 319.669057,575.050205 C323.257172,575.050205 325.353484,577.460041 325.353484,580.992828 L325.353484,590.205943 L323.142418,590.205943 L323.142418,581.53791 C323.142418,578.781762 321.650615,577.060451 319.03791,577.060451 C316.484631,577.060451 314.589139,578.925205 314.589139,581.710041 L314.589139,590.205943 Z" id="Fill-46" fill="#757575" mask="url(#mask-4)"></path>
        <path d="M333.035861,585.985451 C333.035861,587.794877 334.039959,588.454713 335.533811,588.454713 C336.279713,588.454713 336.91291,588.31127 337.6875,587.93832 L337.6875,589.833811 C336.91291,590.233402 336.078893,590.464959 335.017418,590.464959 C332.63627,590.464959 330.826844,589.28668 330.826844,586.274385 L330.826844,577.319467 L328.759221,577.319467 L328.759221,575.364549 L330.826844,575.364549 L330.826844,570.889139 L333.035861,570.889139 L333.035861,575.364549 L337.744877,575.364549 L337.744877,577.319467 L333.035861,577.319467 L333.035861,585.985451 Z" id="Fill-47" fill="#757575" mask="url(#mask-4)"></path>
        <path d="M286.477459,350.097336 C286.477459,370.468238 269.963115,386.982582 249.592213,386.982582 C229.221311,386.982582 212.706967,370.468238 212.706967,350.097336 C212.706967,329.726434 229.221311,313.21209 249.592213,313.21209 C269.963115,313.21209 286.477459,329.726434 286.477459,350.097336" id="Fill-48" fill="#FAA628" mask="url(#mask-4)"></path>
        <polygon id="Fill-49" fill="#9D9D9D" mask="url(#mask-4)" points="270.22623 240.998361 253.076639 259.447131 253.076639 106.557787 246.929098 106.557787 246.929098 260.342623 228.951639 240.998361 224.44959 245.190984 249.586885 272.227869 274.728279 245.190984"></polygon>
    </g>
</svg>