<?xml version="1.0" encoding="utf-8"?>
<!-- Generator: Adobe Illustrator 19.1.0, SVG Export Plug-In . SVG Version: 6.00 Build 0)  -->
<svg version="1.1" id="Layer_1" xmlns="http://www.w3.org/2000/svg" xmlns:xlink="http://www.w3.org/1999/xlink" x="0px" y="0px"
	 viewBox="0 0 320 230" style="enable-background:new 0 0 320 230;" xml:space="preserve">
<style type="text/css">
	.st0{fill:#757576;}
	.st1{fill:#3C492A;}
	.st2{fill:#B6C99C;}
	.st3{fill:#769B3F;}
	.st4{fill:#4C612C;}
	.st5{fill:#9D9D9D;}
</style>
<g>
	<path class="st0" d="M129,208.2h-1.1v-3.9l-4.1-5.9h1.3l3.3,4.9l3.3-4.9h1.3l-4.1,5.9V208.2z"/>
	<path class="st0" d="M138,208.4c-2.2,0-3.8-1.7-3.8-3.8c0-2.1,1.6-3.8,3.8-3.8c2.2,0,3.8,1.7,3.8,3.8
		C141.8,206.7,140.2,208.4,138,208.4z M138,201.8c-1.6,0-2.6,1.2-2.6,2.8c0,1.6,1.1,2.8,2.7,2.8c1.6,0,2.7-1.2,2.7-2.8
		C140.7,203,139.5,201.8,138,201.8z"/>
	<path class="st0" d="M148.9,201h1.1v7.2h-1.1V207c-0.5,0.8-1.2,1.4-2.5,1.4c-1.8,0-2.8-1.2-2.8-2.9V201h1.1v4.2
		c0,1.3,0.7,2.2,2,2.2c1.2,0,2.2-0.9,2.2-2.3V201z"/>
	<path class="st0" d="M153.4,208.2h-1.1V201h1.1v1.9c0.5-1.2,1.6-2.1,3-2v1.2h-0.1c-1.6,0-2.9,1.1-2.9,3.3V208.2z"/>
	<path class="st0" d="M171.5,208.2h-1.2l-1.1-2.6h-5.3l-1.2,2.6h-1.1l4.5-9.9h1L171.5,208.2z M166.5,199.6l-2.2,5h4.5L166.5,199.6z"
		/>
	<path class="st0" d="M179.4,198.4h0.9l2.7,8.2l2.8-8.2h1.2l-3.5,9.9h-0.9l-2.7-8l-2.7,8h-0.9l-3.5-9.9h1.2l2.8,8.2L179.4,198.4z"/>
	<path class="st0" d="M192.5,202.8c2.2,0.5,3.2,1.3,3.2,2.8c0,1.7-1.4,2.8-3.3,2.8c-1.6,0-2.8-0.5-4-1.6l0.7-0.8
		c1,0.9,2,1.4,3.4,1.4c1.3,0,2.2-0.7,2.2-1.7c0-0.9-0.5-1.4-2.5-1.9c-2.3-0.5-3.3-1.2-3.3-2.8c0-1.6,1.4-2.7,3.2-2.7
		c1.4,0,2.5,0.4,3.4,1.2l-0.6,0.9c-0.9-0.7-1.8-1.1-2.8-1.1c-1.3,0-2.1,0.7-2.1,1.6C189.8,201.8,190.3,202.3,192.5,202.8z"/>
	<path class="st0" d="M120.4,224.2c1,0,1.7-0.4,2.3-1l0.7,0.6c-0.7,0.8-1.6,1.4-3,1.4c-2,0-3.6-1.5-3.6-3.8c0-2.1,1.5-3.8,3.5-3.8
		c2.1,0,3.4,1.7,3.4,3.8c0,0.1,0,0.2,0,0.3h-5.7C118,223.4,119.1,224.2,120.4,224.2z M122.5,221c-0.1-1.3-0.9-2.5-2.3-2.5
		c-1.3,0-2.2,1.1-2.4,2.5H122.5z"/>
	<path class="st0" d="M126.6,225h-1.1v-7.2h1.1v1.3c0.5-0.8,1.2-1.4,2.5-1.4c1.8,0,2.8,1.2,2.8,2.9v4.5h-1.1v-4.2
		c0-1.3-0.7-2.2-2-2.2c-1.2,0-2.2,0.9-2.2,2.3V225z"/>
	<path class="st0" d="M139.5,217.8h1.2l-3.2,7.3h-1l-3.1-7.3h1.2l2.4,6L139.5,217.8z"/>
	<path class="st0" d="M142.3,216.2V215h1.2v1.2H142.3z M142.4,225v-7.2h1.1v7.2H142.4z"/>
	<path class="st0" d="M147.1,225H146v-7.2h1.1v1.9c0.5-1.2,1.6-2.1,3-2v1.2h-0.1c-1.6,0-2.9,1.1-2.9,3.3V225z"/>
	<path class="st0" d="M155,225.2c-2.2,0-3.8-1.7-3.8-3.8c0-2.1,1.6-3.8,3.8-3.8c2.2,0,3.8,1.7,3.8,3.8
		C158.8,223.5,157.2,225.2,155,225.2z M155,218.6c-1.6,0-2.6,1.2-2.6,2.8c0,1.6,1.1,2.8,2.7,2.8c1.6,0,2.7-1.2,2.7-2.8
		C157.7,219.8,156.5,218.6,155,218.6z"/>
	<path class="st0" d="M161.8,225h-1.1v-7.2h1.1v1.3c0.5-0.8,1.2-1.4,2.5-1.4c1.8,0,2.8,1.2,2.8,2.9v4.5H166v-4.2
		c0-1.3-0.7-2.2-2-2.2c-1.2,0-2.2,0.9-2.2,2.3V225z"/>
	<path class="st0" d="M177.6,217.6c1.7,0,2.7,1.1,2.7,2.9v4.5h-1.1v-4.2c0-1.4-0.7-2.2-1.9-2.2c-1.1,0-2,0.8-2,2.2v4.2h-1.1v-4.3
		c0-1.4-0.7-2.2-1.9-2.2c-1.1,0-2,1-2,2.3v4.1h-1.1v-7.2h1.1v1.2c0.5-0.7,1.1-1.4,2.3-1.4c1.2,0,1.9,0.6,2.3,1.4
		C175.6,218.3,176.4,217.6,177.6,217.6z"/>
	<path class="st0" d="M185.8,224.2c1,0,1.7-0.4,2.3-1l0.7,0.6c-0.7,0.8-1.6,1.4-3,1.4c-2,0-3.6-1.5-3.6-3.8c0-2.1,1.5-3.8,3.5-3.8
		c2.1,0,3.4,1.7,3.4,3.8c0,0.1,0,0.2,0,0.3h-5.7C183.5,223.4,184.6,224.2,185.8,224.2z M188,221c-0.1-1.3-0.9-2.5-2.3-2.5
		c-1.3,0-2.2,1.1-2.4,2.5H188z"/>
	<path class="st0" d="M192,225h-1.1v-7.2h1.1v1.3c0.5-0.8,1.2-1.4,2.5-1.4c1.8,0,2.8,1.2,2.8,2.9v4.5h-1.1v-4.2c0-1.3-0.7-2.2-2-2.2
		c-1.2,0-2.2,0.9-2.2,2.3V225z"/>
	<path class="st0" d="M201,223c0,0.9,0.5,1.2,1.2,1.2c0.4,0,0.7-0.1,1.1-0.3v0.9c-0.4,0.2-0.8,0.3-1.3,0.3c-1.2,0-2-0.6-2-2v-4.4h-1
		v-1h1v-2.2h1.1v2.2h2.3v1H201V223z"/>
</g>
<g>
	<path class="st0" d="M157.8,189.1c-1.5,0-3-0.1-4.5-0.2l0.2-2.2c1.5,0.1,3,0.2,4.4,0.2L157.8,189.1z M162.3,189.1l-0.1-2.2
		c1.5,0,3-0.1,4.4-0.2l0.2,2.2C165.3,189,163.8,189.1,162.3,189.1z M148.7,188.4c-1.5-0.2-3-0.4-4.5-0.7l0.4-2.2
		c1.4,0.3,2.9,0.5,4.4,0.7L148.7,188.4z M171.4,188.4l-0.3-2.2c1.5-0.2,2.9-0.4,4.4-0.7l0.4,2.2C174.4,188,172.9,188.2,171.4,188.4z
		 M139.8,186.9c-1.5-0.3-3-0.7-4.4-1.1l0.6-2.2c1.4,0.4,2.9,0.8,4.3,1.1L139.8,186.9z M180.3,186.9l-0.5-2.2
		c1.4-0.3,2.9-0.7,4.3-1.1l0.6,2.2C183.3,186.1,181.8,186.5,180.3,186.9z M131,184.4c-1.4-0.5-2.9-1-4.3-1.6l0.8-2.1
		c1.4,0.5,2.8,1,4.2,1.5L131,184.4z M189.1,184.4l-0.7-2.1c1.4-0.5,2.8-1,4.2-1.5l0.8,2.1C191.9,183.4,190.5,183.9,189.1,184.4z
		 M122.6,181.1c-1.4-0.6-2.8-1.3-4.1-2l1-2c1.3,0.7,2.6,1.3,4,1.9L122.6,181.1z M197.5,181.1l-0.9-2.1c1.3-0.6,2.7-1.2,4-1.9l1,2
		C200.2,179.8,198.9,180.5,197.5,181.1z M114.5,176.9c-1.3-0.8-2.6-1.6-3.9-2.4l1.2-1.9c1.2,0.8,2.5,1.6,3.8,2.3L114.5,176.9z
		 M205.6,176.9l-1.1-1.9c1.3-0.7,2.5-1.5,3.8-2.3l1.2,1.9C208.2,175.4,206.9,176.2,205.6,176.9z M106.8,172
		c-1.2-0.9-2.4-1.8-3.6-2.7l1.4-1.8c1.1,0.9,2.3,1.8,3.5,2.7L106.8,172z M213.2,172l-1.3-1.8c1.2-0.9,2.4-1.8,3.5-2.7l1.4,1.8
		C215.6,170.2,214.4,171.1,213.2,172z M99.7,166.3c-1.1-1-2.3-2-3.3-3.1l1.6-1.6c1.1,1,2.1,2,3.2,3L99.7,166.3z M220.3,166.3
		l-1.5-1.7c1.1-1,2.2-2,3.2-3l1.6,1.6C222.5,164.3,221.4,165.3,220.3,166.3z M93.2,160c-1-1.1-2-2.2-3-3.4l1.7-1.4
		c1,1.1,1.9,2.2,2.9,3.3L93.2,160z M226.8,160l-1.6-1.5c1-1.1,2-2.2,2.9-3.3l1.7,1.4C228.8,157.7,227.8,158.9,226.8,160z
		 M87.4,153.1c-0.9-1.2-1.8-2.4-2.7-3.7l1.9-1.3c0.8,1.2,1.7,2.4,2.6,3.6L87.4,153.1z M232.6,153l-1.8-1.4c0.9-1.2,1.8-2.4,2.6-3.6
		l1.9,1.3C234.4,150.6,233.5,151.8,232.6,153z M82.3,145.6c-0.8-1.3-1.6-2.6-2.3-3.9l2-1.1c0.7,1.3,1.5,2.6,2.2,3.8L82.3,145.6z
		 M237.8,145.5l-1.9-1.2c0.8-1.3,1.5-2.5,2.2-3.8l2,1.1C239.3,142.9,238.5,144.3,237.8,145.5z M77.9,137.6c-0.7-1.4-1.3-2.7-1.9-4.1
		l2.1-0.9c0.6,1.3,1.2,2.7,1.8,4L77.9,137.6z M242.1,137.6l-2-1c0.6-1.3,1.3-2.7,1.8-4l2.1,0.9C243.4,134.8,242.8,136.2,242.1,137.6
		z M74.4,129.3c-0.5-1.4-1-2.9-1.5-4.3l2.1-0.7c0.4,1.4,0.9,2.8,1.4,4.2L74.4,129.3z M245.7,129.2l-2.1-0.8c0.5-1.4,1-2.8,1.4-4.2
		l2.2,0.7C246.7,126.3,246.2,127.8,245.7,129.2z M71.7,120.6c-0.4-1.5-0.7-2.9-1-4.4l2.2-0.4c0.3,1.4,0.6,2.9,1,4.3L71.7,120.6z
		 M248.3,120.5l-2.2-0.6c0.4-1.4,0.7-2.9,1-4.3l2.2,0.4C249,117.5,248.7,119,248.3,120.5z M69.9,111.7c-0.2-1.5-0.4-3-0.6-4.5
		l2.2-0.2c0.1,1.5,0.3,2.9,0.5,4.4L69.9,111.7z M250.1,111.6l-2.2-0.3c0.2-1.5,0.4-2.9,0.5-4.4l2.2,0.2
		C250.5,108.6,250.3,110.1,250.1,111.6z M69,102.6c-0.1-1.5-0.1-3-0.1-4.5l2.2,0c0,1.5,0,3,0.1,4.4L69,102.6z M251,102.5l-2.2-0.1
		c0.1-1.5,0.1-3,0.1-4.4v-0.2h2.2V98C251.1,99.5,251.1,101,251,102.5z M71.2,93.7L69,93.6c0.1-1.5,0.2-3,0.3-4.5l2.2,0.2
		C71.4,90.7,71.3,92.2,71.2,93.7z M248.8,93.4c-0.1-1.5-0.2-3-0.3-4.4l2.2-0.2c0.2,1.5,0.3,3,0.3,4.5L248.8,93.4z M72.1,84.9
		l-2.2-0.3c0.2-1.5,0.5-3,0.8-4.5l2.2,0.4C72.6,81.9,72.3,83.4,72.1,84.9z M247.9,84.6c-0.2-1.4-0.5-2.9-0.8-4.4l2.2-0.4
		c0.3,1.5,0.6,3,0.8,4.5L247.9,84.6z M73.8,76.2l-2.2-0.6c0.4-1.5,0.8-2.9,1.2-4.4l2.2,0.7C74.6,73.3,74.2,74.7,73.8,76.2z
		 M246.1,75.9c-0.4-1.4-0.8-2.9-1.2-4.3L247,71c0.4,1.4,0.9,2.9,1.2,4.4L246.1,75.9z M76.4,67.7l-2.1-0.8c0.5-1.4,1.1-2.8,1.7-4.2
		l2.1,0.9C77.5,64.9,76.9,66.3,76.4,67.7z M243.5,67.4c-0.5-1.4-1-2.8-1.6-4.1l2.1-0.9c0.6,1.4,1.1,2.8,1.7,4.2L243.5,67.4z
		 M79.9,59.5l-2-1c0.7-1.4,1.3-2.7,2.1-4l2,1.1C81.2,56.9,80.5,58.2,79.9,59.5z M240,59.3c-0.6-1.3-1.3-2.6-2-3.9l2-1.1
		c0.7,1.3,1.4,2.7,2.1,4L240,59.3z M84.1,51.7l-1.9-1.2c0.8-1.3,1.6-2.6,2.5-3.8l1.9,1.3C85.7,49.2,84.9,50.5,84.1,51.7z
		 M235.8,51.5c-0.8-1.2-1.6-2.5-2.4-3.7l1.9-1.3c0.9,1.3,1.7,2.5,2.5,3.8L235.8,51.5z M89.1,44.4L87.3,43c0.9-1.2,1.9-2.4,2.8-3.6
		l1.7,1.4C90.9,42.1,90,43.2,89.1,44.4z M230.8,44.2c-0.9-1.2-1.8-2.3-2.8-3.5l1.7-1.4c1,1.2,1.9,2.3,2.8,3.5L230.8,44.2z
		 M94.8,37.6l-1.7-1.5c1-1.1,2.1-2.2,3.2-3.3l1.6,1.6C96.8,35.5,95.8,36.5,94.8,37.6z M225.1,37.5c-1-1.1-2-2.1-3.1-3.2l1.6-1.6
		c1.1,1.1,2.2,2.1,3.2,3.2L225.1,37.5z M101.1,31.4l-1.5-1.7c1.1-1,2.3-2,3.5-2.9l1.4,1.8C103.4,29.5,102.2,30.4,101.1,31.4z
		 M218.7,31.3c-1.1-1-2.2-1.9-3.4-2.8l1.4-1.8c1.2,0.9,2.4,1.9,3.5,2.9L218.7,31.3z M108.1,25.9l-1.3-1.8c1.2-0.9,2.5-1.7,3.7-2.6
		l1.2,1.9C110.5,24.2,109.2,25,108.1,25.9z M211.8,25.8c-1.2-0.9-2.4-1.7-3.7-2.5l1.2-1.9c1.3,0.8,2.5,1.7,3.8,2.6L211.8,25.8z
		 M115.5,21.1l-1.1-1.9c1.3-0.8,2.6-1.5,4-2.2l1,2C118.1,19.6,116.7,20.3,115.5,21.1z M204.3,21c-1.3-0.7-2.6-1.5-3.9-2.1l1-2
		c1.3,0.7,2.7,1.4,4,2.2L204.3,21z M123.3,17l-0.9-2c1.4-0.6,2.8-1.2,4.2-1.8l0.8,2.1C126,15.8,124.7,16.4,123.3,17z M196.4,16.9
		c-1.3-0.6-2.7-1.2-4.1-1.7l0.8-2.1c1.4,0.6,2.8,1.1,4.2,1.8L196.4,16.9z M131.6,13.8l-0.7-2.1c1.4-0.5,2.9-0.9,4.3-1.3l0.6,2.2
		C134.4,12.9,133,13.3,131.6,13.8z M188.2,13.7c-1.4-0.5-2.8-0.9-4.2-1.3l0.6-2.2c1.5,0.4,2.9,0.9,4.3,1.3L188.2,13.7z M140.1,11.4
		l-0.5-2.2c1.5-0.3,3-0.6,4.5-0.9l0.4,2.2C143,10.7,141.5,11,140.1,11.4z M179.6,11.3c-1.4-0.3-2.9-0.6-4.3-0.9l0.4-2.2
		c1.5,0.3,3,0.6,4.5,0.9L179.6,11.3z M148.8,9.8l-0.3-2.2c1.5-0.2,3-0.3,4.5-0.5l0.2,2.2C151.8,9.5,150.3,9.6,148.8,9.8z M170.9,9.8
		c-1.5-0.2-2.9-0.3-4.4-0.4l0.2-2.2c1.5,0.1,3,0.3,4.5,0.4L170.9,9.8z M157.6,9.2l-0.1-2.2c0.8,0,1.6,0,2.4,0c0.7,0,1.4,0,2.1,0
		l-0.1,2.2c-0.7,0-1.4,0-2.1,0C159.2,9.1,158.4,9.1,157.6,9.2z"/>
</g>
<g>
	<polygon class="st1" points="151.2,71.4 148.4,68.8 147,71.5 149.1,71.8 	"/>
	<polygon class="st1" points="148.9,74.7 159,75.4 169.1,74.7 159,69.1 	"/>
	<polygon class="st1" points="165.8,71.4 168.3,71.8 171,71.5 168.6,66.5 	"/>
	<polygon class="st2" points="155.7,89.7 161.5,88.4 167.1,89.7 161.3,95.2 	"/>
	<polygon class="st3" points="156.3,70.9 153.3,70.4 150.2,66.5 153.3,60.3 156.3,61.2 	"/>
	<polygon class="st4" points="148.9,64 148.9,60.4 159,55.3 161.7,61 156.3,63.2 153.3,62.2 153.3,70.3 159,69.1 162,82.5 
		159,101.3 156,99.8 156,95.5 153.3,94.4 153.3,74.3 148.9,74.7 148.9,71.2 147,71.5 147,64.7 	"/>
	<polygon class="st3" points="164.2,58 166.4,59 169.1,60.4 169.1,64 171,64.7 171,71.5 169.1,71.2 169.1,74.7 166.7,74.5 
		164.7,74.3 164.7,78.3 164.7,78.3 164.7,78.3 169.1,78.3 169.1,82 167.1,82.2 167.1,85.9 162,86.9 162,91.2 167.1,89.7 167.1,93.5 
		162,95.5 162,99.8 159,101.3 159,87.5 159,82.9 159,78.3 159,78.3 159,73.7 159,69.1 161.7,69.7 161.7,63.2 159,62.2 159,59.9 
		159,55.3 	"/>
	<polygon class="st1" points="162,61.2 159,59.9 153.3,62.2 156.3,63.2 	"/>
	<polygon class="st4" points="161.7,62.2 164.7,62.2 164.7,70.3 161.7,69.7 	"/>
	<polygon class="st1" points="153.3,62.2 159,59.9 160.2,60.4 162,61.2 164.7,62.2 161.7,63.2 159,62.2 156.3,63.2 	"/>
</g>
<g>
	<g>
		<path class="st5" d="M142.2,122.4c-3,0-5.2-2.3-5.2-5v0c0-2.8,2.2-5.1,5.2-5.1c3,0,5.2,2.3,5.2,5v0
			C147.4,120.1,145.2,122.4,142.2,122.4z M145.1,117.3c0-1.7-1.2-3.1-3-3.1c-1.7,0-2.9,1.4-2.9,3.1v0c0,1.7,1.2,3.1,3,3.1
			S145.1,119,145.1,117.3L145.1,117.3z"/>
		<path class="st5" d="M153.6,122.3c-1.1,0-1.8-0.5-2.3-1.1v3.2h-2.1v-9.7h2.1v1.1c0.5-0.7,1.2-1.2,2.3-1.2c1.8,0,3.4,1.4,3.4,3.9v0
			C157,121,155.3,122.3,153.6,122.3z M154.8,118.4c0-1.2-0.8-2.1-1.8-2.1s-1.8,0.8-1.8,2.1v0c0,1.2,0.8,2.1,1.8,2.1
			S154.8,119.7,154.8,118.4L154.8,118.4z"/>
		<path class="st5" d="M161.2,122.3c-1.1,0-2.2-0.4-3.2-1.1l0.9-1.4c0.8,0.6,1.7,0.9,2.4,0.9c0.6,0,0.9-0.2,0.9-0.6v0
			c0-0.5-0.7-0.6-1.6-0.9c-1.1-0.3-2.2-0.8-2.2-2.3v0c0-1.5,1.2-2.4,2.7-2.4c1,0,2,0.3,2.8,0.9l-0.8,1.5c-0.7-0.4-1.5-0.7-2-0.7
			c-0.5,0-0.8,0.2-0.8,0.5v0c0,0.4,0.7,0.6,1.5,0.9c1.1,0.4,2.3,0.9,2.3,2.2v0C164,121.6,162.8,122.3,161.2,122.3z"/>
		<path class="st5" d="M172.5,119.2h-5.2c0.2,1,0.9,1.5,1.8,1.5c0.7,0,1.2-0.2,1.8-0.8l1.2,1.1c-0.7,0.9-1.7,1.4-3.1,1.4
			c-2.3,0-3.9-1.6-3.9-3.9v0c0-2.1,1.5-3.9,3.7-3.9c2.5,0,3.7,1.9,3.7,4.1v0C172.6,118.9,172.5,119,172.5,119.2z M168.9,116.3
			c-0.9,0-1.5,0.6-1.6,1.6h3.2C170.4,116.9,169.8,116.3,168.9,116.3z"/>
		<path class="st5" d="M181.1,119.2h-5.2c0.2,1,0.9,1.5,1.8,1.5c0.7,0,1.2-0.2,1.8-0.8l1.2,1.1c-0.7,0.9-1.7,1.4-3.1,1.4
			c-2.3,0-3.9-1.6-3.9-3.9v0c0-2.1,1.5-3.9,3.7-3.9c2.5,0,3.7,1.9,3.7,4.1v0C181.1,118.9,181.1,119,181.1,119.2z M177.5,116.3
			c-0.9,0-1.5,0.6-1.6,1.6h3.2C178.9,116.9,178.4,116.3,177.5,116.3z"/>
		<path class="st5" d="M128.1,139v-9.8h2.2v9.8H128.1z"/>
		<path class="st5" d="M140,139l-0.9-2.2H135l-0.9,2.2h-2.2l4.2-9.9h2l4.2,9.9H140z M137,131.7l-1.3,3.2h2.6L137,131.7z"/>
		<path class="st5" d="M151.4,139v-6.4l-2.8,4.2h-0.1l-2.7-4.1v6.4h-2.1v-9.8h2.3l2.6,4.1l2.6-4.1h2.3v9.8H151.4z"/>
		<path class="st5" d="M166.1,139l-2.1-3.1h-1.7v3.1h-2.2v-9.8h4.5c2.3,0,3.7,1.2,3.7,3.2v0c0,1.6-0.9,2.6-2.1,3l2.4,3.5H166.1z
			 M166.1,132.5c0-0.9-0.6-1.4-1.7-1.4h-2.1v2.8h2.2C165.5,134,166.1,133.4,166.1,132.5L166.1,132.5z"/>
		<path class="st5" d="M173.7,139.2c-2.3,0-4-1.7-4-3.9v0c0-2.2,1.7-3.9,4.1-3.9c2.3,0,4,1.7,4,3.9v0
			C177.8,137.4,176,139.2,173.7,139.2z M175.7,135.3c0-1.1-0.8-2.1-2-2.1c-1.2,0-1.9,0.9-1.9,2v0c0,1.1,0.8,2.1,2,2.1
			C174.9,137.3,175.7,136.4,175.7,135.3L175.7,135.3z"/>
		<path class="st5" d="M179.4,139v-10.2h2.1V139H179.4z"/>
		<path class="st5" d="M190.5,136h-5.2c0.2,1,0.9,1.5,1.8,1.5c0.7,0,1.2-0.2,1.8-0.8l1.2,1.1c-0.7,0.9-1.7,1.4-3.1,1.4
			c-2.3,0-3.9-1.6-3.9-3.9v0c0-2.1,1.5-3.9,3.7-3.9c2.5,0,3.7,1.9,3.7,4.1v0C190.5,135.7,190.5,135.8,190.5,136z M186.9,133.1
			c-0.9,0-1.5,0.6-1.6,1.6h3.2C188.3,133.7,187.8,133.1,186.9,133.1z"/>
	</g>
</g>
</svg>
