<?xml version="1.0" encoding="utf-8"?>
<!-- Generator: Adobe Illustrator 19.1.0, SVG Export Plug-In . SVG Version: 6.00 Build 0)  -->
<svg version="1.1" id="Layer_1" xmlns="http://www.w3.org/2000/svg" xmlns:xlink="http://www.w3.org/1999/xlink" x="0px" y="0px"
	 viewBox="0 0 320 320" style="enable-background:new 0 0 320 320;" xml:space="preserve">
<style type="text/css">
	.st0{fill:#30302F;}
	.st1{fill:#616262;}
	.st2{fill-rule:evenodd;clip-rule:evenodd;fill:#9D9D9D;}
	.st3{fill:#9D9D9D;}
	.st4{fill:#FAA629;}
	.st5{fill-rule:evenodd;clip-rule:evenodd;fill:#FAA629;}
</style>
<rect class="st0" width="320" height="320"/>
<g>
	<path class="st1" d="M130.5,296.3v3.9h-0.7v-3.9l-4.2-5.9h0.9l3.7,5.3l3.7-5.3h0.9L130.5,296.3z"/>
	<path class="st1" d="M138.1,300.4c-2.1,0-3.7-1.7-3.7-3.7v0c0-2,1.6-3.7,3.7-3.7c2.1,0,3.7,1.7,3.7,3.7v0
		C141.8,298.7,140.2,300.4,138.1,300.4z M141,296.6c0-1.7-1.3-3.1-2.9-3.1c-1.7,0-2.9,1.4-2.9,3.1v0c0,1.7,1.3,3.1,2.9,3.1
		C139.8,299.7,141,298.4,141,296.6L141,296.6z"/>
	<path class="st1" d="M149.2,300.2v-1.3c-0.5,0.8-1.3,1.5-2.6,1.5c-1.8,0-2.9-1.2-2.9-2.9v-4.4h0.7v4.2c0,1.5,0.8,2.4,2.3,2.4
		c1.4,0,2.5-1.1,2.5-2.5v-4.1h0.7v7.1H149.2z"/>
	<path class="st1" d="M156.2,293.7c-1.7,0-3.1,1.2-3.1,3.6v2.9h-0.7v-7.1h0.7v2c0.6-1.3,1.8-2.2,3.2-2.1L156.2,293.7L156.2,293.7z"
		/>
	<path class="st1" d="M170.6,300.2l-1.2-2.7h-5.8l-1.2,2.7h-0.8l4.6-9.9h0.7l4.6,9.9H170.6z M166.5,291.1l-2.6,5.7h5.2L166.5,291.1z
		"/>
	<path class="st1" d="M181.9,300.3h-0.6l-2.9-8.5l-2.9,8.5H175l-3.6-9.9h0.8l3.1,8.7l2.9-8.8h0.6l2.9,8.8l3.1-8.7h0.8L181.9,300.3z"
		/>
	<path class="st1" d="M190.7,300.4c-1.6,0-2.8-0.5-4-1.6l0.5-0.5c1.1,1,2.1,1.5,3.5,1.5c1.5,0,2.5-0.8,2.5-1.9v0
		c0-1-0.5-1.6-2.8-2.1c-2.4-0.5-3.3-1.3-3.3-2.8v0c0-1.5,1.3-2.6,3.2-2.6c1.4,0,2.4,0.4,3.4,1.2l-0.5,0.6c-0.9-0.8-1.8-1.1-2.9-1.1
		c-1.4,0-2.4,0.8-2.4,1.8v0c0,1,0.5,1.7,2.9,2.1c2.3,0.5,3.2,1.3,3.2,2.7v0C193.9,299.3,192.6,300.4,190.7,300.4z"/>
	<path class="st1" d="M120.7,316.5c1.1,0,1.9-0.5,2.5-1.1l0.5,0.4c-0.7,0.8-1.6,1.3-3,1.3c-1.9,0-3.5-1.5-3.5-3.7v0
		c0-2.1,1.5-3.7,3.4-3.7c2,0,3.3,1.6,3.3,3.7v0c0,0.1,0,0.1,0,0.3h-5.9C118.1,315.5,119.3,316.5,120.7,316.5z M123.1,313.1
		c-0.1-1.4-0.9-2.8-2.6-2.8c-1.4,0-2.5,1.2-2.6,2.8H123.1z"/>
	<path class="st1" d="M131.3,317v-4.2c0-1.5-0.8-2.4-2.3-2.4c-1.4,0-2.5,1.1-2.5,2.5v4.1h-0.7v-7.1h0.7v1.3c0.5-0.8,1.3-1.5,2.6-1.5
		c1.8,0,2.9,1.2,2.9,2.9v4.4H131.3z"/>
	<path class="st1" d="M137.5,317.1h-0.6l-3.2-7.2h0.8l2.7,6.4l2.7-6.4h0.8L137.5,317.1z"/>
	<path class="st1" d="M142.6,308v-0.9h0.9v0.9H142.6z M142.7,317v-7.1h0.7v7.1H142.7z"/>
	<path class="st1" d="M149.9,310.5c-1.7,0-3.1,1.2-3.1,3.6v2.9h-0.7v-7.1h0.7v2c0.6-1.3,1.8-2.2,3.2-2.1L149.9,310.5L149.9,310.5z"
		/>
	<path class="st1" d="M154.9,317.2c-2.1,0-3.7-1.7-3.7-3.7v0c0-2,1.6-3.7,3.7-3.7c2.1,0,3.7,1.7,3.7,3.7v0
		C158.5,315.5,157,317.2,154.9,317.2z M157.8,313.4c0-1.7-1.3-3.1-2.9-3.1c-1.7,0-2.9,1.4-2.9,3.1v0c0,1.7,1.3,3.1,2.9,3.1
		C156.6,316.5,157.8,315.2,157.8,313.4L157.8,313.4z"/>
	<path class="st1" d="M166.1,317v-4.2c0-1.5-0.8-2.4-2.3-2.4c-1.4,0-2.5,1.1-2.5,2.5v4.1h-0.7v-7.1h0.7v1.3c0.5-0.8,1.3-1.5,2.6-1.5
		c1.8,0,2.9,1.2,2.9,2.9v4.4H166.1z"/>
	<path class="st1" d="M179.3,317v-4.2c0-1.5-0.8-2.4-2.1-2.4c-1.2,0-2.3,0.9-2.3,2.5v4.2h-0.7v-4.3c0-1.5-0.8-2.4-2.1-2.4
		s-2.3,1.1-2.3,2.6v4.1h-0.7v-7.1h0.7v1.3c0.5-0.7,1.1-1.4,2.4-1.4c1.2,0,2,0.7,2.4,1.5c0.5-0.8,1.2-1.5,2.6-1.5
		c1.7,0,2.7,1.2,2.7,3v4.3H179.3z"/>
	<path class="st1" d="M185.6,316.5c1.1,0,1.9-0.5,2.5-1.1l0.5,0.4c-0.7,0.8-1.6,1.3-3,1.3c-1.9,0-3.5-1.5-3.5-3.7v0
		c0-2.1,1.5-3.7,3.4-3.7c2,0,3.3,1.6,3.3,3.7v0c0,0.1,0,0.1,0,0.3h-5.9C182.9,315.5,184.2,316.5,185.6,316.5z M188,313.1
		c-0.1-1.4-0.9-2.8-2.6-2.8c-1.4,0-2.5,1.2-2.6,2.8H188z"/>
	<path class="st1" d="M196.2,317v-4.2c0-1.5-0.8-2.4-2.3-2.4c-1.4,0-2.5,1.1-2.5,2.5v4.1h-0.7v-7.1h0.7v1.3c0.5-0.8,1.3-1.5,2.6-1.5
		c1.8,0,2.9,1.2,2.9,2.9v4.4H196.2z"/>
	<path class="st1" d="M201.7,317.1c-1.1,0-2-0.6-2-2v-4.7h-1v-0.6h1v-2.3h0.7v2.3h2.5v0.6h-2.5v4.6c0,1,0.6,1.4,1.4,1.4
		c0.4,0,0.6-0.1,1.1-0.3v0.6C202.5,317.1,202.1,317.1,201.7,317.1z"/>
</g>
<circle class="st2" cx="160" cy="184" r="18"/>
<circle class="st2" cx="239.4" cy="141.5" r="18"/>
<circle class="st2" cx="80.6" cy="141.5" r="18"/>
<g>
	<path class="st1" d="M157,281.5c-2,0-4-0.1-6-0.3l0.2-3c2,0.1,3.9,0.2,5.9,0.3L157,281.5z M163.1,281.5l-0.1-3c2,0,3.9-0.1,5.9-0.3
		l0.2,3C167.1,281.3,165.1,281.4,163.1,281.5z M145,280.7c-2-0.2-4-0.5-6-0.8l0.5-3c1.9,0.3,3.9,0.6,5.9,0.8L145,280.7z
		 M175.1,280.7l-0.3-3c2-0.2,3.9-0.5,5.9-0.8l0.5,3C179.2,280.2,177.1,280.4,175.1,280.7z M133.1,278.8c-2-0.4-3.9-0.8-5.9-1.3
		l0.7-2.9c1.9,0.5,3.8,0.9,5.8,1.3L133.1,278.8z M187.1,278.8l-0.6-2.9c1.9-0.4,3.9-0.8,5.8-1.3l0.7,2.9
		C191,278,189,278.4,187.1,278.8z M121.3,276c-1.9-0.6-3.9-1.2-5.8-1.8l1-2.8c1.9,0.6,3.7,1.2,5.6,1.8L121.3,276z M198.8,275.9
		l-0.8-2.9c1.9-0.6,3.8-1.2,5.6-1.8l1,2.8C202.6,274.7,200.7,275.3,198.8,275.9z M109.9,272c-1.9-0.7-3.8-1.5-5.6-2.3l1.2-2.7
		c1.8,0.8,3.6,1.6,5.5,2.3L109.9,272z M210.2,272l-1.1-2.8c1.8-0.7,3.6-1.5,5.4-2.3l1.2,2.7C213.9,270.5,212.1,271.2,210.2,272z
		 M98.9,267.1c-1.8-0.9-3.6-1.9-5.3-2.8l1.5-2.6c1.7,1,3.5,1.9,5.2,2.8L98.9,267.1z M221.2,267.1l-1.3-2.7c1.7-0.9,3.5-1.8,5.2-2.8
		l1.5,2.6C224.8,265.2,223,266.2,221.2,267.1z M88.3,261.2c-1.7-1.1-3.4-2.2-5.1-3.3l1.7-2.5c1.6,1.1,3.3,2.2,5,3.2L88.3,261.2z
		 M231.7,261.2l-1.6-2.6c1.7-1,3.3-2.1,4.9-3.2l1.7,2.5C235.1,259,233.4,260.1,231.7,261.2z M78.3,254.4c-1.6-1.2-3.2-2.5-4.8-3.7
		l1.9-2.3c1.5,1.2,3.1,2.5,4.7,3.6L78.3,254.4z M241.7,254.4l-1.8-2.4c1.6-1.2,3.1-2.4,4.6-3.6l1.9,2.3
		C244.9,251.9,243.3,253.2,241.7,254.4z M251,246.7l-2-2.2c1.5-1.3,2.9-2.7,4.3-4l2.1,2.1C254,244,252.5,245.4,251,246.7z M69,246.7
		c-1.5-1.3-3-2.7-4.4-4.1l2.1-2.1c1.4,1.4,2.9,2.7,4.3,4L69,246.7z M259.6,238.3l-2.2-2.1c1.3-1.4,2.7-2.9,3.9-4.4l2.3,2
		C262.4,235.3,261,236.8,259.6,238.3z M60.4,238.3c-1.4-1.5-2.7-3-4-4.5l2.3-2c1.3,1.5,2.6,3,3.9,4.4L60.4,238.3z M52.5,229.1
		c-1.2-1.6-2.4-3.2-3.6-4.8l2.4-1.7c1.1,1.6,2.3,3.2,3.5,4.7L52.5,229.1z M267.5,229.1l-2.4-1.9c1.2-1.5,2.4-3.1,3.5-4.7l2.4,1.7
		C270,225.9,268.7,227.5,267.5,229.1z M45.5,219.3c-1.1-1.7-2.2-3.4-3.2-5.1l2.6-1.5c1,1.7,2,3.4,3.1,5L45.5,219.3z M274.5,219.3
		l-2.5-1.6c1.1-1.6,2.1-3.3,3.1-5l2.6,1.5C276.7,215.9,275.6,217.6,274.5,219.3z M39.4,208.9c-0.9-1.8-1.8-3.6-2.7-5.4l2.7-1.3
		c0.8,1.8,1.7,3.5,2.6,5.3L39.4,208.9z M280.7,208.9l-2.7-1.4c0.9-1.7,1.8-3.5,2.7-5.3l2.7,1.3C282.5,205.3,281.6,207.1,280.7,208.9
		z M34.2,198c-0.8-1.8-1.5-3.7-2.2-5.6l2.8-1c0.7,1.8,1.4,3.7,2.2,5.5L34.2,198z M285.8,198l-2.8-1.2c0.8-1.8,1.5-3.7,2.2-5.5l2.8,1
		C287.4,194.2,286.6,196.1,285.8,198z M30,186.7c-0.6-1.9-1.2-3.9-1.7-5.8l2.9-0.8c0.5,1.9,1.1,3.8,1.7,5.7L30,186.7z M290,186.6
		l-2.9-0.9c0.6-1.9,1.2-3.8,1.7-5.7l2.9,0.8C291.2,182.8,290.7,184.7,290,186.6z M26.8,175.1c-0.4-2-0.8-3.9-1.2-5.9l3-0.5
		c0.3,1.9,0.7,3.9,1.2,5.8L26.8,175.1z M293.2,174.9l-2.9-0.7c0.4-1.9,0.8-3.8,1.2-5.8l3,0.5C294,171,293.6,173,293.2,174.9z
		 M24.7,163.2c-0.3-2-0.5-4-0.7-6l3-0.3c0.2,2,0.4,3.9,0.7,5.9L24.7,163.2z M295.3,163.1l-3-0.4c0.3-1.9,0.5-3.9,0.6-5.9l3,0.3
		C295.8,159,295.6,161.1,295.3,163.1z M23.6,151.2c-0.1-2-0.1-4-0.1-6l3,0c0,2,0,3.9,0.1,5.9L23.6,151.2z M296.4,151l-3-0.1
		c0.1-2,0.1-3.9,0.1-5.9v-0.3h3v0.3C296.5,147,296.5,149,296.4,151z M26.6,139.2l-3-0.1c0.1-2,0.2-4,0.4-6l3,0.3
		C26.8,135.3,26.7,137.3,26.6,139.2z M293.4,138.8c-0.1-2-0.2-3.9-0.4-5.9l3-0.3c0.2,2,0.3,4,0.4,6L293.4,138.8z M27.6,127.5l-3-0.4
		c0.3-2,0.6-4,0.9-6l3,0.5C28.2,123.6,27.9,125.5,27.6,127.5z M292.3,127c-0.3-1.9-0.6-3.9-0.9-5.8l3-0.5c0.4,2,0.7,4,0.9,6
		L292.3,127z M29.7,115.9l-2.9-0.7c0.4-2,0.9-3.9,1.4-5.9l2.9,0.8C30.6,112,30.1,113.9,29.7,115.9z M290.2,115.4
		c-0.4-1.9-0.9-3.8-1.4-5.7l2.9-0.8c0.5,1.9,1,3.9,1.5,5.9L290.2,115.4z M32.8,104.5l-2.9-0.9c0.6-1.9,1.3-3.8,2-5.7l2.8,1
		C34,100.7,33.4,102.6,32.8,104.5z M287.1,104c-0.6-1.9-1.3-3.7-1.9-5.6l2.8-1c0.7,1.9,1.4,3.8,2,5.7L287.1,104z M36.9,93.3
		l-2.8-1.2c0.8-1.9,1.6-3.7,2.5-5.5l2.7,1.3C38.4,89.7,37.6,91.5,36.9,93.3z M283,93c-0.8-1.8-1.6-3.6-2.4-5.4l2.7-1.3
		c0.9,1.8,1.7,3.7,2.5,5.5L283,93z M41.9,82.7l-2.7-1.4c0.9-1.8,1.9-3.5,2.9-5.3l2.6,1.5C43.8,79.2,42.8,80.9,41.9,82.7z
		 M277.9,82.4c-0.9-1.7-1.9-3.5-2.9-5.1l2.6-1.5c1,1.7,2,3.5,3,5.3L277.9,82.4z M47.9,72.5l-2.5-1.6c1.1-1.7,2.2-3.4,3.4-5l2.4,1.7
		C50.1,69.2,49,70.8,47.9,72.5z M271.9,72.2c-1.1-1.6-2.2-3.3-3.3-4.9l2.4-1.7c1.2,1.6,2.3,3.3,3.4,5L271.9,72.2z M54.8,62.8
		L52.4,61c1.2-1.6,2.5-3.2,3.8-4.7l2.3,2C57.2,59.8,56,61.3,54.8,62.8z M265,62.6c-1.2-1.5-2.5-3.1-3.7-4.6l2.3-2
		c1.3,1.5,2.6,3.1,3.8,4.7L265,62.6z M62.4,53.9l-2.2-2c1.4-1.5,2.8-2.9,4.2-4.3l2.1,2.1C65.2,51,63.8,52.4,62.4,53.9z M257.4,53.7
		c-1.3-1.4-2.7-2.8-4.1-4.2l2.1-2.1c1.4,1.4,2.9,2.9,4.2,4.3L257.4,53.7z M70.9,45.6l-2-2.2c1.5-1.3,3-2.7,4.6-3.9l1.9,2.3
		C73.8,43,72.3,44.3,70.9,45.6z M248.9,45.4c-1.5-1.3-3-2.6-4.5-3.8l1.9-2.3c1.6,1.3,3.1,2.6,4.6,3.9L248.9,45.4z M80,38.1l-1.8-2.4
		c1.6-1.2,3.3-2.4,4.9-3.5l1.7,2.5C83.2,35.8,81.6,36.9,80,38.1z M239.8,37.9c-1.6-1.2-3.2-2.3-4.8-3.4l1.7-2.5
		c1.7,1.1,3.3,2.3,4.9,3.5L239.8,37.9z M89.7,31.5l-1.6-2.5c1.7-1.1,3.4-2.1,5.2-3.1l1.5,2.6C93.1,29.4,91.4,30.4,89.7,31.5z
		 M230,31.3c-1.7-1-3.4-2-5.1-3l1.5-2.6c1.8,1,3.5,2,5.2,3.1L230,31.3z M100,25.7L98.7,23c1.8-0.9,3.6-1.8,5.4-2.6l1.2,2.7
		C103.6,24,101.8,24.8,100,25.7z M219.6,25.5c-1.8-0.9-3.6-1.7-5.3-2.5l1.2-2.7c1.8,0.8,3.7,1.7,5.5,2.6L219.6,25.5z M110.8,20.9
		l-1.1-2.8c1.9-0.7,3.8-1.4,5.7-2.1l1,2.8C114.5,19.5,112.6,20.1,110.8,20.9z M208.8,20.7c-1.8-0.7-3.7-1.4-5.6-2l1-2.8
		c1.9,0.7,3.8,1.4,5.7,2.1L208.8,20.7z M121.9,17l-0.9-2.9c1.9-0.6,3.9-1.1,5.8-1.6l0.7,2.9C125.7,15.9,123.8,16.4,121.9,17z
		 M197.7,16.9c-1.9-0.6-3.8-1.1-5.7-1.5l0.7-2.9c1.9,0.5,3.9,1,5.8,1.6L197.7,16.9z M133.4,14.2l-0.6-2.9c2-0.4,4-0.8,5.9-1.1l0.5,3
		C137.3,13.4,135.3,13.8,133.4,14.2z M186.2,14.1c-1.9-0.4-3.9-0.7-5.8-1l0.5-3c2,0.3,4,0.7,5.9,1L186.2,14.1z M145.1,12.3l-0.3-3
		c2-0.2,4-0.4,6-0.5l0.2,3C149,11.9,147,12.1,145.1,12.3z M174.5,12.3c-2-0.2-3.9-0.4-5.9-0.5l0.2-3c2,0.1,4,0.3,6,0.5L174.5,12.3z
		 M156.8,11.5l-0.1-3c2,0,4-0.1,6,0l-0.1,3C160.8,11.5,158.8,11.5,156.8,11.5z"/>
</g>
<polygon class="st3" points="161,140.6 161,121 158,121 158,139.5 149.9,130.8 147.7,132.8 160,146 172.3,132.8 170.1,130.8 "/>
<polygon class="st3" points="217.9,99.3 217.2,111.8 205.1,97.4 202.8,99.3 214.9,113.8 202.4,112.2 202.1,115.2 219.9,117.4 
	220.9,99.4 "/>
<polygon class="st3" points="105.1,113.8 117.2,99.3 114.9,97.4 102.8,111.8 102.1,99.3 99.1,99.4 100.1,117.4 117.9,115.2 
	117.6,112.2 "/>
<g>
	<g>
		<path class="st4" d="M138.5,83.5h-4.8V73.4h4.7c2.1,0,3.3,1,3.3,2.6v0c0,1.1-0.6,1.8-1.3,2.2c1.2,0.4,1.9,1.1,1.9,2.5v0
			C142.3,82.6,140.8,83.5,138.5,83.5z M139.5,76.4c0-0.7-0.5-1-1.5-1h-2.2v2.1h2C138.9,77.5,139.5,77.2,139.5,76.4L139.5,76.4z
			 M140.1,80.4c0-0.7-0.5-1.1-1.6-1.1h-2.6v2.2h2.6C139.5,81.6,140.1,81.2,140.1,80.4L140.1,80.4z"/>
		<path class="st4" d="M148.4,83.5v-0.8c-0.5,0.6-1.3,1-2.3,1c-1.5,0-2.7-0.8-2.7-2.4v0c0-1.7,1.3-2.5,3.1-2.5
			c0.8,0,1.3,0.1,1.9,0.3V79c0-0.9-0.6-1.4-1.7-1.4c-0.8,0-1.4,0.2-2.1,0.4l-0.5-1.7c0.8-0.4,1.7-0.6,3-0.6c2.4,0,3.4,1.2,3.4,3.3
			v4.5H148.4z M148.4,80.4c-0.4-0.2-0.9-0.3-1.4-0.3c-0.9,0-1.5,0.4-1.5,1.1v0c0,0.6,0.5,0.9,1.2,0.9c1,0,1.7-0.6,1.7-1.4V80.4z"/>
		<path class="st4" d="M155.1,83.7c-1.1,0-2.3-0.4-3.3-1.2l0.9-1.4c0.8,0.6,1.7,0.9,2.4,0.9c0.6,0,0.9-0.2,0.9-0.6v0
			c0-0.5-0.7-0.6-1.6-0.9c-1.1-0.3-2.3-0.8-2.3-2.3v0c0-1.6,1.3-2.4,2.8-2.4c1,0,2,0.3,2.9,0.9l-0.8,1.5c-0.8-0.4-1.5-0.7-2.1-0.7
			c-0.5,0-0.8,0.2-0.8,0.5v0c0,0.4,0.7,0.6,1.6,0.9c1.1,0.4,2.3,0.9,2.3,2.3v0C158.1,82.9,156.8,83.7,155.1,83.7z"/>
		<path class="st4" d="M162.2,83.6c-1.3,0-2.2-0.5-2.2-2.3v-3.7h-0.9v-1.9h0.9v-2h2.2v2h1.8v1.9h-1.8V81c0,0.5,0.2,0.7,0.7,0.7
			c0.4,0,0.8-0.1,1.1-0.3v1.8C163.5,83.5,163,83.6,162.2,83.6z"/>
		<path class="st4" d="M165.6,74.9V73h2.3v1.9H165.6z M165.7,83.5v-7.7h2.2v7.7H165.7z"/>
		<path class="st4" d="M173.7,83.7c-2.4,0-4.2-1.8-4.2-4v0c0-2.2,1.8-4,4.2-4c2.4,0,4.2,1.8,4.2,4v0
			C177.9,81.9,176.1,83.7,173.7,83.7z M175.8,79.7c0-1.1-0.8-2.1-2-2.1c-1.3,0-2,1-2,2.1v0c0,1.1,0.8,2.1,2,2.1
			C175,81.8,175.8,80.8,175.8,79.7L175.8,79.7z"/>
		<path class="st4" d="M184.4,83.5v-4.3c0-1-0.5-1.6-1.3-1.6c-0.8,0-1.4,0.5-1.4,1.6v4.3h-2.2v-7.7h2.2v1.1c0.5-0.6,1.2-1.2,2.3-1.2
			c1.7,0,2.6,1.1,2.6,2.9v5H184.4z"/>
		<path class="st4" d="M130.5,100.8V90.7h2.2v10.1H130.5z"/>
		<path class="st4" d="M139.9,100.8v-4.3c0-1-0.5-1.6-1.3-1.6c-0.8,0-1.4,0.5-1.4,1.6v4.3H135v-7.7h2.2v1.1c0.5-0.6,1.2-1.2,2.3-1.2
			c1.7,0,2.6,1.1,2.6,2.9v5H139.9z"/>
		<path class="st4" d="M146.7,100.9c-1.1,0-2.3-0.4-3.3-1.2l0.9-1.4c0.8,0.6,1.7,0.9,2.4,0.9c0.6,0,0.9-0.2,0.9-0.6v0
			c0-0.5-0.7-0.6-1.6-0.9c-1.1-0.3-2.3-0.8-2.3-2.3v0c0-1.6,1.3-2.4,2.8-2.4c1,0,2,0.3,2.9,0.9l-0.8,1.5c-0.8-0.4-1.5-0.7-2.1-0.7
			c-0.5,0-0.8,0.2-0.8,0.5v0c0,0.4,0.7,0.6,1.6,0.9c1.1,0.4,2.3,0.9,2.3,2.3v0C149.7,100.2,148.4,100.9,146.7,100.9z"/>
		<path class="st4" d="M153.8,100.9c-1.3,0-2.2-0.5-2.2-2.3v-3.7h-0.9v-1.9h0.9v-2h2.2v2h1.8v1.9h-1.8v3.3c0,0.5,0.2,0.7,0.7,0.7
			c0.4,0,0.8-0.1,1.1-0.3v1.8C155.1,100.7,154.6,100.9,153.8,100.9z"/>
		<path class="st4" d="M161.7,100.8V100c-0.5,0.6-1.3,1-2.3,1c-1.5,0-2.7-0.8-2.7-2.4v0c0-1.7,1.3-2.5,3.1-2.5
			c0.8,0,1.3,0.1,1.9,0.3v-0.1c0-0.9-0.6-1.4-1.7-1.4c-0.8,0-1.4,0.2-2.1,0.4l-0.5-1.7c0.8-0.4,1.7-0.6,3-0.6c2.4,0,3.4,1.2,3.4,3.3
			v4.5H161.7z M161.8,97.7c-0.4-0.2-0.9-0.3-1.4-0.3c-0.9,0-1.5,0.4-1.5,1.1v0c0,0.6,0.5,0.9,1.2,0.9c1,0,1.7-0.6,1.7-1.4V97.7z"/>
		<path class="st4" d="M170.6,100.8v-4.3c0-1-0.5-1.6-1.3-1.6c-0.8,0-1.4,0.5-1.4,1.6v4.3h-2.2v-7.7h2.2v1.1
			c0.5-0.6,1.2-1.2,2.3-1.2c1.7,0,2.6,1.1,2.6,2.9v5H170.6z"/>
		<path class="st4" d="M178.4,101c-2.3,0-4-1.8-4-4v0c0-2.2,1.7-4,4-4c1.5,0,2.4,0.5,3.1,1.3l-1.3,1.4c-0.5-0.5-1-0.9-1.8-0.9
			c-1.1,0-1.9,1-1.9,2.1v0c0,1.2,0.8,2.1,2,2.1c0.7,0,1.2-0.3,1.8-0.8l1.3,1.3C180.8,100.4,179.9,101,178.4,101z"/>
		<path class="st4" d="M190.1,97.7h-5.4c0.2,1,0.9,1.5,1.9,1.5c0.7,0,1.3-0.2,1.9-0.8l1.3,1.1c-0.7,0.9-1.8,1.4-3.2,1.4
			c-2.3,0-4-1.6-4-4v0c0-2.2,1.6-4,3.8-4c2.6,0,3.8,2,3.8,4.2v0C190.1,97.4,190.1,97.5,190.1,97.7z M186.4,94.7
			c-0.9,0-1.5,0.6-1.7,1.6h3.3C187.9,95.3,187.3,94.7,186.4,94.7z"/>
	</g>
</g>
<g>
	<g>
		<path class="st3" d="M217.1,180.4c-1.5,0-3.1-0.5-4.3-1.6l1.3-1.6c0.9,0.7,1.9,1.2,3,1.2c0.9,0,1.5-0.4,1.5-1v0
			c0-0.6-0.3-0.8-2-1.3c-2-0.5-3.3-1.1-3.3-3.1v0c0-1.8,1.5-3,3.5-3c1.5,0,2.7,0.5,3.7,1.3l-1.2,1.7c-0.9-0.6-1.8-1-2.6-1
			c-0.9,0-1.3,0.4-1.3,0.9v0c0,0.7,0.4,0.9,2.2,1.3c2,0.5,3.2,1.3,3.2,3v0C220.8,179.2,219.3,180.4,217.1,180.4z"/>
		<path class="st3" d="M229.7,177.1h-5.4c0.2,1,0.9,1.5,1.9,1.5c0.7,0,1.3-0.2,1.9-0.8l1.3,1.1c-0.7,0.9-1.8,1.4-3.2,1.4
			c-2.3,0-4-1.6-4-4v0c0-2.2,1.6-4,3.8-4c2.6,0,3.8,2,3.8,4.2v0C229.7,176.8,229.7,176.9,229.7,177.1z M226,174.1
			c-0.9,0-1.5,0.6-1.7,1.6h3.3C227.5,174.8,226.9,174.1,226,174.1z"/>
		<path class="st3" d="M235.9,174.6c-1.5,0-2.3,0.9-2.3,2.7v2.9h-2.2v-7.7h2.2v1.6c0.4-1.1,1.2-1.8,2.5-1.7v2.3H235.9z"/>
		<path class="st3" d="M241.7,180.3h-2l-3-7.8h2.3l1.7,5.2l1.7-5.2h2.3L241.7,180.3z"/>
		<path class="st3" d="M246,171.6v-1.9h2.3v1.9H246z M246.1,180.2v-7.7h2.2v7.7H246.1z"/>
		<path class="st3" d="M254,180.4c-2.3,0-4-1.8-4-4v0c0-2.2,1.7-4,4-4c1.5,0,2.4,0.5,3.1,1.3l-1.3,1.4c-0.5-0.5-1-0.8-1.8-0.8
			c-1.1,0-1.9,1-1.9,2.1v0c0,1.2,0.8,2.1,2,2.1c0.7,0,1.2-0.3,1.8-0.8l1.3,1.3C256.4,179.8,255.5,180.4,254,180.4z"/>
		<path class="st3" d="M265.7,177.1h-5.4c0.2,1,0.9,1.5,1.9,1.5c0.7,0,1.3-0.2,1.9-0.8l1.3,1.1c-0.7,0.9-1.8,1.4-3.2,1.4
			c-2.3,0-4-1.6-4-4v0c0-2.2,1.6-4,3.8-4c2.6,0,3.8,2,3.8,4.2v0C265.8,176.8,265.8,176.9,265.7,177.1z M262,174.1
			c-0.9,0-1.5,0.6-1.7,1.6h3.3C263.5,174.8,262.9,174.1,262,174.1z"/>
		<path class="st3" d="M204,193.4c0,2,0.8,3.4,2.8,4.7l-1,1.5c-2.7-1.4-4-3.4-4-6.2s1.3-4.7,4-6.2l1,1.5
			C204.8,190,204,191.3,204,193.4z"/>
		<path class="st3" d="M208.6,197.5v-10.1h7.6v2h-5.4v2h4.8v2h-4.8v2.1h5.5v2H208.6z"/>
		<path class="st3" d="M218.2,197.5v-10.1h2.2v8.1h5v2H218.2z"/>
		<path class="st3" d="M232,197.5h-4.8v-10.1h4.7c2.1,0,3.3,1,3.3,2.6v0c0,1.1-0.6,1.8-1.3,2.2c1.2,0.4,1.9,1.1,1.9,2.5v0
			C235.7,196.6,234.2,197.5,232,197.5z M233,190.4c0-0.7-0.5-1-1.5-1h-2.2v2.1h2C232.3,191.5,233,191.2,233,190.4L233,190.4z
			 M233.5,194.4c0-0.7-0.5-1.1-1.6-1.1h-2.6v2.2h2.6C232.9,195.6,233.5,195.2,233.5,194.4L233.5,194.4z"/>
		<path class="st3" d="M238.1,197.5h-0.9v-2.3h2.3v1.9c0,1.9-1,2.7-2.7,2.7l-0.2-0.9C237.7,198.8,238.2,198.3,238.1,197.5z"/>
		<path class="st3" d="M247.8,197.5l-2.2-3.2h-1.7v3.2h-2.2v-10.1h4.6c2.4,0,3.8,1.3,3.8,3.3v0c0,1.6-0.9,2.7-2.2,3.1l2.5,3.6H247.8
			z M247.8,190.9c0-1-0.7-1.4-1.7-1.4h-2.2v2.9h2.2C247.2,192.3,247.8,191.7,247.8,190.9L247.8,190.9z"/>
		<path class="st3" d="M256,197.5h-3.9v-10.1h3.9c3.2,0,5.4,2.2,5.4,5v0C261.4,195.3,259.2,197.5,256,197.5z M259.1,192.5
			c0-1.8-1.2-3-3-3h-1.7v6.1h1.7C257.8,195.5,259.1,194.3,259.1,192.5L259.1,192.5z"/>
		<path class="st3" d="M266.9,197.6c-1.5,0-3.1-0.5-4.3-1.6l1.3-1.6c0.9,0.7,1.9,1.2,3,1.2c0.9,0,1.5-0.4,1.5-1v0
			c0-0.6-0.3-0.8-2-1.3c-2-0.5-3.3-1.1-3.3-3.1v0c0-1.8,1.5-3,3.5-3c1.5,0,2.7,0.5,3.7,1.3l-1.2,1.7c-0.9-0.6-1.8-1-2.6-1
			s-1.3,0.4-1.3,0.9v0c0,0.7,0.4,0.9,2.2,1.3c2,0.5,3.2,1.3,3.2,3v0C270.6,196.5,269.1,197.6,266.9,197.6z"/>
		<path class="st3" d="M272.9,199.5l-1-1.5c1.9-1.4,2.8-2.7,2.8-4.7s-0.8-3.4-2.8-4.7l1-1.5c2.7,1.4,4,3.4,4,6.2
			S275.6,198.1,272.9,199.5z"/>
	</g>
</g>
<g>
	<g>
		<path class="st3" d="M67.2,180.2v-10.1h7.6v2h-5.4v2h4.8v2h-4.8v2.1h5.5v2H67.2z"/>
		<path class="st3" d="M81.6,180.4c-3,0-5.2-2.3-5.2-5.2v0c0-2.9,2.2-5.2,5.3-5.2c1.9,0,3,0.6,4,1.6l-1.4,1.6
			c-0.8-0.7-1.6-1.1-2.6-1.1c-1.7,0-2.9,1.4-2.9,3.1v0c0,1.7,1.2,3.2,2.9,3.2c1.2,0,1.9-0.5,2.7-1.2l1.4,1.4
			C84.7,179.7,83.5,180.4,81.6,180.4z"/>
		<path class="st3" d="M88.7,173.3l-1.6-1.3c1-1.4,2-2.1,3.8-2.1c2.1,0,3.5,1.2,3.5,3.1c0,1.7-0.9,2.5-2.7,3.9l-1.6,1.3h4.4v1.9H87
			v-1.8l3.4-2.8c1.3-1,1.7-1.6,1.7-2.4c0-0.9-0.6-1.3-1.4-1.3C90,172,89.4,172.4,88.7,173.3z"/>
		<path class="st3" d="M51.2,197.5v-10.1h2.2v10.1H51.2z"/>
		<path class="st3" d="M60.6,197.5v-4.3c0-1-0.5-1.6-1.3-1.6c-0.8,0-1.4,0.5-1.4,1.6v4.3h-2.2v-7.7h2.2v1.1c0.5-0.6,1.2-1.2,2.3-1.2
			c1.7,0,2.6,1.1,2.6,2.9v5H60.6z"/>
		<path class="st3" d="M67.4,197.6c-1.1,0-2.3-0.4-3.3-1.2L65,195c0.8,0.6,1.7,0.9,2.4,0.9c0.6,0,0.9-0.2,0.9-0.6v0
			c0-0.5-0.7-0.6-1.6-0.9c-1.1-0.3-2.3-0.8-2.3-2.3v0c0-1.6,1.3-2.4,2.8-2.4c1,0,2,0.3,2.9,0.9l-0.8,1.5c-0.8-0.4-1.5-0.7-2.1-0.7
			c-0.5,0-0.8,0.2-0.8,0.5v0c0,0.4,0.7,0.6,1.6,0.9c1.1,0.4,2.3,0.9,2.3,2.3v0C70.3,196.9,69,197.6,67.4,197.6z"/>
		<path class="st3" d="M74.5,197.6c-1.3,0-2.2-0.5-2.2-2.3v-3.7h-0.9v-1.9h0.9v-2h2.2v2h1.8v1.9h-1.8v3.3c0,0.5,0.2,0.7,0.7,0.7
			c0.4,0,0.8-0.1,1.1-0.3v1.8C75.7,197.5,75.2,197.6,74.5,197.6z"/>
		<path class="st3" d="M82.4,197.5v-0.8c-0.5,0.6-1.3,1-2.3,1c-1.5,0-2.7-0.8-2.7-2.4v0c0-1.7,1.3-2.5,3.1-2.5
			c0.8,0,1.3,0.1,1.9,0.3V193c0-0.9-0.6-1.4-1.7-1.4c-0.8,0-1.4,0.2-2.1,0.4l-0.5-1.7c0.8-0.4,1.7-0.6,3-0.6c2.4,0,3.4,1.2,3.4,3.3
			v4.5H82.4z M82.4,194.4c-0.4-0.2-0.9-0.3-1.4-0.3c-0.9,0-1.5,0.4-1.5,1.1v0c0,0.6,0.5,0.9,1.2,0.9c1,0,1.7-0.6,1.7-1.4V194.4z"/>
		<path class="st3" d="M91.3,197.5v-4.3c0-1-0.5-1.6-1.3-1.6c-0.8,0-1.4,0.5-1.4,1.6v4.3h-2.2v-7.7h2.2v1.1c0.5-0.6,1.2-1.2,2.3-1.2
			c1.7,0,2.6,1.1,2.6,2.9v5H91.3z"/>
		<path class="st3" d="M99,197.7c-2.3,0-4-1.8-4-4v0c0-2.2,1.7-4,4-4c1.5,0,2.4,0.5,3.1,1.3l-1.3,1.4c-0.5-0.5-1-0.8-1.8-0.8
			c-1.1,0-1.9,1-1.9,2.1v0c0,1.2,0.8,2.1,2,2.1c0.7,0,1.2-0.3,1.8-0.8l1.3,1.3C101.4,197.1,100.5,197.7,99,197.7z"/>
		<path class="st3" d="M110.7,194.4h-5.4c0.2,1,0.9,1.5,1.9,1.5c0.7,0,1.3-0.2,1.9-0.8l1.3,1.1c-0.7,0.9-1.8,1.4-3.2,1.4
			c-2.3,0-4-1.6-4-4v0c0-2.2,1.6-4,3.8-4c2.6,0,3.8,2,3.8,4.2v0C110.8,194.1,110.8,194.2,110.7,194.4z M107,191.4
			c-0.9,0-1.5,0.6-1.7,1.6h3.3C108.5,192.1,107.9,191.4,107,191.4z"/>
	</g>
</g>
<g>
	<g>
		<path class="st3" d="M134.7,222.7c-1.5,0-3.1-0.5-4.3-1.6l1.3-1.6c0.9,0.7,1.9,1.2,3,1.2c0.9,0,1.5-0.4,1.5-1v0
			c0-0.6-0.3-0.8-2-1.3c-2-0.5-3.3-1.1-3.3-3.1v0c0-1.8,1.5-3,3.5-3c1.5,0,2.7,0.5,3.7,1.3l-1.2,1.7c-0.9-0.6-1.8-1-2.6-1
			c-0.9,0-1.3,0.4-1.3,0.9v0c0,0.7,0.4,0.9,2.2,1.3c2,0.5,3.2,1.3,3.2,3v0C138.4,221.6,136.9,222.7,134.7,222.7z"/>
		<path class="st3" d="M147.3,219.5h-5.4c0.2,1,0.9,1.5,1.9,1.5c0.7,0,1.3-0.2,1.9-0.8l1.3,1.1c-0.7,0.9-1.8,1.4-3.2,1.4
			c-2.3,0-4-1.6-4-4v0c0-2.2,1.6-4,3.8-4c2.6,0,3.8,2,3.8,4.2v0C147.3,219.1,147.3,219.3,147.3,219.5z M143.5,216.4
			c-0.9,0-1.5,0.6-1.7,1.6h3.3C145,217.1,144.5,216.4,143.5,216.4z"/>
		<path class="st3" d="M152.6,222.7c-2.3,0-4-1.8-4-4v0c0-2.2,1.7-4,4-4c1.5,0,2.4,0.5,3.1,1.3l-1.3,1.4c-0.5-0.5-1-0.9-1.8-0.9
			c-1.1,0-1.9,1-1.9,2.1v0c0,1.2,0.8,2.1,2,2.1c0.7,0,1.2-0.3,1.8-0.8l1.3,1.3C155,222.1,154.1,222.7,152.6,222.7z"/>
		<path class="st3" d="M162,222.6v-1.1c-0.5,0.6-1.2,1.2-2.3,1.2c-1.7,0-2.6-1.1-2.6-2.9v-5h2.2v4.3c0,1,0.5,1.6,1.3,1.6
			c0.8,0,1.4-0.5,1.4-1.6v-4.3h2.2v7.7H162z"/>
		<path class="st3" d="M170.6,217c-1.5,0-2.3,0.9-2.3,2.7v2.9h-2.2v-7.7h2.2v1.6c0.4-1.1,1.2-1.8,2.5-1.7v2.3H170.6z"/>
		<path class="st3" d="M172.2,214V212h2.3v1.9H172.2z M172.2,222.6v-7.7h2.2v7.7H172.2z"/>
		<path class="st3" d="M179.1,222.7c-1.3,0-2.2-0.5-2.2-2.3v-3.7h-0.9v-1.9h0.9v-2h2.2v2h1.8v1.9H179v3.3c0,0.5,0.2,0.7,0.7,0.7
			c0.4,0,0.8-0.1,1.1-0.3v1.8C180.3,222.5,179.8,222.7,179.1,222.7z"/>
		<path class="st3" d="M186.8,222.7c-0.6,1.6-1.2,2.2-2.5,2.2c-0.8,0-1.4-0.2-1.9-0.5l0.7-1.6c0.3,0.2,0.6,0.3,0.9,0.3
			c0.4,0,0.6-0.1,0.8-0.5l-3-7.7h2.3l1.8,5.3l1.7-5.3h2.3L186.8,222.7z"/>
		<path class="st3" d="M143.3,240c-3.1,0-5.3-2.2-5.3-5.2v0c0-2.9,2.2-5.2,5.3-5.2c1.8,0,2.9,0.5,4,1.4l-1.4,1.7
			c-0.8-0.6-1.5-1-2.6-1c-1.6,0-2.9,1.4-2.9,3.1v0c0,1.8,1.3,3.2,3.1,3.2c0.8,0,1.5-0.2,2.1-0.6v-1.4h-2.2V234h4.4v4.4
			C146.6,239.3,145.1,240,143.3,240z"/>
		<path class="st3" d="M154,234.3c-1.5,0-2.3,0.9-2.3,2.7v2.9h-2.2v-7.7h2.2v1.6c0.4-1.1,1.2-1.8,2.5-1.7v2.3H154z"/>
		<path class="st3" d="M159.3,240c-2.4,0-4.2-1.8-4.2-4v0c0-2.2,1.8-4,4.2-4c2.4,0,4.2,1.8,4.2,4v0C163.5,238.2,161.7,240,159.3,240
			z M161.3,236c0-1.1-0.8-2.1-2-2.1c-1.3,0-2,1-2,2.1v0c0,1.1,0.8,2.1,2,2.1C160.6,238.1,161.3,237.2,161.3,236L161.3,236z"/>
		<path class="st3" d="M169.9,239.8v-1.1c-0.5,0.6-1.2,1.2-2.3,1.2c-1.7,0-2.6-1.1-2.6-2.9v-5h2.2v4.3c0,1,0.5,1.6,1.3,1.6
			c0.8,0,1.4-0.5,1.4-1.6v-4.3h2.2v7.7H169.9z"/>
		<path class="st3" d="M178.6,240c-1.2,0-1.9-0.5-2.4-1.2v3.3H174v-10h2.2v1.1c0.5-0.7,1.3-1.3,2.4-1.3c1.8,0,3.5,1.4,3.5,4v0
			C182.2,238.6,180.5,240,178.6,240z M180,236c0-1.3-0.9-2.1-1.9-2.1c-1,0-1.9,0.8-1.9,2.1v0c0,1.3,0.8,2.1,1.9,2.1
			C179.1,238.1,180,237.3,180,236L180,236z"/>
	</g>
</g>
<circle class="st5" cx="160" cy="45" r="18"/>
</svg>
