<?xml version="1.0" encoding="utf-8"?>
<!-- Generator: Adobe Illustrator 19.1.0, SVG Export Plug-In . SVG Version: 6.00 Build 0)  -->
<svg version="1.1" id="Layer_1" xmlns="http://www.w3.org/2000/svg" xmlns:xlink="http://www.w3.org/1999/xlink" x="0px" y="0px"
	 viewBox="0 0 320 320" style="enable-background:new 0 0 320 320;" xml:space="preserve">
<style type="text/css">
	.st0{fill-rule:evenodd;clip-rule:evenodd;fill:#9D9D9D;}
	.st1{fill:#616262;}
	.st2{fill:#FAA629;}
	.st3{fill:#9D9D9D;}
	.st4{fill-rule:evenodd;clip-rule:evenodd;fill:#FAA629;}
</style>
<circle class="st0" cx="160" cy="234" r="18"/>
<circle class="st0" cx="110" cy="234" r="18"/>
<circle class="st0" cx="210" cy="234" r="18"/>
<g>
	<path class="st1" d="M204.1,279.3h-4.4v-3h4.4c0.5,0,1.1,0,1.6,0l0.1,3C205.3,279.3,204.7,279.3,204.1,279.3z M193.6,279.3h-6.1v-3
		h6.1V279.3z M181.4,279.3h-6.1v-3h6.1V279.3z M169.2,279.3h-6.1v-3h6.1V279.3z M157.1,279.3H151v-3h6.1V279.3z M144.9,279.3h-6.1
		v-3h6.1V279.3z M132.7,279.3h-6.1v-3h6.1V279.3z M120.5,279.3h-4.6c-0.5,0-1,0-1.5,0l0.1-3c0.5,0,0.9,0,1.4,0h4.6V279.3z
		 M108.1,278.5c-2.1-0.4-4.1-1.1-6.1-1.8l1.1-2.8c1.8,0.7,3.7,1.3,5.6,1.7L108.1,278.5z M212.1,278.5l-0.6-2.9
		c1.9-0.4,3.8-1,5.6-1.7l1.1,2.8C216.2,277.4,214.2,278,212.1,278.5z M96.4,273.8c-1.8-1.1-3.5-2.4-5.1-3.8l2-2.3
		c1.5,1.3,3,2.4,4.7,3.5L96.4,273.8z M223.8,273.7l-1.6-2.5c1.6-1,3.2-2.2,4.7-3.5l2,2.2C227.3,271.3,225.6,272.6,223.8,273.7z
		 M86.9,265.5c-1.3-1.6-2.5-3.4-3.6-5.2l2.6-1.5c1,1.7,2.1,3.3,3.3,4.8L86.9,265.5z M233.3,265.3l-2.3-1.9c1.2-1.5,2.3-3.1,3.3-4.8
		l2.6,1.5C235.8,261.9,234.6,263.7,233.3,265.3z M80.7,254.5c-0.7-2-1.3-4-1.6-6.1l3-0.5c0.3,1.9,0.8,3.8,1.5,5.6L80.7,254.5z
		 M239.4,254.3l-2.8-1c0.6-1.8,1.1-3.7,1.5-5.6l3,0.5C240.6,250.3,240.1,252.3,239.4,254.3z M81.5,242.1h-3l0-0.1
		c0-2.1,0.2-4.3,0.5-6.3l3,0.5c-0.3,1.9-0.5,3.9-0.5,5.8L81.5,242.1z M238.5,241.9c0-1.9-0.2-3.9-0.5-5.8l3-0.5
		c0.4,2.1,0.5,4.2,0.5,6.3L238.5,241.9z M83.4,230.5l-2.8-1c0.7-2,1.6-3.9,2.6-5.8l2.6,1.5C84.9,226.9,84.1,228.7,83.4,230.5z
		 M236.5,230.4c-0.6-1.8-1.5-3.6-2.4-5.3l2.6-1.5c1,1.8,1.9,3.8,2.6,5.8L236.5,230.4z M89.1,220.4l-2.3-1.9c1.3-1.6,2.8-3.2,4.4-4.6
		l2,2.2C91.7,217.4,90.3,218.8,89.1,220.4z M230.8,220.3c-1.2-1.5-2.6-2.9-4-4.2l2-2.3c1.6,1.4,3.1,2.9,4.4,4.6L230.8,220.3z
		 M97.8,212.7l-1.6-2.6c1.8-1.1,3.7-2.1,5.6-2.9l1.1,2.8C101.2,210.8,99.5,211.6,97.8,212.7z M222.1,212.6c-1.7-1-3.4-1.9-5.2-2.6
		l1.1-2.8c2,0.8,3.9,1.7,5.7,2.9L222.1,212.6z M108.6,208.3l-0.6-2.9c2.1-0.4,4.2-0.7,6.3-0.8l0.1,3
		C112.4,207.7,110.5,207.9,108.6,208.3z M211.3,208.3c-1.9-0.4-3.8-0.7-5.8-0.7l0.1-3c2.1,0.1,4.2,0.4,6.3,0.8L211.3,208.3z
		 M199.5,207.5h-6.1v-3h6.1V207.5z M187.4,207.5h-6.1v-3h6.1V207.5z M175.2,207.5h-6.1v-3h6.1V207.5z M163,207.5h-6.1v-3h6.1V207.5z
		 M150.8,207.5h-6.1v-3h6.1V207.5z M138.6,207.5h-6.1v-3h6.1V207.5z M126.5,207.5h-6.1v-3h6.1V207.5z"/>
</g>
<g>
	<g>
		<path class="st2" d="M139.1,83.2h-4.7v-9.8h4.6c2,0,3.2,1,3.2,2.5v0c0,1.1-0.6,1.7-1.3,2.1c1.1,0.4,1.8,1.1,1.8,2.4v0
			C142.8,82.3,141.3,83.2,139.1,83.2z M140.1,76.3c0-0.6-0.5-1-1.4-1h-2.1v2.1h2C139.5,77.4,140.1,77.1,140.1,76.3L140.1,76.3z
			 M140.6,80.2c0-0.7-0.5-1.1-1.6-1.1h-2.5v2.2h2.6C140.1,81.3,140.6,81,140.6,80.2L140.6,80.2z"/>
		<path class="st2" d="M148.7,83.2v-0.8c-0.5,0.6-1.2,1-2.3,1c-1.4,0-2.6-0.8-2.6-2.3v0c0-1.6,1.2-2.4,3-2.4c0.8,0,1.3,0.1,1.8,0.3
			v-0.1c0-0.9-0.5-1.4-1.6-1.4c-0.8,0-1.4,0.2-2.1,0.4l-0.5-1.6c0.8-0.4,1.6-0.6,2.9-0.6c2.3,0,3.3,1.2,3.3,3.2v4.4H148.7z
			 M148.8,80.2c-0.4-0.2-0.8-0.3-1.4-0.3c-0.9,0-1.5,0.4-1.5,1v0c0,0.6,0.5,0.9,1.2,0.9c1,0,1.7-0.5,1.7-1.3V80.2z"/>
		<path class="st2" d="M155.2,83.4c-1.1,0-2.2-0.4-3.2-1.1l0.9-1.4c0.8,0.6,1.7,0.9,2.4,0.9c0.6,0,0.9-0.2,0.9-0.6v0
			c0-0.5-0.7-0.6-1.6-0.9c-1.1-0.3-2.2-0.8-2.2-2.3v0c0-1.5,1.2-2.4,2.7-2.4c1,0,2,0.3,2.8,0.9l-0.8,1.5c-0.7-0.4-1.5-0.7-2-0.7
			c-0.5,0-0.8,0.2-0.8,0.5v0c0,0.4,0.7,0.6,1.5,0.9c1,0.4,2.3,0.9,2.3,2.2v0C158.1,82.6,156.9,83.4,155.2,83.4z"/>
		<path class="st2" d="M162.2,83.3c-1.3,0-2.2-0.5-2.2-2.3v-3.6h-0.9v-1.8h0.9v-1.9h2.1v1.9h1.8v1.8h-1.8v3.2c0,0.5,0.2,0.7,0.7,0.7
			c0.4,0,0.7-0.1,1.1-0.3v1.7C163.4,83.2,162.9,83.3,162.2,83.3z"/>
		<path class="st2" d="M165.5,74.9V73h2.2v1.9H165.5z M165.5,83.2v-7.5h2.1v7.5H165.5z"/>
		<path class="st2" d="M173.4,83.4c-2.3,0-4-1.7-4-3.9v0c0-2.2,1.7-3.9,4.1-3.9c2.3,0,4,1.7,4,3.9v0
			C177.4,81.6,175.7,83.4,173.4,83.4z M175.3,79.5c0-1.1-0.8-2.1-2-2.1c-1.2,0-1.9,0.9-1.9,2v0c0,1.1,0.8,2.1,2,2.1
			C174.6,81.6,175.3,80.6,175.3,79.5L175.3,79.5z"/>
		<path class="st2" d="M183.7,83.2V79c0-1-0.5-1.5-1.3-1.5s-1.3,0.5-1.3,1.5v4.2H179v-7.5h2.1v1.1c0.5-0.6,1.1-1.2,2.2-1.2
			c1.6,0,2.5,1.1,2.5,2.8v4.9H183.7z"/>
		<path class="st2" d="M131.3,100v-9.8h2.2v9.8H131.3z"/>
		<path class="st2" d="M140.5,100v-4.2c0-1-0.5-1.5-1.3-1.5s-1.3,0.5-1.3,1.5v4.2h-2.1v-7.5h2.1v1.1c0.5-0.6,1.1-1.2,2.2-1.2
			c1.6,0,2.5,1.1,2.5,2.8v4.9H140.5z"/>
		<path class="st2" d="M147.1,100.2c-1.1,0-2.2-0.4-3.2-1.1l0.9-1.4c0.8,0.6,1.7,0.9,2.4,0.9c0.6,0,0.9-0.2,0.9-0.6v0
			c0-0.5-0.7-0.6-1.6-0.9c-1.1-0.3-2.2-0.8-2.2-2.3v0c0-1.5,1.2-2.4,2.7-2.4c1,0,2,0.3,2.8,0.9l-0.8,1.5c-0.7-0.4-1.5-0.7-2-0.7
			c-0.5,0-0.8,0.2-0.8,0.5v0c0,0.4,0.7,0.6,1.5,0.9c1,0.4,2.3,0.9,2.3,2.2v0C150,99.4,148.7,100.2,147.1,100.2z"/>
		<path class="st2" d="M154,100.1c-1.3,0-2.2-0.5-2.2-2.3v-3.6h-0.9v-1.8h0.9v-1.9h2.1v1.9h1.8v1.8H154v3.2c0,0.5,0.2,0.7,0.7,0.7
			c0.4,0,0.7-0.1,1.1-0.3v1.7C155.2,100,154.7,100.1,154,100.1z"/>
		<path class="st2" d="M161.7,100v-0.8c-0.5,0.6-1.2,1-2.3,1c-1.4,0-2.6-0.8-2.6-2.3v0c0-1.6,1.2-2.4,3-2.4c0.8,0,1.3,0.1,1.8,0.3
			v-0.1c0-0.9-0.5-1.4-1.6-1.4c-0.8,0-1.4,0.2-2.1,0.4l-0.5-1.6c0.8-0.4,1.6-0.6,2.9-0.6c2.3,0,3.3,1.2,3.3,3.2v4.4H161.7z
			 M161.7,97c-0.4-0.2-0.8-0.3-1.4-0.3c-0.9,0-1.5,0.4-1.5,1v0c0,0.6,0.5,0.9,1.2,0.9c1,0,1.7-0.5,1.7-1.3V97z"/>
		<path class="st2" d="M170.3,100v-4.2c0-1-0.5-1.5-1.3-1.5s-1.3,0.5-1.3,1.5v4.2h-2.1v-7.5h2.1v1.1c0.5-0.6,1.1-1.2,2.2-1.2
			c1.6,0,2.5,1.1,2.5,2.8v4.9H170.3z"/>
		<path class="st2" d="M177.8,100.2c-2.3,0-3.9-1.7-3.9-3.9v0c0-2.1,1.6-3.9,3.9-3.9c1.4,0,2.3,0.5,3,1.3l-1.3,1.4
			c-0.5-0.5-1-0.8-1.7-0.8c-1.1,0-1.8,0.9-1.8,2v0c0,1.1,0.7,2.1,1.9,2.1c0.7,0,1.2-0.3,1.7-0.8l1.2,1.3
			C180.2,99.6,179.3,100.2,177.8,100.2z"/>
		<path class="st2" d="M189.3,97H184c0.2,1,0.9,1.5,1.8,1.5c0.7,0,1.2-0.2,1.8-0.8l1.2,1.1c-0.7,0.9-1.7,1.4-3.1,1.4
			c-2.3,0-3.9-1.6-3.9-3.9v0c0-2.1,1.5-3.9,3.7-3.9c2.5,0,3.7,1.9,3.7,4.1v0C189.3,96.7,189.3,96.8,189.3,97z M185.6,94.1
			c-0.9,0-1.5,0.6-1.6,1.6h3.2C187.1,94.7,186.5,94.1,185.6,94.1z"/>
	</g>
</g>
<g>
	<path class="st3" d="M127.8,268.3v-9.8h2.2v9.8H127.8z"/>
	<path class="st3" d="M137,268.3v-4.2c0-1-0.5-1.5-1.3-1.5c-0.8,0-1.3,0.5-1.3,1.5v4.2h-2.1v-7.5h2.1v1.1c0.5-0.6,1.1-1.2,2.2-1.2
		c1.6,0,2.5,1.1,2.5,2.8v4.9H137z"/>
	<path class="st3" d="M143.6,268.4c-1.1,0-2.2-0.3-3.2-1.1l0.9-1.4c0.8,0.6,1.7,0.9,2.4,0.9c0.6,0,0.9-0.2,0.9-0.6v0
		c0-0.5-0.7-0.6-1.6-0.9c-1.1-0.3-2.2-0.8-2.2-2.3v0c0-1.5,1.2-2.4,2.7-2.4c1,0,2,0.3,2.8,0.9l-0.8,1.5c-0.7-0.4-1.5-0.7-2-0.7
		c-0.5,0-0.8,0.2-0.8,0.5v0c0,0.4,0.7,0.6,1.5,0.9c1.1,0.4,2.3,0.9,2.3,2.2v0C146.4,267.6,145.2,268.4,143.6,268.4z"/>
	<path class="st3" d="M150.5,268.4c-1.3,0-2.2-0.5-2.2-2.3v-3.6h-0.9v-1.8h0.9v-1.9h2.1v1.9h1.8v1.8h-1.8v3.2c0,0.5,0.2,0.7,0.7,0.7
		c0.4,0,0.7-0.1,1-0.3v1.7C151.7,268.2,151.2,268.4,150.5,268.4z"/>
	<path class="st3" d="M158.2,268.3v-0.8c-0.5,0.6-1.2,1-2.3,1c-1.4,0-2.6-0.8-2.6-2.3v0c0-1.6,1.2-2.4,3-2.4c0.8,0,1.3,0.1,1.8,0.3
		v-0.1c0-0.9-0.5-1.4-1.6-1.4c-0.8,0-1.4,0.2-2.1,0.4l-0.5-1.6c0.8-0.4,1.6-0.6,2.9-0.6c2.3,0,3.3,1.2,3.3,3.2v4.4H158.2z
		 M158.2,265.2c-0.4-0.2-0.8-0.3-1.4-0.3c-0.9,0-1.5,0.4-1.5,1v0c0,0.6,0.5,0.9,1.2,0.9c1,0,1.7-0.5,1.7-1.3V265.2z"/>
	<path class="st3" d="M166.8,268.3v-4.2c0-1-0.5-1.5-1.3-1.5s-1.3,0.5-1.3,1.5v4.2h-2.1v-7.5h2.1v1.1c0.5-0.6,1.1-1.2,2.2-1.2
		c1.6,0,2.5,1.1,2.5,2.8v4.9H166.8z"/>
	<path class="st3" d="M174.3,268.4c-2.3,0-3.9-1.7-3.9-3.9v0c0-2.1,1.6-3.9,3.9-3.9c1.4,0,2.3,0.5,3,1.3l-1.3,1.4
		c-0.5-0.5-1-0.8-1.7-0.8c-1.1,0-1.8,0.9-1.8,2v0c0,1.1,0.7,2.1,1.9,2.1c0.7,0,1.2-0.3,1.7-0.8l1.2,1.3
		C176.7,267.9,175.8,268.4,174.3,268.4z"/>
	<path class="st3" d="M185.8,265.2h-5.2c0.2,1,0.9,1.5,1.8,1.5c0.7,0,1.2-0.2,1.8-0.8l1.2,1.1c-0.7,0.9-1.7,1.4-3.1,1.4
		c-2.3,0-3.9-1.6-3.9-3.9v0c0-2.1,1.5-3.9,3.7-3.9c2.5,0,3.7,1.9,3.7,4.1v0C185.8,264.9,185.8,265.1,185.8,265.2z M182.1,262.3
		c-0.9,0-1.5,0.6-1.6,1.6h3.2C183.6,263,183,262.3,182.1,262.3z"/>
	<path class="st3" d="M190,268.4c-1.1,0-2.2-0.3-3.2-1.1l0.9-1.4c0.8,0.6,1.7,0.9,2.4,0.9c0.6,0,0.9-0.2,0.9-0.6v0
		c0-0.5-0.7-0.6-1.6-0.9c-1.1-0.3-2.2-0.8-2.2-2.3v0c0-1.5,1.2-2.4,2.7-2.4c1,0,2,0.3,2.8,0.9l-0.8,1.5c-0.7-0.4-1.5-0.7-2-0.7
		c-0.5,0-0.8,0.2-0.8,0.5v0c0,0.4,0.7,0.6,1.5,0.9c1.1,0.4,2.3,0.9,2.3,2.2v0C192.9,267.6,191.6,268.4,190,268.4z"/>
</g>
<g>
	<g>
		<path class="st1" d="M139.5,296.7c-1.6,0-2.8-0.5-3.9-1.6l0.5-0.5c1.1,1,2.1,1.5,3.5,1.5c1.5,0,2.5-0.8,2.5-1.9v0
			c0-1-0.5-1.6-2.8-2.1c-2.4-0.5-3.3-1.3-3.3-2.8v0c0-1.5,1.3-2.6,3.2-2.6c1.4,0,2.4,0.4,3.4,1.2l-0.5,0.6c-0.9-0.8-1.8-1.1-2.9-1.1
			c-1.4,0-2.4,0.8-2.4,1.8v0c0,1,0.5,1.7,2.9,2.1c2.3,0.5,3.2,1.3,3.2,2.7v0C142.8,295.6,141.4,296.7,139.5,296.7z"/>
		<path class="st1" d="M148,296.1c1.1,0,1.9-0.5,2.5-1.1l0.5,0.4c-0.7,0.8-1.6,1.3-3,1.3c-1.9,0-3.5-1.5-3.5-3.7v0
			c0-2.1,1.5-3.7,3.4-3.7c2,0,3.3,1.6,3.3,3.7v0c0,0.1,0,0.1,0,0.3h-5.9C145.4,295.1,146.6,296.1,148,296.1z M150.4,292.7
			c-0.1-1.4-0.9-2.8-2.6-2.8c-1.4,0-2.5,1.2-2.6,2.8H150.4z"/>
		<path class="st1" d="M157,290.1c-1.7,0-3.1,1.2-3.1,3.6v2.9h-0.7v-7.1h0.7v2c0.6-1.3,1.8-2.2,3.2-2.1L157,290.1L157,290.1z"/>
		<path class="st1" d="M161.8,296.7h-0.6l-3.2-7.2h0.8l2.7,6.4l2.7-6.4h0.8L161.8,296.7z"/>
		<path class="st1" d="M166.9,287.6v-0.9h0.9v0.9H166.9z M167,296.6v-7.1h0.7v7.1H167z"/>
		<path class="st1" d="M173.6,296.8c-2.1,0-3.6-1.7-3.6-3.7v0c0-2,1.6-3.7,3.6-3.7c1.3,0,2.2,0.6,2.9,1.3l-0.5,0.5
			c-0.6-0.6-1.3-1.2-2.4-1.2c-1.6,0-2.9,1.4-2.9,3.1v0c0,1.7,1.3,3.1,2.9,3.1c1,0,1.8-0.5,2.4-1.2l0.5,0.4
			C175.7,296.2,174.9,296.8,173.6,296.8z"/>
		<path class="st1" d="M181.4,296.1c1.1,0,1.9-0.5,2.5-1.1l0.5,0.4c-0.7,0.8-1.6,1.3-3,1.3c-1.9,0-3.5-1.5-3.5-3.7v0
			c0-2.1,1.5-3.7,3.4-3.7c2,0,3.3,1.6,3.3,3.7v0c0,0.1,0,0.1,0,0.3h-5.9C178.8,295.1,180,296.1,181.4,296.1z M183.8,292.7
			c-0.1-1.4-0.9-2.8-2.6-2.8c-1.4,0-2.5,1.2-2.6,2.8H183.8z"/>
	</g>
</g>
<circle class="st4" cx="160" cy="45" r="18"/>
<g>
	<path class="st3" d="M188.3,151.8v-3.9h-4v3.9h-2.2V142h2.2v3.9h4V142h2.2v9.8H188.3z"/>
	<path class="st3" d="M199.6,148.8h-5.2c0.2,1,0.9,1.5,1.8,1.5c0.7,0,1.2-0.2,1.8-0.8l1.2,1.1c-0.7,0.9-1.7,1.4-3.1,1.4
		c-2.3,0-3.9-1.6-3.9-3.9v0c0-2.1,1.5-3.9,3.7-3.9c2.5,0,3.7,1.9,3.7,4.1v0C199.6,148.5,199.6,148.6,199.6,148.8z M195.9,145.9
		c-0.9,0-1.5,0.6-1.6,1.6h3.2C197.4,146.5,196.8,145.9,195.9,145.9z"/>
	<path class="st3" d="M205.6,151.8V151c-0.5,0.6-1.2,1-2.3,1c-1.4,0-2.6-0.8-2.6-2.3v0c0-1.6,1.2-2.4,3-2.4c0.8,0,1.3,0.1,1.8,0.3
		v-0.1c0-0.9-0.5-1.4-1.6-1.4c-0.8,0-1.4,0.2-2.1,0.4l-0.5-1.6c0.8-0.4,1.6-0.6,2.9-0.6c2.3,0,3.3,1.2,3.3,3.2v4.4H205.6z
		 M205.6,148.8c-0.4-0.2-0.8-0.3-1.4-0.3c-0.9,0-1.5,0.4-1.5,1v0c0,0.6,0.5,0.9,1.2,0.9c1,0,1.7-0.5,1.7-1.3V148.8z"/>
	<path class="st3" d="M209.6,151.8v-10.2h2.1v10.2H209.6z"/>
	<path class="st3" d="M216.2,152c-1.3,0-2.2-0.5-2.2-2.3v-3.6h-0.9v-1.8h0.9v-1.9h2.1v1.9h1.8v1.8h-1.8v3.2c0,0.5,0.2,0.7,0.7,0.7
		c0.4,0,0.7-0.1,1.1-0.3v1.7C217.5,151.8,216.9,152,216.2,152z"/>
	<path class="st3" d="M224.2,151.8v-4.2c0-1-0.5-1.5-1.3-1.5s-1.3,0.5-1.3,1.5v4.2h-2.1v-10.2h2.1v3.8c0.5-0.6,1.1-1.2,2.2-1.2
		c1.6,0,2.5,1.1,2.5,2.8v4.9H224.2z"/>
	<path class="st3" d="M237.2,152c-2.9,0-5-2.2-5-5v0c0-2.8,2.1-5.1,5.1-5.1c1.8,0,3,0.6,3.9,1.5l-1.4,1.6c-0.8-0.7-1.5-1.1-2.5-1.1
		c-1.7,0-2.8,1.4-2.8,3.1v0c0,1.7,1.2,3.1,2.8,3.1c1.1,0,1.8-0.4,2.6-1.1l1.4,1.4C240.3,151.3,239.1,152,237.2,152z"/>
	<path class="st3" d="M247.5,151.8v-4.2c0-1-0.5-1.5-1.3-1.5s-1.3,0.5-1.3,1.5v4.2h-2.1v-10.2h2.1v3.8c0.5-0.6,1.1-1.2,2.2-1.2
		c1.6,0,2.5,1.1,2.5,2.8v4.9H247.5z"/>
	<path class="st3" d="M258.5,148.8h-5.2c0.2,1,0.9,1.5,1.8,1.5c0.7,0,1.2-0.2,1.8-0.8l1.2,1.1c-0.7,0.9-1.7,1.4-3.1,1.4
		c-2.3,0-3.9-1.6-3.9-3.9v0c0-2.1,1.5-3.9,3.7-3.9c2.5,0,3.7,1.9,3.7,4.1v0C258.5,148.5,258.5,148.6,258.5,148.8z M254.8,145.9
		c-0.9,0-1.5,0.6-1.6,1.6h3.2C256.3,146.5,255.7,145.9,254.8,145.9z"/>
	<path class="st3" d="M263.6,152c-2.3,0-3.9-1.7-3.9-3.9v0c0-2.1,1.6-3.9,3.9-3.9c1.4,0,2.3,0.5,3,1.3l-1.3,1.4
		c-0.5-0.5-1-0.8-1.7-0.8c-1.1,0-1.8,0.9-1.8,2v0c0,1.1,0.7,2.1,1.9,2.1c0.7,0,1.2-0.3,1.7-0.8l1.2,1.3
		C265.9,151.4,265.1,152,263.6,152z"/>
	<path class="st3" d="M272.9,151.8l-2-3.1l-0.7,0.8v2.3h-2.1v-10.2h2.1v5.4l2.5-2.7h2.5l-2.9,3l3,4.6H272.9z"/>
</g>
<path class="st0" d="M161,178.6v-18.2c7-0.5,12.5-6.3,12.5-13.4S168,134,161,133.5V122h-3v11.6c-6.5,1-11.5,6.6-11.5,13.3
	s5,12.4,11.5,13.3v17.2l-8.1-8.7l-2.2,2L160,184l12.3-13.2l-2.2-2L161,178.6z M170.5,146.9c0,5.8-4.7,10.5-10.5,10.5v-4.9l-1.1,1.1
	c-0.4,0.4-0.9,0.6-1.4,0.6s-1-0.2-1.4-0.6l-4.4-4.4c-0.4-0.4-0.6-0.9-0.6-1.4s0.2-1,0.6-1.4l1.1-1.1c0.4-0.4,0.9-0.6,1.4-0.6
	c0.5,0,1,0.2,1.4,0.6l1.9,1.9l2.5-2.5v-8.2C165.8,136.4,170.5,141.2,170.5,146.9z"/>
<path class="st3" d="M157.4,150l-3.3-3.3l-1.1,1.1l4.4,4.4l9.6-9.6l-1.1-1.1L157.4,150z"/>
</svg>
