
<svg width="500px" height="294px" viewBox="125 480 500 294" version="1.1" xmlns="http://www.w3.org/2000/svg" xmlns:xlink="http://www.w3.org/1999/xlink">
    <!-- Generator: Sketch 3.7.1 (28215) - http://www.bohemiancoding.com/sketch -->
    <desc>Created with Sketch.</desc>
    <defs>
        <polygon id="path-1" points="0 293.833333 499.587459 293.833333 499.587459 0 0 0"></polygon>
    </defs>
    <g id="Page-1" stroke="none" stroke-width="1" fill="none" fill-rule="evenodd" transform="translate(125.000000, 480.000000)">
        <path d="M113.932343,2.92640264 L113.858086,0.0402640264 C114.889439,0.0122112211 115.990099,-0.00099009901 116.957096,0.000660066007 C117.869637,0.000660066007 118.780528,0.0105610561 119.689769,0.0320132013 L119.622112,2.91815182 C118.707921,2.89669967 117.770627,2.87029703 116.871287,2.88844884 C115.889439,2.88844884 114.909241,2.90165017 113.932343,2.92640264 L113.932343,2.92640264 Z M130.960396,3.73993399 C129.094059,3.51056106 127.189769,3.32574257 125.30198,3.18877888 L125.511551,0.309240924 C127.445545,0.44950495 129.39769,0.637623762 131.311881,0.871947195 L130.960396,3.73993399 L130.960396,3.73993399 Z M102.59736,3.78283828 L102.235974,0.918151815 C104.145215,0.678877888 106.09736,0.482508251 108.036304,0.335643564 L108.255776,3.21518152 C106.363036,3.35874587 104.460396,3.54851485 102.59736,3.78283828 L102.59736,3.78283828 Z M142.158416,5.68217822 C140.330033,5.2679868 138.453795,4.89339934 136.587459,4.569967 L137.079208,1.72343234 C138.99505,2.05676568 140.919142,2.44125413 142.79703,2.86534653 L142.158416,5.68217822 L142.158416,5.68217822 Z M91.4026403,5.75973597 L90.7574257,2.94455446 C92.6386139,2.51551155 94.5610561,2.12607261 96.4719472,1.78778878 L96.9752475,4.63267327 C95.1105611,4.96105611 93.2359736,5.34059406 91.4026403,5.75973597 L91.4026403,5.75973597 Z M153.108911,8.73663366 C151.318482,8.13762376 149.490099,7.57821782 147.673267,7.07161716 L148.450495,4.28943894 C150.313531,4.80924092 152.189769,5.38349835 154.024752,5.99570957 L153.108911,8.73663366 L153.108911,8.73663366 Z M80.4636964,8.84884488 L79.5379538,6.11287129 C81.369637,5.49405941 83.2409241,4.91485149 85.1089109,4.38679868 L85.8927393,7.16732673 C84.0726073,7.68052805 82.2458746,8.24653465 80.4636964,8.84884488 L80.4636964,8.84884488 Z M163.719472,12.8834983 C161.990099,12.1046205 160.224422,11.3636964 158.468647,10.6772277 L159.519802,7.98745875 C161.320132,8.69042904 163.130363,9.45280528 164.905941,10.249835 L163.719472,12.8834983 L163.719472,12.8834983 Z M69.8993399,13.0155116 L68.7079208,10.3851485 C70.4669967,9.58646865 72.2706271,8.82244224 74.0660066,8.11617162 L75.1221122,10.8026403 C73.3745875,11.4924092 71.6155116,12.2366337 69.8993399,13.0155116 L69.8993399,13.0155116 Z M173.854785,18.069967 C172.221122,17.1277228 170.539604,16.2118812 168.854785,15.3488449 L170.169967,12.779538 C171.89769,13.6640264 173.623762,14.6013201 175.29868,15.5683168 L173.854785,18.069967 L173.854785,18.069967 Z M59.8085809,18.2135314 L58.3580858,15.7151815 C60.0181518,14.7531353 61.7359736,13.8125413 63.4636964,12.9214521 L64.7887789,15.4874587 C63.1006601,16.3570957 61.4273927,17.2745875 59.8085809,18.2135314 L59.8085809,18.2135314 Z M183.414191,24.239934 C181.889439,23.1409241 180.306931,22.0633663 178.712871,21.0369637 L180.278878,18.609571 C181.912541,19.6640264 183.534653,20.769637 185.10066,21.8950495 L183.414191,24.239934 L183.414191,24.239934 Z M50.2788779,24.3933993 L48.5891089,22.0518152 C50.1617162,20.9165017 51.7788779,19.8092409 53.3960396,18.7613861 L54.9669967,21.1838284 C53.3910891,22.2069307 51.8118812,23.2844884 50.2788779,24.3933993 L50.2788779,24.3933993 Z M192.316832,31.3240924 C190.905941,30.0815182 189.440594,28.8521452 187.957096,27.6722772 L189.755776,25.4132013 C191.275578,26.6227723 192.780528,27.8834983 194.227723,29.1590759 L192.316832,31.3240924 L192.316832,31.3240924 Z M41.4042904,31.4940594 L39.4933993,29.3290429 C40.9488449,28.040264 42.450495,26.7778878 43.950495,25.5782178 L45.7557756,27.8323432 C44.290429,29.0039604 42.8267327,30.2349835 41.4042904,31.4940594 L41.4042904,31.4940594 Z M200.466997,39.2547855 C199.188119,37.8785479 197.849835,36.5105611 196.491749,35.190429 L198.506601,33.1194719 C199.89934,34.4742574 201.270627,35.8768977 202.582508,37.2877888 L200.466997,39.2547855 L200.466997,39.2547855 Z M33.2722772,39.4379538 L31.1551155,37.4759076 C32.4785479,36.0468647 33.8481848,34.6425743 35.2244224,33.2976898 L37.2409241,35.3636964 C35.8993399,36.6755776 34.5627063,38.0452145 33.2722772,39.4379538 L33.2722772,39.4379538 Z M207.787129,47.9478548 C206.641914,46.4412541 205.445545,44.9478548 204.235974,43.5122112 L206.443894,41.6508251 C207.684818,43.1227723 208.910891,44.6541254 210.085809,46.1986799 L207.787129,47.9478548 L207.787129,47.9478548 Z M25.9636964,48.1541254 L23.6633663,46.409901 C24.8283828,44.870297 26.0511551,43.3356436 27.2970297,41.8488449 L29.5115512,43.7036304 C28.2953795,45.1541254 27.1023102,46.6524752 25.9636964,48.1541254 L25.9636964,48.1541254 Z M214.211221,57.3174917 C213.219472,55.7069307 212.178218,54.1046205 211.117162,52.5534653 L213.49835,50.9214521 C214.587459,52.5105611 215.655116,54.1541254 216.669967,55.8059406 L214.211221,57.3174917 L214.211221,57.3174917 Z M19.5561056,57.5551155 L17.0891089,56.050165 C18.0957096,54.4033003 19.160066,52.7531353 20.2557756,51.1475248 L22.6419142,52.7745875 C21.5742574,54.3405941 20.5346535,55.949505 19.5561056,57.5551155 L19.5561056,57.5551155 Z M219.666667,67.2745875 C218.836634,65.5633663 217.960396,63.8669967 217.062706,62.230033 L219.59571,60.8422442 C220.516502,62.520462 221.414191,64.259736 222.264026,66.0138614 L219.666667,67.2745875 L219.666667,67.2745875 Z M14.1122112,67.5534653 L11.5115512,66.3009901 C12.3547855,64.5435644 13.2508251,62.7960396 14.1732673,61.1046205 L16.709571,62.4874587 C15.810231,64.1359736 14.9372937,65.8389439 14.1122112,67.5534653 L14.1122112,67.5534653 Z M224.094059,77.7151815 C223.448845,75.9577558 222.749175,74.1821782 222.009901,72.4412541 L224.668317,71.3125413 C225.425743,73.09967 226.145215,74.919802 226.80363,76.7234323 L224.094059,77.7151815 L224.094059,77.7151815 Z M9.69306931,78.050165 L6.98019802,77.0666667 C7.64191419,75.2366337 8.35808581,73.4066007 9.10891089,71.6260726 L11.7706271,72.7465347 C11.0379538,74.4825083 10.3415842,76.2663366 9.69306931,78.050165 L9.69306931,78.050165 Z M227.465347,88.5732673 C227,86.7547855 226.478548,84.9148515 225.915842,83.1029703 L228.674917,82.2481848 C229.250825,84.1046205 229.785479,85.9907591 230.262376,87.8570957 L227.465347,88.5732673 L227.465347,88.5732673 Z M6.35643564,88.9313531 L3.55445545,88.2234323 C4.02970297,86.3471947 4.55775578,84.4594059 5.12376238,82.609571 L7.88613861,83.4561056 C7.33168317,85.259736 6.81848185,87.1029703 6.35643564,88.9313531 L6.35643564,88.9313531 Z M229.729373,99.7135314 C229.443894,97.8389439 229.110561,95.9544554 228.735974,94.1145215 L231.566007,93.540264 C231.950495,95.4264026 232.292079,97.3570957 232.584158,99.279538 L229.729373,99.7135314 L229.729373,99.7135314 Z M4.12541254,100.079868 L1.27062706,99.6574257 C1.55280528,97.7349835 1.89108911,95.8009901 2.26732673,93.9115512 L5.10066007,94.4792079 C4.7310231,96.3207921 4.40264026,98.2052805 4.12541254,100.079868 L4.12541254,100.079868 Z M230.869637,111.022112 C230.777228,109.160726 230.632013,107.253135 230.440594,105.353795 L233.313531,105.063366 C233.509901,107.012211 233.658416,108.967657 233.754125,110.876898 L230.869637,111.022112 L230.869637,111.022112 Z M3.01980198,111.391749 L0.135313531,111.254785 C0.227722772,109.333993 0.369636964,107.378548 0.557755776,105.441254 L3.43234323,105.721782 C3.24752475,107.611221 3.10891089,109.520462 3.01980198,111.391749 L3.01980198,111.391749 Z M233.768977,122.782838 L230.884488,122.640924 C230.976898,120.766337 231.023102,118.852145 231.023102,116.956106 L231.023102,116.706931 L233.910891,116.706931 L233.910891,116.956106 C233.910891,118.9 233.863036,120.860396 233.768977,122.782838 L233.768977,122.782838 Z M0.148514851,122.908251 C0.0511551155,120.966007 0.00165016502,119.005611 0,117.081518 L2.88778878,117.079868 C2.88943894,118.954455 2.93729373,120.868647 3.0330033,122.766337 L0.148514851,122.908251 L0.148514851,122.908251 Z M232.623762,134.380198 L229.767327,133.956106 C230.046205,132.074917 230.282178,130.175578 230.465347,128.310891 L233.339934,128.59637 C233.150165,130.505611 232.910891,132.452805 232.623762,134.380198 L232.623762,134.380198 Z M1.30858086,134.505611 C1.02145215,132.591419 0.778877888,130.645875 0.585808581,128.721782 L3.46039604,128.434653 C3.64686469,130.310891 3.88448845,132.210231 4.16336634,134.078218 L1.30858086,134.505611 L1.30858086,134.505611 Z M230.323432,145.807591 L227.526403,145.09802 C227.986799,143.276238 228.410891,141.411551 228.787129,139.553465 L231.615512,140.124422 C231.232673,142.027063 230.79868,143.941254 230.323432,145.807591 L230.323432,145.807591 Z M3.61881188,145.931353 C3.14686469,144.078218 2.71122112,142.165677 2.32013201,140.249835 L5.15016502,139.675578 C5.53135314,141.545215 5.95544554,143.409901 6.41749175,145.218482 L3.61881188,145.931353 L3.61881188,145.931353 Z M226.889439,156.964356 L224.176568,155.974257 C224.821782,154.20363 225.430693,152.386799 225.990099,150.573267 L228.749175,151.421452 C228.176568,153.282838 227.552805,155.147525 226.889439,156.964356 L226.889439,156.964356 Z M7.05940594,157.068317 C6.38943894,155.230033 5.7640264,153.370297 5.19966997,151.543564 L7.95874587,150.692079 C8.50825083,152.472607 9.11881188,154.286139 9.77392739,156.079868 L7.05940594,157.068317 L7.05940594,157.068317 Z M222.346535,167.723432 L219.745875,166.469307 C220.570957,164.756436 221.361386,163.010561 222.092409,161.277888 L224.750825,162.40165 C224.00165,164.177228 223.193069,165.967657 222.346535,167.723432 L222.346535,167.723432 Z M11.5907591,167.782838 C10.7458746,166.032013 9.93729373,164.248185 9.19141914,162.482508 L11.8514851,161.357096 C12.5792079,163.079868 13.3679868,164.819142 14.1930693,166.527063 L11.5907591,167.782838 L11.5907591,167.782838 Z M216.754125,177.967657 L214.290429,176.459406 C215.282178,174.842244 216.240924,173.183828 217.143564,171.532013 L219.676568,172.916502 C218.752475,174.609571 217.770627,176.309241 216.754125,177.967657 L216.754125,177.967657 Z M17.1732673,177.99736 C16.1567657,176.338944 15.1749175,174.642574 14.2557756,172.959406 L16.7887789,171.574917 C17.6864686,173.216832 18.6435644,174.870297 19.6353135,176.487459 L17.1732673,177.99736 L17.1732673,177.99736 Z M210.173267,187.60132 L207.872937,185.855446 C209.013201,184.352145 210.132013,182.79934 211.19802,181.238284 L213.584158,182.866997 C212.490099,184.467657 211.341584,186.060066 210.173267,187.60132 L210.173267,187.60132 Z M23.7458746,187.611221 C22.5841584,186.079868 21.4372937,184.490759 20.339934,182.886799 L22.7227723,181.254785 C23.7937294,182.820792 24.9125413,184.371947 26.0462046,185.865347 L23.7458746,187.611221 L23.7458746,187.611221 Z M202.666667,196.528713 L200.552805,194.561716 C201.834983,193.182178 203.10231,191.748185 204.318482,190.29934 L206.529703,192.157426 C205.282178,193.642574 203.981848,195.112871 202.666667,196.528713 L202.666667,196.528713 Z M31.2425743,196.530363 C29.9273927,195.112871 28.6287129,193.644224 27.3828383,192.165677 L29.5940594,190.305941 C30.8069307,191.749835 32.0759076,193.182178 33.359736,194.566667 L31.2425743,196.530363 L31.2425743,196.530363 Z M194.325083,204.665677 L192.414191,202.49901 C193.820132,201.259736 195.222772,199.957756 196.582508,198.632673 L198.59736,200.70033 C197.20297,202.060066 195.765677,203.393399 194.325083,204.665677 L194.325083,204.665677 Z M39.5891089,204.668977 C38.130363,203.381848 36.6914191,202.046865 35.3135314,200.70363 L37.3316832,198.635974 C38.6765677,199.946205 40.0775578,201.248185 41.5,202.50396 L39.5891089,204.668977 L39.5891089,204.668977 Z M185.216172,211.931353 L183.531353,209.588119 C185.061056,208.487459 186.584158,207.332343 188.059406,206.154125 L189.861386,208.411551 C188.348185,209.617822 186.785479,210.80264 185.216172,211.931353 L185.216172,211.931353 Z M48.7062706,211.942904 C47.1386139,210.814191 45.5759076,209.629373 44.0577558,208.419802 L45.859736,206.162376 C47.339934,207.342244 48.8646865,208.49901 50.3943894,209.59967 L48.7062706,211.942904 L48.7062706,211.942904 Z M175.440594,218.259736 L173.993399,215.759736 C175.625413,214.815842 177.254125,213.819142 178.838284,212.794389 L180.407591,215.218482 C178.783828,216.269637 177.112211,217.292739 175.440594,218.259736 L175.440594,218.259736 Z M58.5033003,218.279538 C56.8316832,217.314191 55.1567657,216.289439 53.5264026,215.234983 L55.0924092,212.809241 C56.6848185,213.838944 58.3184818,214.837294 59.9471947,215.779538 L58.5033003,218.279538 L58.5033003,218.279538 Z M165.090759,223.576568 L163.90099,220.946205 C165.615512,220.170627 167.334983,219.340594 169.013201,218.479208 L170.331683,221.048515 C168.612211,221.931353 166.848185,222.782838 165.090759,223.576568 L165.090759,223.576568 Z M68.8894389,223.609571 C67.1221122,222.810891 65.3514851,221.957756 63.630363,221.074917 L64.9471947,218.505611 C66.6270627,219.366997 68.3531353,220.19868 70.0792079,220.977558 L68.8894389,223.609571 L68.8894389,223.609571 Z M154.254125,227.837294 L153.334983,225.09967 C155.122112,224.49901 156.919142,223.843894 158.674917,223.154125 L159.732673,225.840594 C157.930693,226.550165 156.089109,227.221782 154.254125,227.837294 L154.254125,227.837294 Z M79.7656766,227.873597 C77.9323432,227.258086 76.0841584,226.588119 74.2739274,225.876898 L75.3267327,223.188779 C77.0940594,223.880198 78.8960396,224.535314 80.6848185,225.135974 L79.7656766,227.873597 L79.7656766,227.873597 Z M143.029703,230.992409 L142.391089,228.175578 C144.221122,227.761386 146.075908,227.289439 147.89934,226.776238 L148.683168,229.555116 C146.810231,230.083168 144.907591,230.565017 143.029703,230.992409 L143.029703,230.992409 Z M90.9917492,231.018812 C89.1039604,230.591419 87.2029703,230.109571 85.3382838,229.588119 L86.1188119,226.807591 C87.9356436,227.315842 89.7887789,227.786139 91.6287129,228.20198 L90.9917492,231.018812 L90.9917492,231.018812 Z M131.551155,233.010561 L131.193069,230.144224 C133.066007,229.911551 134.955446,229.627723 136.815182,229.30099 L137.315182,232.145875 C135.409241,232.479208 133.470297,232.771287 131.551155,233.010561 L131.551155,233.010561 Z M102.475248,233.022112 C100.547855,232.784488 98.6072607,232.49571 96.7079208,232.164026 L97.2046205,229.319142 C99.0561056,229.644224 100.948845,229.926403 102.828383,230.157426 L102.475248,233.022112 L102.475248,233.022112 Z M119.927393,233.873597 L119.856436,230.987459 C121.752475,230.939604 123.663366,230.845545 125.534653,230.705281 L125.750825,233.584818 C123.831683,233.728383 121.872937,233.825743 119.927393,233.873597 L119.927393,233.873597 Z M114.09901,233.876898 C112.158416,233.830693 110.19802,233.734983 108.275578,233.593069 L108.488449,230.713531 C110.364686,230.852145 112.273927,230.944554 114.166667,230.990759 L114.09901,233.876898 L114.09901,233.876898 Z" id="Fill-1" fill="#757575"></path>
        <path d="M57.0693069,251.063531 C53.3712871,251.063531 50.7359736,254.022277 50.7359736,257.720297 C50.7359736,261.418317 53.4158416,264.423267 57.1138614,264.423267 C60.8135314,264.423267 63.4488449,261.464521 63.4488449,257.766502 C63.4488449,254.068482 60.7673267,251.063531 57.0693069,251.063531 M57.0693069,266.111386 C52.1468647,266.111386 48.839934,262.25165 48.839934,257.766502 C48.839934,253.283003 52.1914191,249.375413 57.1138614,249.375413 C62.039604,249.375413 65.3448845,253.235149 65.3448845,257.720297 C65.3448845,262.203795 61.9917492,266.111386 57.0693069,266.111386" id="Fill-3" fill="#757575"></path>
        <path d="M74.9245875,255.223597 C72.7051155,255.223597 70.6028053,257.073432 70.6028053,259.84736 C70.6028053,262.644389 72.7051155,264.492574 74.9245875,264.492574 C77.2364686,264.492574 79.1325083,262.783003 79.1325083,259.868812 C79.1325083,257.027228 77.190264,255.223597 74.9245875,255.223597 M75.2480198,266.088284 C73.030198,266.088284 71.5962046,264.885314 70.6721122,263.54538 L70.6721122,269.532178 L68.8932343,269.532178 L68.8932343,253.883663 L70.6721122,253.883663 L70.6721122,256.287954 C71.6424092,254.85396 73.0516502,253.629538 75.2480198,253.629538 C78.1160066,253.629538 80.9575908,255.893564 80.9575908,259.84736 C80.9575908,263.776403 78.1374587,266.088284 75.2480198,266.088284" id="Fill-5" fill="#757575"></path>
        <path d="M88.1839934,266.064191 C86.4744224,266.064191 84.5783828,265.394224 83.2384488,264.308416 L84.1394389,263.036139 C85.4331683,264.008086 86.8671617,264.562541 88.2780528,264.562541 C89.710396,264.562541 90.7516502,263.823267 90.7516502,262.666502 L90.7516502,262.620297 C90.7516502,261.418977 89.3407591,260.955281 87.7681518,260.517987 C85.8952145,259.984983 83.8160066,259.338119 83.8160066,257.143399 L83.8160066,257.095545 C83.8160066,255.039439 85.5272277,253.674752 87.8836634,253.674752 C89.3407591,253.674752 90.959571,254.184653 92.1839934,254.993234 L91.3754125,256.333168 C90.2648515,255.616997 88.9925743,255.178053 87.8374587,255.178053 C86.4282178,255.178053 85.5272277,255.917327 85.5272277,256.912376 L85.5272277,256.956931 C85.5272277,258.090594 87.0057756,258.529538 88.6014851,259.016337 C90.44967,259.569142 92.4381188,260.286964 92.4381188,262.435479 L92.4381188,262.481683 C92.4381188,264.74736 90.5651815,266.064191 88.1839934,266.064191" id="Fill-7" fill="#757575"></path>
        <path d="M104.49703,259.199175 C104.312211,257.027558 103.064686,255.131518 100.681848,255.131518 C98.6026403,255.131518 97.0316832,256.864191 96.7990099,259.199175 L104.49703,259.199175 Z M101.006931,264.562211 C102.647195,264.562211 103.80396,263.892244 104.774257,262.875743 L105.883168,263.869142 C104.681848,265.210726 103.224752,266.110066 100.959076,266.110066 C97.6768977,266.110066 94.9970297,263.591914 94.9970297,259.869142 C94.9970297,256.403795 97.4244224,253.629868 100.729703,253.629868 C104.264356,253.629868 106.30066,256.44835 106.30066,259.963201 C106.30066,260.124917 106.30066,260.309736 106.275908,260.517657 L96.7990099,260.517657 C97.0531353,263.105116 98.9029703,264.562211 101.006931,264.562211 L101.006931,264.562211 Z" id="Fill-9" fill="#757575"></path>
        <path d="M118.173762,259.199175 C117.988944,257.027558 116.741419,255.131518 114.358581,255.131518 C112.279373,255.131518 110.708416,256.864191 110.475743,259.199175 L118.173762,259.199175 Z M114.683663,264.562211 C116.323927,264.562211 117.480693,263.892244 118.45099,262.875743 L119.559901,263.869142 C118.358581,265.210726 116.901485,266.110066 114.635809,266.110066 C111.35363,266.110066 108.673762,263.591914 108.673762,259.869142 C108.673762,256.403795 111.101155,253.629868 114.406436,253.629868 C117.941089,253.629868 119.977393,256.44835 119.977393,259.963201 C119.977393,260.124917 119.977393,260.309736 119.95264,260.517657 L110.475743,260.517657 C110.729868,263.105116 112.579703,264.562211 114.683663,264.562211 L114.683663,264.562211 Z" id="Fill-11" fill="#757575"></path>
        <path d="M137.139274,251.664686 L133.441254,259.915512 L140.815842,259.915512 L137.139274,251.664686 Z M145.391749,265.833003 L143.428053,265.833003 L141.532013,261.557426 L132.725083,261.557426 L130.805941,265.833003 L128.933003,265.833003 L136.307591,249.537624 L138.018812,249.537624 L145.391749,265.833003 Z" id="Fill-13" fill="#757575"></path>
        <polygon id="Fill-15" fill="#757575" points="158.372277 249.606766 159.873927 249.606766 164.312871 263.129868 168.934983 249.65297 170.852475 249.65297 165.075248 265.95 163.525743 265.95 159.088449 252.819637 154.626403 265.95 153.10165 265.95 147.322772 249.65297 149.311221 249.65297 153.934983 263.129868"></polygon>
        <path d="M179.94703,256.865017 C183.55429,257.650495 185.217657,258.968977 185.217657,261.465677 C185.217657,264.262706 182.905776,266.064686 179.694554,266.064686 C177.126898,266.064686 175.024587,265.209901 173.082343,263.475578 L174.214356,262.135644 C175.902475,263.662046 177.519637,264.424422 179.763861,264.424422 C181.935479,264.424422 183.367822,263.290759 183.367822,261.650495 C183.367822,260.124092 182.559241,259.269307 179.161551,258.553135 C175.440429,257.744554 173.729208,256.541584 173.729208,253.860066 C173.729208,251.270957 175.971782,249.422772 179.04604,249.422772 C181.404125,249.422772 183.090594,250.092739 184.730858,251.409571 L183.669802,252.820462 C182.166502,251.594389 180.664851,251.063036 178.999835,251.063036 C176.895875,251.063036 175.555941,252.219802 175.555941,253.69835 C175.555941,255.247855 176.387624,256.10264 179.94703,256.865017" id="Fill-17" fill="#757575"></path>
        <path d="M55.0709571,286.921617 C54.8861386,284.75 53.6386139,282.85396 51.2557756,282.85396 C49.1765677,282.85396 47.6056106,284.588284 47.3729373,286.921617 L55.0709571,286.921617 Z M51.5808581,292.284653 C53.2211221,292.284653 54.3778878,291.614686 55.3481848,290.598185 L56.4570957,291.591584 C55.2557756,292.933168 53.7986799,293.832508 51.5330033,293.832508 C48.2508251,293.832508 45.5709571,291.314356 45.5709571,287.591584 C45.5709571,284.126238 47.9983498,281.35231 51.3036304,281.35231 C54.8382838,281.35231 56.8745875,284.170792 56.8745875,287.685644 C56.8745875,287.84736 56.8745875,288.032178 56.849835,288.240099 L47.3729373,288.240099 C47.6270627,290.827558 49.4768977,292.284653 51.5808581,292.284653 L51.5808581,292.284653 Z" id="Fill-19" fill="#757575"></path>
        <path d="M61.7668317,293.556106 L59.9879538,293.556106 L59.9879538,281.605611 L61.7668317,281.605611 L61.7668317,283.686469 C62.5539604,282.391089 63.799835,281.351485 65.8575908,281.351485 C68.7470297,281.351485 70.4351485,283.292079 70.4351485,286.136964 L70.4351485,293.556106 L68.6546205,293.556106 L68.6546205,286.575908 C68.6546205,284.356436 67.4533003,282.970297 65.3493399,282.970297 C63.2932343,282.970297 61.7668317,284.471947 61.7668317,286.714521 L61.7668317,293.556106 Z" id="Fill-21" fill="#757575"></path>
        <polygon id="Fill-23" fill="#757575" points="83.0706271 281.605281 84.989769 281.605281 79.7884488 293.648185 78.2174917 293.648185 73.0392739 281.605281 75.0029703 281.605281 79.0260726 291.522772"></polygon>
        <mask id="mask-2" fill="white">
            <use xlink:href="#path-1"></use>
        </mask>
        <g id="Clip-26"></g>
        <path d="M87.9405941,293.556106 L89.7194719,293.556106 L89.7194719,281.605611 L87.9405941,281.605611 L87.9405941,293.556106 Z M87.8250825,278.991749 L89.8580858,278.991749 L89.8580858,277.028053 L87.8250825,277.028053 L87.8250825,278.991749 Z" id="Fill-25" fill="#757575" mask="url(#mask-2)"></path>
        <path d="M95.6338284,293.556106 L93.8549505,293.556106 L93.8549505,281.605611 L95.6338284,281.605611 L95.6338284,284.726073 C96.5117162,282.737624 98.2460396,281.305281 100.511716,281.39769 L100.511716,283.316832 L100.371452,283.316832 C97.7608911,283.316832 95.6338284,285.189769 95.6338284,288.793729 L95.6338284,293.556106 Z" id="Fill-27" fill="#757575" mask="url(#mask-2)"></path>
        <path d="M108.666007,282.923597 C106.076898,282.923597 104.29802,284.979703 104.29802,287.568812 C104.29802,290.157921 106.192409,292.238779 108.710561,292.238779 C111.30132,292.238779 113.1033,290.181023 113.1033,287.616667 C113.1033,285.004455 111.184158,282.923597 108.666007,282.923597 M108.666007,293.832838 C105.081848,293.832838 102.471287,291.012706 102.471287,287.616667 C102.471287,284.217327 105.106601,281.35264 108.710561,281.35264 C112.294719,281.35264 114.930033,284.171122 114.930033,287.568812 C114.930033,290.966502 112.271617,293.832838 108.666007,293.832838" id="Fill-28" fill="#757575" mask="url(#mask-2)"></path>
        <path d="M119.914191,293.556106 L118.135314,293.556106 L118.135314,281.605611 L119.914191,281.605611 L119.914191,283.686469 C120.70132,282.391089 121.947195,281.351485 124.00495,281.351485 C126.894389,281.351485 128.582508,283.292079 128.582508,286.136964 L128.582508,293.556106 L126.80198,293.556106 L126.80198,286.575908 C126.80198,284.356436 125.60066,282.970297 123.4967,282.970297 C121.440594,282.970297 119.914191,284.471947 119.914191,286.714521 L119.914191,293.556106 Z" id="Fill-29" fill="#757575" mask="url(#mask-2)"></path>
        <path d="M146.04934,281.35231 C148.800165,281.35231 150.486634,283.200495 150.486634,286.159241 L150.486634,293.556931 L148.707756,293.556931 L148.707756,286.575083 C148.707756,284.264851 147.55099,282.969472 145.610396,282.969472 C143.808416,282.969472 142.303465,284.311056 142.303465,286.669142 L142.303465,293.556931 L140.54769,293.556931 L140.54769,286.528878 C140.54769,284.286304 139.369472,282.969472 137.475083,282.969472 C135.577393,282.969472 134.14505,284.542079 134.14505,286.738449 L134.14505,293.556931 L132.366172,293.556931 L132.366172,281.604785 L134.14505,281.604785 L134.14505,283.616337 C134.932178,282.438119 135.994884,281.35231 138.004785,281.35231 C139.94703,281.35231 141.196205,282.391914 141.841419,283.731848 C142.697855,282.415017 143.968482,281.35231 146.04934,281.35231" id="Fill-30" fill="#757575" mask="url(#mask-2)"></path>
        <path d="M163.095545,286.921617 C162.910726,284.75 161.663201,282.85396 159.280363,282.85396 C157.201155,282.85396 155.630198,284.588284 155.397525,286.921617 L163.095545,286.921617 Z M159.605446,292.284653 C161.24571,292.284653 162.402475,291.614686 163.372772,290.598185 L164.481683,291.591584 C163.280363,292.933168 161.823267,293.832508 159.557591,293.832508 C156.275413,293.832508 153.595545,291.314356 153.595545,287.591584 C153.595545,284.126238 156.022937,281.35231 159.328218,281.35231 C162.862871,281.35231 164.899175,284.170792 164.899175,287.685644 C164.899175,287.84736 164.899175,288.032178 164.874422,288.240099 L155.397525,288.240099 C155.65165,290.827558 157.501485,292.284653 159.605446,292.284653 L159.605446,292.284653 Z" id="Fill-31" fill="#757575" mask="url(#mask-2)"></path>
        <path d="M169.791419,293.556106 L168.012541,293.556106 L168.012541,281.605611 L169.791419,281.605611 L169.791419,283.686469 C170.578548,282.391089 171.824422,281.351485 173.882178,281.351485 C176.771617,281.351485 178.459736,283.292079 178.459736,286.136964 L178.459736,293.556106 L176.679208,293.556106 L176.679208,286.575908 C176.679208,284.356436 175.477888,282.970297 173.373927,282.970297 C171.317822,282.970297 169.791419,284.471947 169.791419,286.714521 L169.791419,293.556106 Z" id="Fill-32" fill="#757575" mask="url(#mask-2)"></path>
        <path d="M184.64604,290.157591 C184.64604,291.614686 185.45462,292.14604 186.657591,292.14604 C187.258251,292.14604 187.768152,292.030528 188.391914,291.730198 L188.391914,293.256601 C187.768152,293.578383 187.096535,293.764851 186.241749,293.764851 C184.324257,293.764851 182.867162,292.816007 182.867162,290.390264 L182.867162,283.179043 L181.202145,283.179043 L181.202145,281.604785 L182.867162,281.604785 L182.867162,278.000825 L184.64604,278.000825 L184.64604,281.604785 L188.438119,281.604785 L188.438119,283.179043 L184.64604,283.179043 L184.64604,290.157591 Z" id="Fill-33" fill="#757575" mask="url(#mask-2)"></path>
        <path d="M379.608911,2.92640264 L379.534653,0.0402640264 C380.566007,0.0122112211 381.635314,-0.00099009901 382.633663,0.000660066007 C383.546205,0.000660066007 384.457096,0.0105610561 385.366337,0.0320132013 L385.29868,2.91815182 C384.384488,2.89669967 383.447195,2.87029703 382.547855,2.88844884 C381.566007,2.88844884 380.585809,2.90165017 379.608911,2.92640264 L379.608911,2.92640264 Z M396.636964,3.73993399 C394.770627,3.51056106 392.866337,3.32574257 390.978548,3.18877888 L391.188119,0.309240924 C393.122112,0.44950495 395.074257,0.637623762 396.988449,0.871947195 L396.636964,3.73993399 Z M368.273927,3.78283828 L367.912541,0.918151815 C369.821782,0.678877888 371.773927,0.482508251 373.712871,0.335643564 L373.932343,3.21518152 C372.039604,3.35874587 370.136964,3.54851485 368.273927,3.78283828 L368.273927,3.78283828 Z M407.834983,5.68217822 C406.006601,5.2679868 404.130363,4.89339934 402.264026,4.569967 L402.755776,1.72343234 C404.671617,2.05676568 406.59571,2.44125413 408.473597,2.86534653 L407.834983,5.68217822 Z M357.079208,5.75973597 L356.433993,2.94455446 C358.315182,2.51551155 360.237624,2.12607261 362.148515,1.78778878 L362.651815,4.63267327 C360.787129,4.96105611 358.912541,5.34059406 357.079208,5.75973597 L357.079208,5.75973597 Z M418.785479,8.73663366 C416.99505,8.13762376 415.166667,7.57821782 413.349835,7.07161716 L414.127063,4.28943894 C415.990099,4.80924092 417.866337,5.38349835 419.70132,5.99570957 L418.785479,8.73663366 Z M346.140264,8.84884488 L345.214521,6.11287129 C347.046205,5.49405941 348.917492,4.91485149 350.785479,4.38679868 L351.569307,7.16732673 C349.749175,7.68052805 347.922442,8.24653465 346.140264,8.84884488 L346.140264,8.84884488 Z M429.39604,12.8834983 C427.666667,12.1046205 425.90099,11.3636964 424.145215,10.6772277 L425.19637,7.98745875 C426.9967,8.69042904 428.806931,9.45280528 430.582508,10.249835 L429.39604,12.8834983 Z M335.575908,13.0155116 L334.384488,10.3851485 C336.143564,9.58646865 337.947195,8.82244224 339.742574,8.11617162 L340.79868,10.8026403 C339.051155,11.4924092 337.292079,12.2366337 335.575908,13.0155116 L335.575908,13.0155116 Z M439.531353,18.069967 C437.89769,17.1277228 436.216172,16.2118812 434.531353,15.3488449 L435.846535,12.779538 C437.574257,13.6640264 439.30033,14.6013201 440.975248,15.5683168 L439.531353,18.069967 Z M325.485149,18.2135314 L324.034653,15.7151815 C325.694719,14.7531353 327.412541,13.8125413 329.140264,12.9214521 L330.465347,15.4874587 C328.777228,16.3570957 327.10396,17.2745875 325.485149,18.2135314 L325.485149,18.2135314 Z M449.090759,24.239934 C447.566007,23.1409241 445.983498,22.0633663 444.389439,21.0369637 L445.955446,18.609571 C447.589109,19.6640264 449.211221,20.769637 450.777228,21.8950495 L449.090759,24.239934 Z M315.955446,24.3933993 L314.265677,22.0518152 C315.838284,20.9165017 317.455446,19.8092409 319.072607,18.7613861 L320.643564,21.1838284 C319.067657,22.2069307 317.488449,23.2844884 315.955446,24.3933993 L315.955446,24.3933993 Z M457.993399,31.3240924 C456.582508,30.0815182 455.117162,28.8521452 453.633663,27.6722772 L455.432343,25.4132013 C456.952145,26.6227723 458.457096,27.8834983 459.90429,29.1590759 L457.993399,31.3240924 Z M307.080858,31.4940594 L305.169967,29.3290429 C306.625413,28.040264 308.127063,26.7778878 309.627063,25.5782178 L311.432343,27.8323432 C309.966997,29.0039604 308.5033,30.2349835 307.080858,31.4940594 L307.080858,31.4940594 Z M466.143564,39.2547855 C464.864686,37.8785479 463.526403,36.5105611 462.168317,35.190429 L464.183168,33.1194719 C465.575908,34.4742574 466.947195,35.8768977 468.259076,37.2877888 L466.143564,39.2547855 Z M298.948845,39.4379538 L296.831683,37.4759076 C298.155116,36.0468647 299.524752,34.6425743 300.90099,33.2976898 L302.917492,35.3636964 C301.575908,36.6755776 300.239274,38.0452145 298.948845,39.4379538 L298.948845,39.4379538 Z M473.463696,47.9478548 C472.318482,46.4412541 471.122112,44.9478548 469.912541,43.5122112 L472.120462,41.6508251 C473.361386,43.1227723 474.587459,44.6541254 475.762376,46.1986799 L473.463696,47.9478548 Z M291.640264,48.1541254 L289.339934,46.409901 C290.50495,44.870297 291.727723,43.3356436 292.973597,41.8488449 L295.188119,43.7036304 C293.971947,45.1541254 292.778878,46.6524752 291.640264,48.1541254 L291.640264,48.1541254 Z M479.887789,57.3174917 C478.89604,55.7069307 477.854785,54.1046205 476.793729,52.5534653 L479.174917,50.9214521 C480.264026,52.5105611 481.331683,54.1541254 482.346535,55.8059406 L479.887789,57.3174917 Z M285.232673,57.5551155 L282.765677,56.050165 C283.772277,54.4033003 284.836634,52.7531353 285.932343,51.1475248 L288.318482,52.7745875 C287.250825,54.3405941 286.211221,55.949505 285.232673,57.5551155 L285.232673,57.5551155 Z M485.343234,67.2745875 C484.513201,65.5633663 483.636964,63.8669967 482.739274,62.230033 L485.272277,60.8422442 C486.193069,62.520462 487.090759,64.259736 487.940594,66.0138614 L485.343234,67.2745875 Z M279.788779,67.5534653 L277.188119,66.3009901 C278.031353,64.5435644 278.927393,62.7960396 279.849835,61.1046205 L282.386139,62.4874587 C281.486799,64.1359736 280.613861,65.8389439 279.788779,67.5534653 L279.788779,67.5534653 Z M489.770627,77.7151815 C489.125413,75.9577558 488.425743,74.1821782 487.686469,72.4412541 L490.344884,71.3125413 C491.10231,73.09967 491.821782,74.919802 492.480198,76.7234323 L489.770627,77.7151815 Z M275.369637,78.050165 L272.656766,77.0666667 C273.318482,75.2366337 274.034653,73.4066007 274.785479,71.6260726 L277.447195,72.7465347 C276.714521,74.4825083 276.018152,76.2663366 275.369637,78.050165 L275.369637,78.050165 Z M493.141914,88.5732673 C492.676568,86.7547855 492.155116,84.9148515 491.592409,83.1029703 L494.351485,82.2481848 C494.927393,84.1046205 495.462046,85.9907591 495.938944,87.8570957 L493.141914,88.5732673 Z M272.033003,88.9313531 L269.231023,88.2234323 C269.706271,86.3471947 270.234323,84.4594059 270.80033,82.609571 L273.562706,83.4561056 C273.008251,85.259736 272.49505,87.1029703 272.033003,88.9313531 L272.033003,88.9313531 Z M495.405941,99.7135314 C495.120462,97.8389439 494.787129,95.9544554 494.412541,94.1145215 L497.242574,93.540264 C497.627063,95.4264026 497.968647,97.3570957 498.260726,99.279538 L495.405941,99.7135314 Z M269.80198,100.079868 L266.947195,99.6574257 C267.229373,97.7349835 267.567657,95.8009901 267.943894,93.9115512 L270.777228,94.4792079 C270.407591,96.3207921 270.079208,98.2052805 269.80198,100.079868 L269.80198,100.079868 Z M496.546205,111.022112 C496.453795,109.160726 496.308581,107.253135 496.117162,105.353795 L498.990099,105.063366 C499.186469,107.012211 499.334983,108.967657 499.430693,110.876898 L496.546205,111.022112 Z M268.69637,111.391749 L265.811881,111.254785 C265.90429,109.333993 266.046205,107.378548 266.234323,105.441254 L269.108911,105.721782 C268.924092,107.611221 268.785479,109.520462 268.69637,111.391749 L268.69637,111.391749 Z M499.445545,122.782838 L496.561056,122.640924 C496.653465,120.766337 496.69967,118.852145 496.69967,116.956106 L496.69967,116.706931 L499.587459,116.706931 L499.587459,116.956106 C499.587459,118.9 499.539604,120.860396 499.445545,122.782838 L499.445545,122.782838 Z M265.825083,122.908251 C265.727723,120.966007 265.678218,119.005611 265.676568,117.081518 L268.564356,117.079868 C268.566007,118.954455 268.613861,120.868647 268.709571,122.766337 L265.825083,122.908251 Z M498.30033,134.380198 L495.443894,133.956106 C495.722772,132.074917 495.958746,130.175578 496.141914,128.310891 L499.016502,128.59637 C498.826733,130.505611 498.587459,132.452805 498.30033,134.380198 L498.30033,134.380198 Z M266.985149,134.505611 C266.69802,132.591419 266.455446,130.645875 266.262376,128.721782 L269.136964,128.434653 C269.323432,130.310891 269.561056,132.210231 269.839934,134.078218 L266.985149,134.505611 Z M496,145.807591 L493.20297,145.09802 C493.663366,143.276238 494.087459,141.411551 494.463696,139.553465 L497.292079,140.124422 C496.909241,142.027063 496.475248,143.941254 496,145.807591 L496,145.807591 Z M269.29538,145.931353 C268.823432,144.078218 268.387789,142.165677 267.9967,140.249835 L270.826733,139.675578 C271.207921,141.545215 271.632013,143.409901 272.094059,145.218482 L269.29538,145.931353 Z M492.566007,156.964356 L489.853135,155.974257 C490.49835,154.20363 491.107261,152.386799 491.666667,150.573267 L494.425743,151.421452 C493.853135,153.282838 493.229373,155.147525 492.566007,156.964356 L492.566007,156.964356 Z M272.735974,157.068317 C272.066007,155.230033 271.440594,153.370297 270.876238,151.543564 L273.635314,150.692079 C274.184818,152.472607 274.79538,154.286139 275.450495,156.079868 L272.735974,157.068317 Z M488.023102,167.723432 L485.422442,166.469307 C486.247525,164.756436 487.037954,163.010561 487.768977,161.277888 L490.427393,162.40165 C489.678218,164.177228 488.869637,165.967657 488.023102,167.723432 L488.023102,167.723432 Z M277.267327,167.782838 C276.422442,166.032013 275.613861,164.248185 274.867987,162.482508 L277.528053,161.357096 C278.255776,163.079868 279.044554,164.819142 279.869637,166.527063 L277.267327,167.782838 Z M482.430693,177.967657 L479.966997,176.459406 C480.958746,174.842244 481.917492,173.183828 482.820132,171.532013 L485.353135,172.916502 C484.429043,174.609571 483.447195,176.309241 482.430693,177.967657 L482.430693,177.967657 Z M282.849835,177.99736 C281.833333,176.338944 280.851485,174.642574 279.932343,172.959406 L282.465347,171.574917 C283.363036,173.216832 284.320132,174.870297 285.311881,176.487459 L282.849835,177.99736 Z M475.849835,187.60132 L473.549505,185.855446 C474.689769,184.352145 475.808581,182.79934 476.874587,181.238284 L479.260726,182.866997 C478.166667,184.467657 477.018152,186.060066 475.849835,187.60132 L475.849835,187.60132 Z M289.422442,187.611221 C288.260726,186.079868 287.113861,184.490759 286.016502,182.886799 L288.39934,181.254785 C289.470297,182.820792 290.589109,184.371947 291.722772,185.865347 L289.422442,187.611221 Z M468.343234,196.528713 L466.229373,194.561716 C467.511551,193.182178 468.778878,191.748185 469.99505,190.29934 L472.206271,192.157426 C470.958746,193.642574 469.658416,195.112871 468.343234,196.528713 L468.343234,196.528713 Z M296.919142,196.530363 C295.60396,195.112871 294.305281,193.644224 293.059406,192.165677 L295.270627,190.305941 C296.483498,191.749835 297.752475,193.182178 299.036304,194.566667 L296.919142,196.530363 Z M460.00165,204.665677 L458.090759,202.49901 C459.4967,201.259736 460.89934,199.957756 462.259076,198.632673 L464.273927,200.70033 C462.879538,202.060066 461.442244,203.393399 460.00165,204.665677 L460.00165,204.665677 Z M305.265677,204.668977 C303.806931,203.381848 302.367987,202.046865 300.990099,200.70363 L303.008251,198.635974 C304.353135,199.946205 305.754125,201.248185 307.176568,202.50396 L305.265677,204.668977 Z M450.892739,211.931353 L449.207921,209.588119 C450.737624,208.487459 452.260726,207.332343 453.735974,206.154125 L455.537954,208.411551 C454.024752,209.617822 452.462046,210.80264 450.892739,211.931353 L450.892739,211.931353 Z M314.382838,211.942904 C312.815182,210.814191 311.252475,209.629373 309.734323,208.419802 L311.536304,206.162376 C313.016502,207.342244 314.541254,208.49901 316.070957,209.59967 L314.382838,211.942904 Z M441.117162,218.259736 L439.669967,215.759736 C441.30198,214.815842 442.930693,213.819142 444.514851,212.794389 L446.084158,215.218482 C444.460396,216.269637 442.788779,217.292739 441.117162,218.259736 L441.117162,218.259736 Z M324.179868,218.279538 C322.508251,217.314191 320.833333,216.289439 319.20297,215.234983 L320.768977,212.809241 C322.361386,213.838944 323.99505,214.837294 325.623762,215.779538 L324.179868,218.279538 Z M430.767327,223.576568 L429.577558,220.946205 C431.292079,220.170627 433.011551,219.340594 434.689769,218.479208 L436.008251,221.048515 C434.288779,221.931353 432.524752,222.782838 430.767327,223.576568 L430.767327,223.576568 Z M334.566007,223.609571 C332.79868,222.810891 331.028053,221.957756 329.306931,221.074917 L330.623762,218.505611 C332.30363,219.366997 334.029703,220.19868 335.755776,220.977558 L334.566007,223.609571 Z M419.930693,227.837294 L419.011551,225.09967 C420.79868,224.49901 422.59571,223.843894 424.351485,223.154125 L425.409241,225.840594 C423.607261,226.550165 421.765677,227.221782 419.930693,227.837294 L419.930693,227.837294 Z M345.442244,227.873597 C343.608911,227.258086 341.760726,226.588119 339.950495,225.876898 L341.0033,223.188779 C342.770627,223.880198 344.572607,224.535314 346.361386,225.135974 L345.442244,227.873597 Z M408.706271,230.992409 L408.067657,228.175578 C409.89769,227.761386 411.752475,227.289439 413.575908,226.776238 L414.359736,229.555116 C412.486799,230.083168 410.584158,230.565017 408.706271,230.992409 L408.706271,230.992409 Z M356.668317,231.018812 C354.780528,230.591419 352.879538,230.109571 351.014851,229.588119 L351.79538,226.807591 C353.612211,227.315842 355.465347,227.786139 357.305281,228.20198 L356.668317,231.018812 Z M397.227723,233.010561 L396.869637,230.144224 C398.742574,229.911551 400.632013,229.627723 402.491749,229.30099 L402.991749,232.145875 C401.085809,232.479208 399.146865,232.771287 397.227723,233.010561 L397.227723,233.010561 Z M368.151815,233.022112 C366.224422,232.784488 364.283828,232.49571 362.384488,232.164026 L362.881188,229.319142 C364.732673,229.644224 366.625413,229.926403 368.50495,230.157426 L368.151815,233.022112 Z M385.60396,233.873597 L385.533003,230.987459 C387.429043,230.939604 389.339934,230.845545 391.211221,230.705281 L391.427393,233.584818 C389.508251,233.728383 387.549505,233.825743 385.60396,233.873597 L385.60396,233.873597 Z M379.775578,233.876898 C377.834983,233.830693 375.874587,233.734983 373.952145,233.593069 L374.165017,230.713531 C376.041254,230.852145 377.950495,230.944554 379.843234,230.990759 L379.775578,233.876898 Z" id="Fill-34" fill="#757575" mask="url(#mask-2)"></path>
        <polygon id="Fill-35" fill="#757575" mask="url(#mask-2)" points="331.534983 265.833663 329.685149 265.833663 329.685149 259.431023 322.959076 249.653795 325.176898 249.653795 330.632343 257.744554 336.133993 249.653795 338.261056 249.653795 331.534983 259.406271"></polygon>
        <path d="M346.318647,255.201155 C343.729538,255.201155 341.95066,257.257261 341.95066,259.84637 C341.95066,262.435479 343.84505,264.516337 346.363201,264.516337 C348.95396,264.516337 350.755941,262.458581 350.755941,259.894224 C350.755941,257.282013 348.836799,255.201155 346.318647,255.201155 M346.318647,266.110396 C342.734488,266.110396 340.123927,263.290264 340.123927,259.894224 C340.123927,256.494884 342.759241,253.628548 346.363201,253.628548 C349.94736,253.628548 352.582673,256.44868 352.582673,259.84637 C352.582673,263.24571 349.924257,266.110396 346.318647,266.110396" id="Fill-36" fill="#757575" mask="url(#mask-2)"></path>
        <path d="M364.270627,253.883663 L366.026403,253.883663 L366.026403,265.834158 L364.270627,265.834158 L364.270627,263.7533 C363.462046,265.04703 362.235974,266.088284 360.179868,266.088284 C357.290429,266.088284 355.60231,264.14604 355.60231,261.304455 L355.60231,253.883663 L357.381188,253.883663 L357.381188,260.863861 C357.381188,263.083333 358.584158,264.471122 360.686469,264.471122 C362.722772,264.471122 364.270627,262.966172 364.270627,260.725248 L364.270627,253.883663 Z" id="Fill-37" fill="#757575" mask="url(#mask-2)"></path>
        <path d="M371.79802,265.833663 L370.019142,265.833663 L370.019142,253.883168 L371.79802,253.883168 L371.79802,257.00363 C372.675908,255.015182 374.410231,253.582838 376.675908,253.675248 L376.675908,255.592739 L376.535644,255.592739 C373.925083,255.592739 371.79802,257.467327 371.79802,261.071287 L371.79802,265.833663 Z" id="Fill-38" fill="#757575" mask="url(#mask-2)"></path>
        <path d="M393.424092,251.664686 L389.726073,259.915512 L397.10066,259.915512 L393.424092,251.664686 Z M401.676568,265.833003 L399.712871,265.833003 L397.816832,261.557426 L389.009901,261.557426 L387.090759,265.833003 L385.217822,265.833003 L392.592409,249.537624 L394.30363,249.537624 L401.676568,265.833003 Z" id="Fill-39" fill="#757575" mask="url(#mask-2)"></path>
        <polygon id="Fill-40" fill="#757575" mask="url(#mask-2)" points="414.657096 249.606766 416.158746 249.606766 420.59769 263.129868 425.219802 249.65297 427.137294 249.65297 421.360066 265.95 419.810561 265.95 415.373267 252.819637 410.911221 265.95 409.386469 265.95 403.607591 249.65297 405.59604 249.65297 410.219802 263.129868"></polygon>
        <path d="M436.231683,256.865017 C439.838944,257.650495 441.50231,258.968977 441.50231,261.465677 C441.50231,264.262706 439.190429,266.064686 435.979208,266.064686 C433.411551,266.064686 431.309241,265.209901 429.366997,263.475578 L430.49901,262.135644 C432.187129,263.662046 433.80429,264.424422 436.048515,264.424422 C438.220132,264.424422 439.652475,263.290759 439.652475,261.650495 C439.652475,260.124092 438.843894,259.269307 435.446205,258.553135 C431.725083,257.744554 430.013861,256.541584 430.013861,253.860066 C430.013861,251.270957 432.256436,249.422772 435.330693,249.422772 C437.688779,249.422772 439.375248,250.092739 441.015512,251.409571 L439.954455,252.820462 C438.451155,251.594389 436.949505,251.063036 435.284488,251.063036 C433.180528,251.063036 431.840594,252.219802 431.840594,253.69835 C431.840594,255.247855 432.672277,256.10264 436.231683,256.865017" id="Fill-41" fill="#757575" mask="url(#mask-2)"></path>
        <path d="M320.747525,286.921617 C320.562706,284.75 319.315182,282.85396 316.932343,282.85396 C314.853135,282.85396 313.282178,284.588284 313.049505,286.921617 L320.747525,286.921617 Z M317.257426,292.284653 C318.89769,292.284653 320.054455,291.614686 321.024752,290.598185 L322.133663,291.591584 C320.932343,292.933168 319.475248,293.832508 317.209571,293.832508 C313.927393,293.832508 311.247525,291.314356 311.247525,287.591584 C311.247525,284.126238 313.674917,281.35231 316.980198,281.35231 C320.514851,281.35231 322.551155,284.170792 322.551155,287.685644 C322.551155,287.84736 322.551155,288.032178 322.526403,288.240099 L313.049505,288.240099 C313.30363,290.827558 315.153465,292.284653 317.257426,292.284653 L317.257426,292.284653 Z" id="Fill-42" fill="#757575" mask="url(#mask-2)"></path>
        <path d="M327.443399,293.556106 L325.664521,293.556106 L325.664521,281.605611 L327.443399,281.605611 L327.443399,283.686469 C328.230528,282.391089 329.476403,281.351485 331.534158,281.351485 C334.423597,281.351485 336.111716,283.292079 336.111716,286.136964 L336.111716,293.556106 L334.331188,293.556106 L334.331188,286.575908 C334.331188,284.356436 333.129868,282.970297 331.025908,282.970297 C328.969802,282.970297 327.443399,284.471947 327.443399,286.714521 L327.443399,293.556106 Z" id="Fill-43" fill="#757575" mask="url(#mask-2)"></path>
        <polygon id="Fill-44" fill="#757575" mask="url(#mask-2)" points="348.747195 281.605281 350.666337 281.605281 345.465017 293.648185 343.894059 293.648185 338.715842 281.605281 340.679538 281.605281 344.70264 291.522772"></polygon>
        <path d="M353.617162,293.556106 L355.39604,293.556106 L355.39604,281.605611 L353.617162,281.605611 L353.617162,293.556106 Z M353.50165,278.991749 L355.534653,278.991749 L355.534653,277.028053 L353.50165,277.028053 L353.50165,278.991749 Z" id="Fill-45" fill="#757575" mask="url(#mask-2)"></path>
        <path d="M361.310396,293.556106 L359.531518,293.556106 L359.531518,281.605611 L361.310396,281.605611 L361.310396,284.726073 C362.188284,282.737624 363.922607,281.305281 366.188284,281.39769 L366.188284,283.316832 L366.04802,283.316832 C363.437459,283.316832 361.310396,285.189769 361.310396,288.793729 L361.310396,293.556106 Z" id="Fill-46" fill="#757575" mask="url(#mask-2)"></path>
        <path d="M374.342574,282.923597 C371.753465,282.923597 369.974587,284.979703 369.974587,287.568812 C369.974587,290.157921 371.868977,292.238779 374.387129,292.238779 C376.977888,292.238779 378.779868,290.181023 378.779868,287.616667 C378.779868,285.004455 376.860726,282.923597 374.342574,282.923597 M374.342574,293.832838 C370.758416,293.832838 368.147855,291.012706 368.147855,287.616667 C368.147855,284.217327 370.783168,281.35264 374.387129,281.35264 C377.971287,281.35264 380.606601,284.171122 380.606601,287.568812 C380.606601,290.966502 377.948185,293.832838 374.342574,293.832838" id="Fill-47" fill="#757575" mask="url(#mask-2)"></path>
        <path d="M385.590759,293.556106 L383.811881,293.556106 L383.811881,281.605611 L385.590759,281.605611 L385.590759,283.686469 C386.377888,282.391089 387.623762,281.351485 389.681518,281.351485 C392.570957,281.351485 394.259076,283.292079 394.259076,286.136964 L394.259076,293.556106 L392.478548,293.556106 L392.478548,286.575908 C392.478548,284.356436 391.277228,282.970297 389.173267,282.970297 C387.117162,282.970297 385.590759,284.471947 385.590759,286.714521 L385.590759,293.556106 Z" id="Fill-48" fill="#757575" mask="url(#mask-2)"></path>
        <path d="M411.725908,281.35231 C414.476733,281.35231 416.163201,283.200495 416.163201,286.159241 L416.163201,293.556931 L414.384323,293.556931 L414.384323,286.575083 C414.384323,284.264851 413.227558,282.969472 411.286964,282.969472 C409.484983,282.969472 407.980033,284.311056 407.980033,286.669142 L407.980033,293.556931 L406.224257,293.556931 L406.224257,286.528878 C406.224257,284.286304 405.04604,282.969472 403.15165,282.969472 C401.25396,282.969472 399.821617,284.542079 399.821617,286.738449 L399.821617,293.556931 L398.042739,293.556931 L398.042739,281.604785 L399.821617,281.604785 L399.821617,283.616337 C400.608746,282.438119 401.671452,281.35231 403.681353,281.35231 C405.623597,281.35231 406.872772,282.391914 407.517987,283.731848 C408.374422,282.415017 409.64505,281.35231 411.725908,281.35231" id="Fill-49" fill="#757575" mask="url(#mask-2)"></path>
        <path d="M428.772112,286.921617 C428.587294,284.75 427.339769,282.85396 424.956931,282.85396 C422.877723,282.85396 421.306766,284.588284 421.074092,286.921617 L428.772112,286.921617 Z M425.282013,292.284653 C426.922277,292.284653 428.079043,291.614686 429.04934,290.598185 L430.158251,291.591584 C428.956931,292.933168 427.499835,293.832508 425.234158,293.832508 C421.95198,293.832508 419.272112,291.314356 419.272112,287.591584 C419.272112,284.126238 421.699505,281.35231 425.004785,281.35231 C428.539439,281.35231 430.575743,284.170792 430.575743,287.685644 C430.575743,287.84736 430.575743,288.032178 430.55099,288.240099 L421.074092,288.240099 C421.328218,290.827558 423.178053,292.284653 425.282013,292.284653 L425.282013,292.284653 Z" id="Fill-50" fill="#757575" mask="url(#mask-2)"></path>
        <path d="M435.467987,293.556106 L433.689109,293.556106 L433.689109,281.605611 L435.467987,281.605611 L435.467987,283.686469 C436.255116,282.391089 437.50099,281.351485 439.558746,281.351485 C442.448185,281.351485 444.136304,283.292079 444.136304,286.136964 L444.136304,293.556106 L442.355776,293.556106 L442.355776,286.575908 C442.355776,284.356436 441.154455,282.970297 439.050495,282.970297 C436.994389,282.970297 435.467987,284.471947 435.467987,286.714521 L435.467987,293.556106 Z" id="Fill-51" fill="#757575" mask="url(#mask-2)"></path>
        <path d="M450.322607,290.157591 C450.322607,291.614686 451.131188,292.14604 452.334158,292.14604 C452.934818,292.14604 453.444719,292.030528 454.068482,291.730198 L454.068482,293.256601 C453.444719,293.578383 452.773102,293.764851 451.918317,293.764851 C450.000825,293.764851 448.543729,292.816007 448.543729,290.390264 L448.543729,283.179043 L446.878713,283.179043 L446.878713,281.604785 L448.543729,281.604785 L448.543729,278.000825 L450.322607,278.000825 L450.322607,281.604785 L454.114686,281.604785 L454.114686,283.179043 L450.322607,283.179043 L450.322607,290.157591 Z" id="Fill-52" fill="#757575" mask="url(#mask-2)"></path>
        <polygon id="Fill-53" fill="#9D9D9D" mask="url(#mask-2)" points="159.859736 87.2524752 336.427393 87.2524752 336.427393 82.3019802 159.859736 82.3019802"></polygon>
        <polygon id="Fill-54" fill="#9D9D9D" mask="url(#mask-2)" points="320.155776 104.724752 316.779538 101.09934 334.659076 84.4821782 316.779538 67.8617162 320.155776 64.2363036 341.928053 84.4821782"></polygon>
        <polygon id="Fill-55" fill="#3C4929" mask="url(#mask-2)" points="104.067327 73.0778878 99.450165 68.8320132 97.1531353 73.2759076 100.686139 73.6884488"></polygon>
        <polygon id="Fill-56" fill="#3C4929" mask="url(#mask-2)" points="100.240264 78.5665017 116.954785 79.6358086 133.670957 78.5665017 116.954785 69.3140264"></polygon>
        <polygon id="Fill-57" fill="#3C4929" mask="url(#mask-2)" points="128.249835 73.0778878 132.317492 73.7957096 136.758086 73.2759076 132.791089 64.9112211"></polygon>
        <polygon id="Fill-58" fill="#B7C99C" mask="url(#mask-2)" points="111.472937 103.333993 121.035644 101.088119 130.258416 103.244884 120.69901 112.337294"></polygon>
        <polygon id="Fill-59" fill="#769B3E" mask="url(#mask-2)" points="112.531848 72.2366337 107.561551 71.380198 102.442739 64.9990099 107.561551 54.6953795 112.531848 56.2465347"></polygon>
        <polygon id="Fill-60" fill="#4C612C" mask="url(#mask-2)" points="100.240264 60.839604 100.240264 54.9287129 116.954785 46.5722772 121.377228 55.9221122 112.532343 59.460066 107.562046 57.9089109 107.562046 71.1943894 116.954785 69.3148515 121.961386 91.3214521 116.954785 122.384158 111.948185 119.880858 111.948185 112.8 107.562046 111.045875 107.562046 77.8346535 100.240264 78.5673267 100.240264 72.6580858 97.1528053 73.2768977 97.1528053 62.0739274"></polygon>
        <polygon id="Fill-61" fill="#769B3E" mask="url(#mask-2)" points="125.607096 50.8985149 129.130198 52.6592409 133.668152 54.929868 133.668152 60.8391089 136.757261 62.0734323 136.757261 73.2747525 133.668152 72.6575908 133.668152 78.5668317 129.732508 78.1740924 126.34802 77.8341584 126.34802 84.400165 126.34802 84.439769 126.34802 84.4777228 133.671452 84.4777228 133.671452 90.5552805 130.267162 90.8589109 130.267162 96.9876238 121.960231 98.6394389 121.960231 105.720297 130.24901 103.259901 130.267162 109.507426 121.960231 112.799505 121.960231 119.880363 116.955281 122.383663 116.955281 99.6410891 116.955281 92.060231 116.955281 84.4331683 116.955281 84.3919142 116.955281 76.8968647 116.955281 69.3143564 121.376073 70.1988449 121.376073 59.459571 116.955281 57.9117162 116.955281 54.1542904 116.955281 46.5734323"></polygon>
        <polygon id="Fill-62" fill="#3C4929" mask="url(#mask-2)" points="121.960891 56.1549505 116.955941 54.1549505 107.561551 57.9090759 112.531848 59.460231"></polygon>
        <polygon id="Fill-63" fill="#4C612C" mask="url(#mask-2)" points="121.376898 57.9112211 126.347195 57.9112211 126.347195 71.1950495 121.376898 70.1983498"></polygon>
        <polygon id="Fill-64" fill="#3C4929" mask="url(#mask-2)" points="107.561386 57.9090759 116.955776 54.1549505 118.932673 54.9453795 121.960726 56.1549505 126.346865 57.9107261 121.376568 59.460231 116.955776 57.9090759 112.531683 59.460231"></polygon>
        <polygon id="Fill-65" fill="#3C4929" mask="url(#mask-2)" points="368.093729 73.0778878 363.476568 68.8320132 361.179538 73.2759076 364.712541 73.6884488"></polygon>
        <polygon id="Fill-66" fill="#3C4929" mask="url(#mask-2)" points="364.266667 78.5665017 380.981188 79.6358086 397.69736 78.5665017 380.981188 69.3140264"></polygon>
        <polygon id="Fill-67" fill="#3C4929" mask="url(#mask-2)" points="392.276238 73.0778878 396.343894 73.7957096 400.784488 73.2759076 396.817492 64.9112211"></polygon>
        <polygon id="Fill-68" fill="#B7C99C" mask="url(#mask-2)" points="375.49934 103.333993 385.062046 101.088119 394.284818 103.244884 384.725413 112.337294"></polygon>
        <polygon id="Fill-69" fill="#769B3E" mask="url(#mask-2)" points="376.558251 72.2366337 371.587954 71.380198 366.469142 64.9990099 371.587954 54.6953795 376.558251 56.2465347"></polygon>
        <polygon id="Fill-70" fill="#4C612C" mask="url(#mask-2)" points="364.266667 60.839604 364.266667 54.9287129 380.981188 46.5722772 385.40363 55.9221122 376.558746 59.460066 371.588449 57.9089109 371.588449 71.1943894 380.981188 69.3148515 385.987789 91.3214521 380.981188 122.384158 375.974587 119.880858 375.974587 112.8 371.588449 111.045875 371.588449 77.8346535 364.266667 78.5673267 364.266667 72.6580858 361.179208 73.2768977 361.179208 62.0739274"></polygon>
        <polygon id="Fill-71" fill="#769B3E" mask="url(#mask-2)" points="389.633498 50.8985149 393.156601 52.6592409 397.694554 54.929868 397.694554 60.8391089 400.783663 62.0734323 400.783663 73.2747525 397.694554 72.6575908 397.694554 78.5668317 393.758911 78.1740924 390.374422 77.8341584 390.374422 84.400165 390.374422 84.439769 390.374422 84.4777228 397.697855 84.4777228 397.697855 90.5552805 394.293564 90.8589109 394.293564 96.9876238 385.986634 98.6394389 385.986634 105.720297 394.275413 103.259901 394.293564 109.507426 385.986634 112.799505 385.986634 119.880363 380.981683 122.383663 380.981683 99.6410891 380.981683 92.060231 380.981683 84.4331683 380.981683 84.3919142 380.981683 76.8968647 380.981683 69.3143564 385.402475 70.1988449 385.402475 59.459571 380.981683 57.9117162 380.981683 54.1542904 380.981683 46.5734323"></polygon>
        <polygon id="Fill-72" fill="#3C4929" mask="url(#mask-2)" points="385.987294 56.1549505 380.982343 54.1549505 371.587954 57.9090759 376.558251 59.460231"></polygon>
        <polygon id="Fill-73" fill="#4C612C" mask="url(#mask-2)" points="385.4033 57.9112211 390.373597 57.9112211 390.373597 71.1950495 385.4033 70.1983498"></polygon>
        <polygon id="Fill-74" fill="#3C4929" mask="url(#mask-2)" points="371.587789 57.9090759 380.982178 54.1549505 382.959076 54.9453795 385.987129 56.1549505 390.373267 57.9107261 385.40297 59.460231 380.982178 57.9090759 376.558086 59.460231"></polygon>
        <polygon id="Fill-75" fill="#9D9D9D" mask="url(#mask-2)" points="360.051155 156.89769 363.610561 156.89769 363.610561 140.717822 360.051155 140.717822"></polygon>
        <path d="M374.79538,144.878548 L372.645215,150.126073 L376.945545,150.126073 L374.79538,144.878548 Z M379.69637,156.89835 L378.216172,153.269637 L371.374587,153.269637 L369.894389,156.89835 L366.265677,156.89835 L373.20132,140.60297 L376.481848,140.60297 L383.419142,156.89835 L379.69637,156.89835 Z" id="Fill-76" fill="#9D9D9D" mask="url(#mask-2)"></path>
        <polygon id="Fill-77" fill="#9D9D9D" mask="url(#mask-2)" points="398.54703 156.89868 398.54703 146.335974 393.992574 153.246865 393.903465 153.246865 389.393564 146.405281 389.393564 156.89868 385.903465 156.89868 385.903465 140.718812 389.741749 140.718812 393.992574 147.560396 398.2467 140.718812 402.084983 140.718812 402.084983 156.89868"></polygon>
        <path d="M366.227063,173.966007 C366.227063,172.441254 365.162706,171.654125 363.430033,171.654125 L359.893729,171.654125 L359.893729,176.30099 L363.49934,176.30099 C365.230363,176.30099 366.227063,175.375248 366.227063,174.012211 L366.227063,173.966007 Z M366.156106,184.622772 L362.689109,179.444554 L359.893729,179.444554 L359.893729,184.622772 L356.332673,184.622772 L356.332673,168.441254 L363.728713,168.441254 C367.543894,168.441254 369.832673,170.452805 369.832673,173.781188 L369.832673,173.827393 C369.832673,176.439604 368.421782,178.079868 366.365677,178.843894 L370.317822,184.622772 L366.156106,184.622772 Z" id="Fill-78" fill="#9D9D9D" mask="url(#mask-2)"></path>
        <path d="M382.005116,178.449835 C382.005116,176.624752 380.686634,175.029043 378.744389,175.029043 C376.734488,175.029043 375.531518,176.578548 375.531518,178.40363 L375.531518,178.449835 C375.531518,180.276568 376.85,181.870627 378.792244,181.870627 C380.802145,181.870627 382.005116,180.322772 382.005116,178.49604 L382.005116,178.449835 Z M378.744389,184.89868 C374.907756,184.89868 372.066172,182.057096 372.066172,178.49604 L372.066172,178.449835 C372.066172,174.890429 374.932508,172.00099 378.792244,172.00099 C382.628878,172.00099 385.472112,174.844224 385.472112,178.40363 L385.472112,178.449835 C385.472112,182.009241 382.605776,184.89868 378.744389,184.89868 L378.744389,184.89868 Z" id="Fill-79" fill="#9D9D9D" mask="url(#mask-2)"></path>
        <polygon id="Fill-80" fill="#9D9D9D" mask="url(#mask-2)" points="388.168317 184.622112 391.681518 184.622112 391.681518 167.747525 388.168317 167.747525"></polygon>
        <path d="M400.506601,174.821617 C399.051155,174.821617 398.10396,175.861221 397.825083,177.456931 L403.120462,177.456931 C402.910891,175.884323 401.985149,174.821617 400.506601,174.821617 M406.49505,179.65165 L397.872937,179.65165 C398.217822,181.24736 399.328383,182.079043 400.89934,182.079043 C402.079208,182.079043 402.933993,181.709406 403.905941,180.808416 L405.915842,182.587294 C404.760726,184.021287 403.09571,184.899175 400.854785,184.899175 C397.132013,184.899175 394.382838,182.286964 394.382838,178.496535 L394.382838,178.45033 C394.382838,174.914026 396.90099,172.001485 400.506601,172.001485 C404.645215,172.001485 406.539604,175.214356 406.539604,178.727558 L406.539604,178.773762 C406.539604,179.120297 406.518152,179.328218 406.49505,179.65165" id="Fill-81" fill="#9D9D9D" mask="url(#mask-2)"></path>
        <polygon id="Fill-82" fill="#9D9D9D" mask="url(#mask-2)" points="96.0247525 156.89769 99.5841584 156.89769 99.5841584 140.717822 96.0247525 140.717822"></polygon>
        <path d="M110.768977,144.878548 L108.618812,150.126073 L112.919142,150.126073 L110.768977,144.878548 Z M115.669967,156.89835 L114.189769,153.269637 L107.348185,153.269637 L105.867987,156.89835 L102.239274,156.89835 L109.174917,140.60297 L112.455446,140.60297 L119.392739,156.89835 L115.669967,156.89835 Z" id="Fill-83" fill="#9D9D9D" mask="url(#mask-2)"></path>
        <polygon id="Fill-84" fill="#9D9D9D" mask="url(#mask-2)" points="134.520627 156.89868 134.520627 146.335974 129.966172 153.246865 129.877063 153.246865 125.367162 146.405281 125.367162 156.89868 121.877063 156.89868 121.877063 140.718812 125.715347 140.718812 129.966172 147.560396 134.220297 140.718812 138.058581 140.718812 138.058581 156.89868"></polygon>
        <path d="M102.20066,173.966007 C102.20066,172.441254 101.136304,171.654125 99.4036304,171.654125 L95.8673267,171.654125 L95.8673267,176.30099 L99.4729373,176.30099 C101.20396,176.30099 102.20066,175.375248 102.20066,174.012211 L102.20066,173.966007 Z M102.129703,184.622772 L98.6627063,179.444554 L95.8673267,179.444554 L95.8673267,184.622772 L92.3062706,184.622772 L92.3062706,168.441254 L99.7023102,168.441254 C103.517492,168.441254 105.806271,170.452805 105.806271,173.781188 L105.806271,173.827393 C105.806271,176.439604 104.39538,178.079868 102.339274,178.843894 L106.291419,184.622772 L102.129703,184.622772 Z" id="Fill-85" fill="#9D9D9D" mask="url(#mask-2)"></path>
        <path d="M117.978713,178.449835 C117.978713,176.624752 116.660231,175.029043 114.717987,175.029043 C112.708086,175.029043 111.505116,176.578548 111.505116,178.40363 L111.505116,178.449835 C111.505116,180.276568 112.823597,181.870627 114.765842,181.870627 C116.775743,181.870627 117.978713,180.322772 117.978713,178.49604 L117.978713,178.449835 Z M114.717987,184.89868 C110.881353,184.89868 108.039769,182.057096 108.039769,178.49604 L108.039769,178.449835 C108.039769,174.890429 110.906106,172.00099 114.765842,172.00099 C118.602475,172.00099 121.44571,174.844224 121.44571,178.40363 L121.44571,178.449835 C121.44571,182.009241 118.579373,184.89868 114.717987,184.89868 L114.717987,184.89868 Z" id="Fill-86" fill="#9D9D9D" mask="url(#mask-2)"></path>
        <polygon id="Fill-87" fill="#9D9D9D" mask="url(#mask-2)" points="124.141914 184.622112 127.655116 184.622112 127.655116 167.747525 124.141914 167.747525"></polygon>
        <path d="M136.480198,174.821617 C135.024752,174.821617 134.077558,175.861221 133.79868,177.456931 L139.094059,177.456931 C138.884488,175.884323 137.958746,174.821617 136.480198,174.821617 M142.468647,179.65165 L133.846535,179.65165 C134.191419,181.24736 135.30198,182.079043 136.872937,182.079043 C138.052805,182.079043 138.907591,181.709406 139.879538,180.808416 L141.889439,182.587294 C140.734323,184.021287 139.069307,184.899175 136.828383,184.899175 C133.105611,184.899175 130.356436,182.286964 130.356436,178.496535 L130.356436,178.45033 C130.356436,174.914026 132.874587,172.001485 136.480198,172.001485 C140.618812,172.001485 142.513201,175.214356 142.513201,178.727558 L142.513201,178.773762 C142.513201,179.120297 142.491749,179.328218 142.468647,179.65165" id="Fill-88" fill="#9D9D9D" mask="url(#mask-2)"></path>
    </g>
</svg>