<?xml version="1.0" encoding="utf-8"?>
<!-- Generator: Adobe Illustrator 19.1.0, SVG Export Plug-In . SVG Version: 6.00 Build 0)  -->
<svg version="1.1" id="Layer_1" xmlns="http://www.w3.org/2000/svg" xmlns:xlink="http://www.w3.org/1999/xlink" x="0px" y="0px"
	 viewBox="0 0 320 320" style="enable-background:new 0 0 320 320;" xml:space="preserve">
<style type="text/css">
	.st0{fill:#9D9D9D;}
	.st1{fill:#EEEEEE;}
	.st2{fill-rule:evenodd;clip-rule:evenodd;fill:#FAA629;}
	.st3{fill:#FAA629;}
</style>
<g>
	<path class="st0" d="M160,318.7l-0.3,0v-3l0.3,0c2,0,3.9,0,5.9-0.1l0.1,3C164.1,318.6,162,318.7,160,318.7z M153.7,318.5
		c-2-0.1-4-0.3-6-0.5l0.3-3c1.9,0.2,3.9,0.3,5.9,0.4L153.7,318.5z M172.1,318.1l-0.3-3c1.9-0.2,3.9-0.4,5.9-0.7l0.4,3
		C176.1,317.6,174.1,317.9,172.1,318.1z M141.6,317.3c-2-0.3-4-0.7-6-1.1l0.6-2.9c1.9,0.4,3.9,0.7,5.8,1L141.6,317.3z M184.1,316.3
		l-0.6-2.9c1.9-0.4,3.9-0.8,5.8-1.3l0.7,2.9C188,315.5,186,315.9,184.1,316.3z M129.8,314.9c-2-0.5-3.9-1.1-5.8-1.6l0.9-2.9
		c1.9,0.6,3.8,1.1,5.7,1.6L129.8,314.9z M195.8,313.3l-0.9-2.9c1.9-0.6,3.8-1.2,5.6-1.9l1,2.8C199.7,312.1,197.7,312.7,195.8,313.3z
		 M118.2,311.3c-1.9-0.7-3.8-1.4-5.6-2.2l1.2-2.8c1.8,0.8,3.6,1.5,5.5,2.2L118.2,311.3z M207.2,309.2l-1.2-2.8
		c1.8-0.8,3.6-1.6,5.4-2.4l1.3,2.7C210.9,307.5,209.1,308.4,207.2,309.2z M107.1,306.6c-1.8-0.9-3.6-1.8-5.4-2.8l1.4-2.6
		c1.7,0.9,3.5,1.9,5.2,2.7L107.1,306.6z M218.1,303.9l-1.4-2.6c1.7-0.9,3.4-1.9,5.1-3l1.6,2.6C221.7,301.9,219.9,302.9,218.1,303.9z
		 M96.5,300.8c-1.7-1.1-3.4-2.2-5.1-3.3l1.7-2.5c1.6,1.1,3.3,2.2,4.9,3.2L96.5,300.8z M228.5,297.6l-1.7-2.5
		c1.6-1.1,3.2-2.3,4.8-3.5l1.8,2.4C231.8,295.2,230.1,296.4,228.5,297.6z M86.5,293.9c-1.6-1.2-3.2-2.5-4.7-3.8l1.9-2.3
		c1.5,1.3,3,2.5,4.6,3.7L86.5,293.9z M238.1,290.2l-1.9-2.3c1.5-1.3,3-2.6,4.4-3.9l2,2.2C241.2,287.6,239.7,288.9,238.1,290.2z
		 M77.2,286.1c-1.5-1.4-2.9-2.8-4.3-4.2l2.2-2.1c1.4,1.4,2.8,2.8,4.2,4.1L77.2,286.1z M247,282l-2.1-2.1c1.4-1.4,2.7-2.9,4-4.3
		l2.2,2C249.8,279.1,248.4,280.6,247,282z M68.8,277.5c-1.3-1.5-2.6-3.1-3.9-4.6l2.3-1.9c1.2,1.5,2.5,3.1,3.8,4.5L68.8,277.5z
		 M255,272.9l-2.3-1.9c1.2-1.5,2.4-3.1,3.6-4.7l2.4,1.8C257.5,269.7,256.3,271.3,255,272.9z M61.2,268c-1.2-1.6-2.3-3.3-3.4-5
		l2.5-1.6c1.1,1.6,2.2,3.3,3.3,4.9L61.2,268z M262.1,263.1l-2.5-1.6c1.1-1.6,2.1-3.3,3.1-5l2.6,1.5
		C264.2,259.7,263.2,261.4,262.1,263.1z M54.7,257.8c-1-1.7-2-3.5-2.9-5.3l2.7-1.4c0.9,1.8,1.8,3.5,2.8,5.2L54.7,257.8z
		 M268.1,252.6l-2.7-1.4c0.9-1.7,1.8-3.5,2.6-5.3l2.7,1.2C269.9,249,269.1,250.9,268.1,252.6z M49.1,247c-0.8-1.8-1.6-3.7-2.4-5.6
		l2.8-1.1c0.7,1.8,1.5,3.7,2.3,5.5L49.1,247z M273.1,241.6l-2.8-1.1c0.7-1.8,1.4-3.7,2-5.6l2.8,1
		C274.6,237.8,273.9,239.7,273.1,241.6z M44.7,235.7c-0.6-1.9-1.2-3.9-1.8-5.8l2.9-0.8c0.5,1.9,1.1,3.8,1.7,5.6L44.7,235.7z
		 M277,230.1l-2.9-0.8c0.5-1.9,1-3.8,1.5-5.7l2.9,0.7C278,226.2,277.5,228.2,277,230.1z M41.5,224c-0.4-2-0.8-4-1.2-5.9l3-0.5
		c0.3,1.9,0.7,3.9,1.2,5.8L41.5,224z M279.7,218.3l-3-0.5c0.3-1.9,0.6-3.9,0.9-5.8l3,0.4C280.3,214.3,280,216.4,279.7,218.3z
		 M39.4,212.1c-0.2-2-0.4-4-0.6-6l3-0.2c0.1,2,0.3,3.9,0.6,5.9L39.4,212.1z M281.2,206.3l-3-0.2c0.1-2,0.2-3.9,0.3-5.9l3,0.1
		C281.4,202.3,281.3,204.3,281.2,206.3z M38.5,200c0-0.9,0-1.9,0-2.8c0-1.1,0-2.1,0-3.2l3,0.1c0,1,0,2.1,0,3.1c0,0.9,0,1.8,0,2.8
		L38.5,200z M278.5,194.3c0-2-0.1-3.9-0.3-5.9l3-0.2c0.1,2,0.2,4,0.3,6L278.5,194.3z M41.8,188.1l-3-0.2c0.2-2,0.4-4,0.6-6l3,0.4
		C42.2,184.2,42,186.2,41.8,188.1z M277.6,182.5c-0.2-1.9-0.5-3.9-0.9-5.8l3-0.5c0.3,2,0.6,4,0.9,6L277.6,182.5z M43.3,176.4l-3-0.5
		c0.3-2,0.8-4,1.2-5.9l2.9,0.7C44,172.5,43.7,174.5,43.3,176.4z M275.6,170.9c-0.4-1.9-0.9-3.8-1.5-5.7l2.9-0.8
		c0.5,1.9,1,3.9,1.5,5.9L275.6,170.9z M45.9,164.9l-2.9-0.8c0.5-1.9,1.1-3.9,1.8-5.8l2.8,1C47.1,161.1,46.5,163,45.9,164.9z
		 M272.4,159.5c-0.6-1.9-1.3-3.7-2-5.6l2.8-1.1c0.7,1.9,1.4,3.8,2.1,5.7L272.4,159.5z M49.7,153.7l-2.8-1.1c0.7-1.9,1.5-3.7,2.4-5.6
		l2.7,1.2C51.2,150.1,50.4,151.9,49.7,153.7z M268.1,148.5c-0.8-1.8-1.7-3.6-2.6-5.3l2.7-1.4c0.9,1.8,1.8,3.6,2.6,5.5L268.1,148.5z
		 M54.6,143l-2.7-1.4c0.9-1.8,1.9-3.6,2.9-5.3l2.6,1.5C56.4,139.5,55.5,141.2,54.6,143z M262.7,138c-1-1.7-2-3.4-3.1-5l2.5-1.6
		c1.1,1.7,2.2,3.4,3.2,5.2L262.7,138z M60.5,132.8l-2.5-1.6c1.1-1.7,2.2-3.4,3.4-5l2.4,1.8C62.7,129.5,61.6,131.1,60.5,132.8z
		 M256.2,128c-1.1-1.6-2.3-3.2-3.6-4.7l2.3-1.9c1.3,1.6,2.5,3.2,3.7,4.8L256.2,128z M67.4,123.2l-2.3-1.9c1.3-1.6,2.6-3.1,3.9-4.6
		l2.2,2C69.9,120.2,68.6,121.7,67.4,123.2z M248.9,118.8c-1.3-1.5-2.7-2.9-4-4.3l2.1-2.1c1.4,1.4,2.8,2.9,4.1,4.4L248.9,118.8z
		 M75.2,114.4l-2.1-2.1c1.4-1.4,2.9-2.9,4.3-4.2l2,2.2C78,111.6,76.6,113,75.2,114.4z M240.6,110.3c-1.4-1.3-2.9-2.7-4.4-3.9
		l1.9-2.3c1.5,1.3,3.1,2.6,4.5,4L240.6,110.3z M83.9,106.3L82,104c1.5-1.3,3.1-2.6,4.7-3.8l1.8,2.4C87,103.8,85.4,105.1,83.9,106.3z
		 M231.6,102.7c-1.6-1.2-3.2-2.3-4.8-3.5l1.7-2.5c1.7,1.1,3.3,2.3,4.9,3.5L231.6,102.7z M93.3,99.2l-1.7-2.5
		c1.7-1.1,3.4-2.2,5.1-3.3l1.6,2.6C96.6,97,94.9,98.1,93.3,99.2z M221.8,96.1c-1.7-1-3.4-2-5.1-3l1.4-2.6c1.8,1,3.5,2,5.2,3
		L221.8,96.1z M103.4,93l-1.4-2.6c1.8-1,3.6-1.9,5.4-2.8l1.3,2.7C106.9,91.2,105.1,92.1,103.4,93z M211.5,90.4
		c-1.8-0.9-3.6-1.7-5.4-2.4l1.2-2.8c1.8,0.8,3.7,1.6,5.5,2.5L211.5,90.4z M114.1,87.9l-1.2-2.8c1.9-0.8,3.8-1.5,5.7-2.2l1,2.8
		C117.7,86.4,115.9,87.1,114.1,87.9z M200.6,85.8c-1.8-0.7-3.7-1.3-5.6-1.9l0.9-2.9c1.9,0.6,3.8,1.2,5.7,1.9L200.6,85.8z
		 M125.2,83.9l-0.9-2.9c1.9-0.6,3.9-1.1,5.8-1.6l0.7,2.9C129,82.8,127.1,83.3,125.2,83.9z M189.4,82.3c-1.9-0.5-3.8-0.9-5.8-1.3
		l0.6-2.9c2,0.4,4,0.9,5.9,1.3L189.4,82.3z M136.6,81l-0.6-2.9c2-0.4,4-0.7,6-1l0.4,3C140.5,80.3,138.6,80.6,136.6,81z M177.8,80
		c-1.9-0.3-3.9-0.5-5.9-0.7l0.3-3c2,0.2,4,0.5,6,0.8L177.8,80z M148.3,79.2l-0.3-3c2-0.2,4-0.3,6-0.4l0.1,3
		C152.3,78.9,150.3,79.1,148.3,79.2z M166,78.8c-2-0.1-3.9-0.1-5.9-0.2l0-3c2,0,4.1,0.1,6.1,0.2L166,78.8z"/>
</g>
<g>
	<path class="st1" d="M130.5,272.4v3.9h-0.7v-3.9l-4.2-5.9h0.9l3.7,5.3l3.7-5.3h0.9L130.5,272.4z"/>
	<path class="st1" d="M138.1,276.4c-2.1,0-3.7-1.7-3.7-3.7v0c0-2,1.6-3.7,3.7-3.7c2.1,0,3.7,1.7,3.7,3.7v0
		C141.8,274.7,140.2,276.4,138.1,276.4z M141,272.7c0-1.7-1.3-3.1-2.9-3.1c-1.7,0-2.9,1.4-2.9,3.1v0c0,1.7,1.3,3.1,2.9,3.1
		C139.8,275.8,141,274.4,141,272.7L141,272.7z"/>
	<path class="st1" d="M149.2,276.3V275c-0.5,0.8-1.3,1.5-2.6,1.5c-1.8,0-2.9-1.2-2.9-2.9v-4.4h0.7v4.2c0,1.5,0.8,2.4,2.3,2.4
		c1.4,0,2.5-1.1,2.5-2.5v-4.1h0.7v7.1H149.2z"/>
	<path class="st1" d="M156.2,269.8c-1.7,0-3.1,1.2-3.1,3.6v2.9h-0.7v-7.1h0.7v2c0.6-1.3,1.8-2.2,3.2-2.1L156.2,269.8L156.2,269.8z"
		/>
	<path class="st1" d="M170.6,276.3l-1.2-2.7h-5.8l-1.2,2.7h-0.8l4.6-9.9h0.7l4.6,9.9H170.6z M166.5,267.2l-2.6,5.7h5.2L166.5,267.2z
		"/>
	<path class="st1" d="M181.9,276.4h-0.6l-2.9-8.5l-2.9,8.5H175l-3.6-9.9h0.8l3.1,8.7l2.9-8.8h0.6l2.9,8.8l3.1-8.7h0.8L181.9,276.4z"
		/>
	<path class="st1" d="M190.7,276.4c-1.6,0-2.8-0.5-4-1.6l0.5-0.5c1.1,1,2.1,1.5,3.5,1.5c1.5,0,2.5-0.8,2.5-1.9v0
		c0-1-0.5-1.6-2.8-2.1c-2.4-0.5-3.3-1.3-3.3-2.8v0c0-1.5,1.3-2.6,3.2-2.6c1.4,0,2.4,0.4,3.4,1.2l-0.5,0.6c-0.9-0.8-1.8-1.1-2.9-1.1
		c-1.4,0-2.4,0.8-2.4,1.8v0c0,1,0.5,1.7,2.9,2.1c2.3,0.5,3.2,1.3,3.2,2.7v0C193.9,275.3,192.6,276.4,190.7,276.4z"/>
	<path class="st1" d="M120.7,292.6c1.1,0,1.9-0.5,2.5-1.1l0.5,0.4c-0.7,0.8-1.6,1.3-3,1.3c-1.9,0-3.5-1.5-3.5-3.7v0
		c0-2.1,1.5-3.7,3.4-3.7c2,0,3.3,1.6,3.3,3.7v0c0,0.1,0,0.1,0,0.3h-5.9C118.1,291.6,119.3,292.6,120.7,292.6z M123.1,289.2
		c-0.1-1.4-0.9-2.8-2.6-2.8c-1.4,0-2.5,1.2-2.6,2.8H123.1z"/>
	<path class="st1" d="M131.3,293.1v-4.2c0-1.5-0.8-2.4-2.3-2.4c-1.4,0-2.5,1.1-2.5,2.5v4.1h-0.7v-7.1h0.7v1.3
		c0.5-0.8,1.3-1.5,2.6-1.5c1.8,0,2.9,1.2,2.9,2.9v4.4H131.3z"/>
	<path class="st1" d="M137.5,293.1h-0.6l-3.2-7.2h0.8l2.7,6.4l2.7-6.4h0.8L137.5,293.1z"/>
	<path class="st1" d="M142.6,284.1v-0.9h0.9v0.9H142.6z M142.7,293.1v-7.1h0.7v7.1H142.7z"/>
	<path class="st1" d="M149.9,286.6c-1.7,0-3.1,1.2-3.1,3.6v2.9h-0.7v-7.1h0.7v2c0.6-1.3,1.8-2.2,3.2-2.1L149.9,286.6L149.9,286.6z"
		/>
	<path class="st1" d="M154.9,293.2c-2.1,0-3.7-1.7-3.7-3.7v0c0-2,1.6-3.7,3.7-3.7c2.1,0,3.7,1.7,3.7,3.7v0
		C158.5,291.5,157,293.2,154.9,293.2z M157.8,289.5c0-1.7-1.3-3.1-2.9-3.1c-1.7,0-2.9,1.4-2.9,3.1v0c0,1.7,1.3,3.1,2.9,3.1
		C156.6,292.6,157.8,291.2,157.8,289.5L157.8,289.5z"/>
	<path class="st1" d="M166.1,293.1v-4.2c0-1.5-0.8-2.4-2.3-2.4c-1.4,0-2.5,1.1-2.5,2.5v4.1h-0.7v-7.1h0.7v1.3
		c0.5-0.8,1.3-1.5,2.6-1.5c1.8,0,2.9,1.2,2.9,2.9v4.4H166.1z"/>
	<path class="st1" d="M179.3,293.1v-4.2c0-1.5-0.8-2.4-2.1-2.4c-1.2,0-2.3,0.9-2.3,2.5v4.2h-0.7v-4.3c0-1.5-0.8-2.4-2.1-2.4
		c-1.3,0-2.3,1.1-2.3,2.6v4.1h-0.7v-7.1h0.7v1.3c0.5-0.7,1.1-1.4,2.4-1.4c1.2,0,2,0.7,2.4,1.5c0.5-0.8,1.2-1.5,2.6-1.5
		c1.7,0,2.7,1.2,2.7,3v4.3H179.3z"/>
	<path class="st1" d="M185.6,292.6c1.1,0,1.9-0.5,2.5-1.1l0.5,0.4c-0.7,0.8-1.6,1.3-3,1.3c-1.9,0-3.5-1.5-3.5-3.7v0
		c0-2.1,1.5-3.7,3.4-3.7c2,0,3.3,1.6,3.3,3.7v0c0,0.1,0,0.1,0,0.3h-5.9C182.9,291.6,184.2,292.6,185.6,292.6z M188,289.2
		c-0.1-1.4-0.9-2.8-2.6-2.8c-1.4,0-2.5,1.2-2.6,2.8H188z"/>
	<path class="st1" d="M196.2,293.1v-4.2c0-1.5-0.8-2.4-2.3-2.4c-1.4,0-2.5,1.1-2.5,2.5v4.1h-0.7v-7.1h0.7v1.3
		c0.5-0.8,1.3-1.5,2.6-1.5c1.8,0,2.9,1.2,2.9,2.9v4.4H196.2z"/>
	<path class="st1" d="M201.7,293.2c-1.1,0-2-0.6-2-2v-4.7h-1v-0.6h1v-2.3h0.7v2.3h2.5v0.6h-2.5v4.6c0,1,0.6,1.4,1.4,1.4
		c0.4,0,0.6-0.1,1.1-0.3v0.6C202.5,293.1,202.1,293.2,201.7,293.2z"/>
</g>
<polygon class="st1" points="170.4,122.6 162,131.6 162,57 159,57 159,132 150.2,122.6 148,124.7 160.3,137.8 172.6,124.7 "/>
<circle class="st2" cx="160" cy="175.8" r="18"/>
<g>
	<g>
		<path class="st3" d="M131.6,214.4h-4.8v-10.1h4.7c2.1,0,3.3,1,3.3,2.6v0c0,1.1-0.6,1.8-1.3,2.2c1.2,0.4,1.9,1.1,1.9,2.5v0
			C135.4,213.4,133.9,214.4,131.6,214.4z M132.6,207.3c0-0.7-0.5-1-1.5-1H129v2.1h2C132,208.4,132.6,208,132.6,207.3L132.6,207.3z
			 M133.2,211.3c0-0.7-0.5-1.1-1.6-1.1H129v2.2h2.6C132.6,212.4,133.2,212.1,133.2,211.3L133.2,211.3z"/>
		<path class="st3" d="M144.7,214.4l-0.9-2.3h-4.3l-0.9,2.3h-2.3l4.3-10.2h2l4.3,10.2H144.7z M141.7,206.9l-1.3,3.3h2.7L141.7,206.9
			z"/>
		<path class="st3" d="M152.2,214.5c-1.5,0-3.1-0.5-4.3-1.6l1.3-1.6c0.9,0.7,1.9,1.2,3,1.2c0.9,0,1.5-0.4,1.5-1v0
			c0-0.6-0.3-0.8-2-1.3c-2-0.5-3.3-1.1-3.3-3.1v0c0-1.8,1.5-3,3.5-3c1.5,0,2.7,0.5,3.7,1.3l-1.2,1.7c-0.9-0.6-1.8-1-2.6-1
			c-0.9,0-1.3,0.4-1.3,0.9v0c0,0.7,0.4,0.9,2.2,1.3c2,0.5,3.2,1.3,3.2,3v0C155.9,213.4,154.4,214.5,152.2,214.5z"/>
		<path class="st3" d="M162.4,206.3v8h-2.2v-8h-3.1v-2h8.4v2H162.4z"/>
		<path class="st3" d="M167.2,214.4v-10.1h2.2v10.1H167.2z"/>
		<path class="st3" d="M176.9,214.5c-3.1,0-5.3-2.3-5.3-5.2v0c0-2.9,2.3-5.2,5.4-5.2s5.3,2.3,5.3,5.2v0
			C182.3,212.2,180,214.5,176.9,214.5z M179.9,209.3c0-1.7-1.3-3.2-3.1-3.2s-3,1.4-3,3.1v0c0,1.7,1.3,3.2,3.1,3.2
			C178.7,212.5,179.9,211.1,179.9,209.3L179.9,209.3z"/>
		<path class="st3" d="M191.3,214.4l-4.9-6.4v6.4h-2.2v-10.1h2l4.7,6.2v-6.2h2.2v10.1H191.3z"/>
		<path class="st3" d="M122.4,231.6v-10.1h2.2v10.1H122.4z"/>
		<path class="st3" d="M134.2,231.6l-4.9-6.4v6.4h-2.2v-10.1h2l4.7,6.2v-6.2h2.2v10.1H134.2z"/>
		<path class="st3" d="M142.1,231.8c-1.5,0-3.1-0.5-4.3-1.6l1.3-1.6c0.9,0.7,1.9,1.2,3,1.2c0.9,0,1.5-0.4,1.5-1v0
			c0-0.6-0.3-0.8-2-1.3c-2-0.5-3.3-1.1-3.3-3.1v0c0-1.8,1.5-3,3.5-3c1.5,0,2.7,0.5,3.7,1.3l-1.2,1.7c-0.9-0.6-1.8-1-2.6-1
			c-0.9,0-1.3,0.4-1.3,0.9v0c0,0.7,0.4,0.9,2.2,1.3c2,0.5,3.2,1.3,3.2,3v0C145.8,230.7,144.3,231.8,142.1,231.8z"/>
		<path class="st3" d="M152.3,223.6v8h-2.2v-8H147v-2h8.4v2H152.3z"/>
		<path class="st3" d="M164.6,231.6l-0.9-2.3h-4.3l-0.9,2.3h-2.3l4.3-10.2h2l4.3,10.2H164.6z M161.5,224.1l-1.3,3.3h2.7L161.5,224.1
			z"/>
		<path class="st3" d="M175.5,231.6l-4.9-6.4v6.4h-2.2v-10.1h2l4.7,6.2v-6.2h2.2v10.1H175.5z"/>
		<path class="st3" d="M184.6,231.8c-3,0-5.2-2.3-5.2-5.2v0c0-2.9,2.2-5.2,5.3-5.2c1.9,0,3,0.6,4,1.6l-1.4,1.6
			c-0.8-0.7-1.6-1.1-2.6-1.1c-1.7,0-2.9,1.4-2.9,3.1v0c0,1.7,1.2,3.2,2.9,3.2c1.2,0,1.9-0.5,2.7-1.2l1.4,1.4
			C187.6,231.1,186.5,231.8,184.6,231.8z"/>
		<path class="st3" d="M190.5,231.6v-10.1h7.6v2h-5.4v2h4.8v2h-4.8v2.1h5.5v2H190.5z"/>
	</g>
</g>
<path class="st1" d="M176,21c0.6,0,1-0.5,1-1v-6c0-0.5-0.4-1-1-1s-1,0.5-1,1v6C175,20.5,175.4,21,176,21z M192,13c-0.6,0-1,0.5-1,1
	v6c0,0.5,0.4,1,1,1s1-0.5,1-1v-6C193,13.5,192.6,13,192,13z M192,5c-3.5,0-6.5,2-8,4.9C182.5,7,179.5,5,176,5s-6.5,2-8,4.9
	C166.5,7,163.5,5,160,5s-6.5,2-8,4.9C150.5,7,147.5,5,144,5s-6.5,2-8,4.9C134.5,7,131.5,5,128,5c-4.9,0-9,4-9,9v18c0,5,4.1,9,9,9
	c2.9,0,5.4-1.3,7-3.3V47c0,2.8,2.2,5,5,5s5-2.2,5-5v-6c3.1-0.3,5.6-2.2,7-4.8c1.5,2.9,4.5,4.9,8,4.9s6.5-2,8-4.9
	c1.5,2.9,4.5,4.9,8,4.9s6.5-2,8-4.9c1.5,2.9,4.5,4.9,8,4.9c4.9,0,9-4,9-9V14C201,9,196.9,5,192,5z M128,39c-3.8,0-7-3.2-7-7V14
	c0-3.9,3.2-7,7-7c3.9,0,7,3.1,7,7l0,0v18l0,0C135,35.8,131.9,39,128,39z M144,39c-0.4,0-0.6,0-1-0.1V47c0,1.7-1.4,3-3,3s-3-1.3-3-3
	V32V14c0-3.9,3.1-7,7-7s7,3.1,7,7l0,0v18l0,0C151,35.8,147.9,39,144,39z M159.6,39c-3.8-0.2-6.6-3.5-6.6-7.2V29c0-0.5,0.4-1,1-1h4
	c0.6,0,1,0.5,1,1v3c0,0.5,0.4,1,0.9,1c0.6,0.1,1.1-0.4,1.1-1v-3c0-1.7-1.4-3-3-3h-0.5c-2.5,0-4.5-2-4.5-4.5v-7.3
	c0-3.8,2.9-7,6.6-7.2c4-0.2,7.4,3,7.4,7l0,0v3c0,0.5-0.4,1-1,1h-4c-0.6,0-1-0.5-1-1v-3c0-0.5-0.4-1-0.9-1c-0.6-0.1-1.1,0.4-1.1,1v3
	c0,1.7,1.4,3,3,3h0.5c2.5,0,4.5,2,4.5,4.5V32l0,0C167,36,163.6,39.2,159.6,39z M175.6,39c-3.8-0.2-6.6-3.5-6.6-7.2V14.2
	c0-3.8,2.9-7,6.6-7.2c4-0.2,7.4,3,7.4,7l0,0v12c0,0.5-0.4,1-1,1h-4c-1.6,0-3,1.3-3,3v2c0,0.5,0.4,1,0.9,1c0.6,0.1,1.1-0.4,1.1-1
	v-2.3c0-0.5,0.4-1,1-1h4c0.6,0,1,0.5,1,1V32l0,0C183,36,179.6,39.2,175.6,39z M199,26c0,0.5-0.4,1-1,1h-4c-1.6,0-3,1.3-3,3v2
	c0,0.5,0.4,1,0.9,1c0.6,0.1,1.1-0.4,1.1-1v-2.3c0-0.5,0.4-1,1-1h4c0.6,0,1,0.5,1,1V32c0,4-3.4,7.2-7.4,7c-3.8-0.2-6.6-3.5-6.6-7.2
	V14.2c0-3.8,2.9-7,6.6-7.2c4-0.2,7.4,3,7.4,7V26z M144,13c-0.6,0-1,0.5-1,1v18c0,0.5,0.4,1,1,1s1-0.5,1-1V14
	C145,13.5,144.6,13,144,13z M128,13c-0.6,0-1,0.5-1,1v18c0,0.5,0.4,1,1,1s1-0.5,1-1V14C129,13.5,128.6,13,128,13z"/>
</svg>
