<?xml version="1.0" encoding="utf-8"?>
<!-- Generator: Adobe Illustrator 19.2.1, SVG Export Plug-In . SVG Version: 6.00 Build 0)  -->
<svg version="1.1" xmlns="http://www.w3.org/2000/svg" xmlns:xlink="http://www.w3.org/1999/xlink" x="0px" y="0px"
	 viewBox="0 0 539.5 410.6" style="enable-background:new 0 0 539.5 410.6;" xml:space="preserve">
<style type="text/css">
	.st0{fill:#666666;}
	.st1{fill:#303030;}
	.st2{fill:#FFA726;}
</style>
<g id="Layer_1">
	<path class="st0" d="M77.2,143.5c-10.5,3.2-18.2,13-18.2,24.6v182.6c0,14.2,11.5,25.7,25.7,25.7h100.9v15.2c0,10.4,8.5,19,19,19
		h80.6c10.5,0,19-8.5,19-19v-72.3h104.4c4.1,0,7.5-3.4,7.5-7.5s-3.4-7.5-7.5-7.5h-18.2l-12.2-13.1h106.2c17.8,0,32.3-14.5,32.3-32.3
		V32.3c0-17.8-14.5-32.3-32.3-32.3L109.5,0C91.7,0,77.2,14.5,77.2,32.3L77.2,143.5L77.2,143.5z M84.7,157.4h151.1
		c5.9,0,10.7,4.8,10.7,10.7v2H74v-2C74,162.2,78.8,157.4,84.7,157.4z M204.5,231.5c-10.4,0-19,8.5-19,18.9v83.2H74V185.2h172.5v46.3
		L204.5,231.5L204.5,231.5z M200.6,260.3v-9.9c0-2.2,1.8-4,4-4h80.6c2.2,0,4,1.8,4,4v9.9H200.6L200.6,260.3z M92.2,39.8h409.5v210.6
		H304.1c0-10.4-8.5-18.9-18.9-18.9h-23.7v-63.4c0-14.2-11.5-25.7-25.7-25.7H92.2V39.8L92.2,39.8z M289.1,366.8h-88.5v-91.5h88.5
		V366.8z M484.3,15c6.8,0,12.8,4,15.6,9.8h-406c2.8-5.8,8.7-9.8,15.6-9.8H484.3L484.3,15z M484.3,276.2H304.1v-10.8h196.2
		C497.8,271.8,491.6,276.2,484.3,276.2z M304.1,304.3v-13.1h53.5l12.2,13.1H304.1z M200.6,391.7v-9.9h88.5v9.9c0,2.2-1.8,4-4,4
		h-80.6C202.4,395.6,200.6,393.8,200.6,391.7z M74,350.7v-2h111.6v12.8H84.7C78.8,361.4,74,356.6,74,350.7z"/>
</g>
<g id="Layer_2">
	<g>
		<g>
			<path class="st1" d="M532.5,88.3c-4.7-8-11-14.3-19-19c-8-4.7-16.7-7-26.2-7c-9.5,0-18.2,2.3-26.2,7c-8,4.7-14.3,11-19,19
				c-4.7,8-7,16.7-7,26.2s2.3,18.2,7,26.2c4.7,8,11,14.3,19,19c8,4.7,16.7,7,26.2,7c9.5,0,18.2-2.3,26.2-7c8-4.7,14.3-11,19-19
				c4.7-8,7-16.7,7-26.2C539.5,105,537.1,96.3,532.5,88.3z"/>
		</g>
		<g>
			<path class="st2" d="M532.5,88.3c-4.7-8-11-14.3-19-19c-8-4.7-16.7-7-26.2-7c-9.5,0-18.2,2.3-26.2,7c-8,4.7-14.3,11-19,19
				c-4.7,8-7,16.7-7,26.2s2.3,18.2,7,26.2c4.7,8,11,14.3,19,19c8,4.7,16.7,7,26.2,7c9.5,0,18.2-2.3,26.2-7c8-4.7,14.3-11,19-19
				c4.7-8,7-16.7,7-26.2C539.5,105,537.1,96.3,532.5,88.3z M496,147c0,0.6-0.2,1.2-0.6,1.6s-0.9,0.6-1.5,0.6h-13
				c-0.6,0-1.1-0.2-1.6-0.7c-0.5-0.5-0.7-1-0.7-1.6v-12.9c0-0.6,0.2-1.1,0.7-1.6c0.5-0.5,1-0.7,1.6-0.7h13c0.6,0,1.1,0.2,1.5,0.6
				c0.4,0.4,0.6,1,0.6,1.6V147L496,147z M495.8,123.6c0,0.5-0.3,0.8-0.7,1.2c-0.4,0.3-1,0.5-1.6,0.5H481c-0.6,0-1.2-0.2-1.6-0.5
				c-0.5-0.3-0.7-0.7-0.7-1.2l-1.2-42.2c0-0.5,0.2-1,0.7-1.2c0.5-0.4,1-0.5,1.6-0.5h14.9c0.6,0,1.2,0.2,1.6,0.5
				c0.5,0.3,0.7,0.7,0.7,1.2L495.8,123.6z"/>
		</g>
	</g>
	<g>
		<g>
			<path class="st1" d="M87.6,222.9c-4.2-7.2-9.9-12.9-17.1-17.1c-7.2-4.2-15-6.3-23.6-6.3c-8.5,0-16.4,2.1-23.6,6.3
				c-7.2,4.2-12.9,9.9-17.1,17.1C2.1,230.1,0,238,0,246.5s2.1,16.4,6.3,23.6c4.2,7.2,9.9,12.9,17.1,17.1c7.2,4.2,15,6.3,23.6,6.3
				s16.4-2.1,23.6-6.3c7.2-4.2,12.9-9.9,17.1-17.1c4.2-7.2,6.3-15.1,6.3-23.6C93.9,238,91.8,230.1,87.6,222.9z"/>
		</g>
		<g>
			<path class="st2" d="M87.6,222.9c-4.2-7.2-9.9-12.9-17.1-17.1c-7.2-4.2-15-6.3-23.6-6.3c-8.5,0-16.4,2.1-23.6,6.3
				c-7.2,4.2-12.9,9.9-17.1,17.1C2.1,230.1,0,238,0,246.5s2.1,16.4,6.3,23.6c4.2,7.2,9.9,12.9,17.1,17.1c7.2,4.2,15,6.3,23.6,6.3
				s16.4-2.1,23.6-6.3c7.2-4.2,12.9-9.9,17.1-17.1c4.2-7.2,6.3-15.1,6.3-23.6C93.9,238,91.8,230.1,87.6,222.9z M54.8,275.8
				c0,0.6-0.2,1-0.6,1.4c-0.4,0.4-0.8,0.6-1.3,0.6H41.1c-0.5,0-1-0.2-1.4-0.6c-0.4-0.4-0.6-0.9-0.6-1.4v-11.6c0-0.5,0.2-1,0.6-1.4
				c0.4-0.4,0.9-0.6,1.4-0.6h11.7c0.5,0,1,0.2,1.3,0.6c0.4,0.4,0.6,0.9,0.6,1.4L54.8,275.8L54.8,275.8z M54.7,254.7
				c0,0.4-0.3,0.8-0.6,1.1c-0.4,0.3-0.9,0.5-1.4,0.5H41.3c-0.6,0-1.1-0.2-1.5-0.5c-0.4-0.3-0.6-0.7-0.6-1.1l-1-38
				c0-0.5,0.2-0.9,0.6-1.1c0.4-0.3,0.9-0.5,1.5-0.5h13.5c0.6,0,1.1,0.2,1.5,0.5c0.4,0.2,0.6,0.6,0.6,1.1L54.7,254.7z"/>
		</g>
	</g>
	<g>
		<g>
			<path class="st1" d="M271.5,306.5c-2.6-4.4-6.1-8-10.5-10.5c-4.4-2.6-9.3-3.9-14.5-3.9c-5.3,0-10.1,1.3-14.5,3.9
				c-4.4,2.6-8,6.1-10.5,10.5c-2.6,4.4-3.9,9.3-3.9,14.5s1.3,10.1,3.9,14.5c2.6,4.4,6.1,8,10.5,10.5c4.4,2.6,9.3,3.9,14.5,3.9
				c5.3,0,10.1-1.3,14.5-3.9c4.4-2.6,8-6.1,10.5-10.5c2.6-4.4,3.9-9.3,3.9-14.5C275.4,315.8,274.1,310.9,271.5,306.5z"/>
		</g>
		<g>
			<path class="st2" d="M271.5,306.5c-2.6-4.4-6.1-8-10.5-10.5c-4.4-2.6-9.3-3.9-14.5-3.9c-5.3,0-10.1,1.3-14.5,3.9
				c-4.4,2.6-8,6.1-10.5,10.5c-2.6,4.4-3.9,9.3-3.9,14.5s1.3,10.1,3.9,14.5c2.6,4.4,6.1,8,10.5,10.5c4.4,2.6,9.3,3.9,14.5,3.9
				c5.3,0,10.1-1.3,14.5-3.9c4.4-2.6,8-6.1,10.5-10.5c2.6-4.4,3.9-9.3,3.9-14.5C275.4,315.8,274.1,310.9,271.5,306.5z M251.3,339.1
				c0,0.4-0.1,0.6-0.3,0.9c-0.2,0.2-0.5,0.4-0.8,0.4h-7.2c-0.3,0-0.6-0.1-0.9-0.4c-0.3-0.3-0.4-0.5-0.4-0.9V332
				c0-0.3,0.1-0.6,0.4-0.9c0.3-0.3,0.5-0.4,0.9-0.4h7.2c0.3,0,0.6,0.1,0.8,0.4c0.2,0.2,0.3,0.5,0.3,0.9V339.1L251.3,339.1z
				 M251.2,326.1c0,0.3-0.2,0.5-0.4,0.7c-0.2,0.2-0.5,0.3-0.9,0.3h-7c-0.4,0-0.7-0.1-0.9-0.3c-0.3-0.2-0.4-0.4-0.4-0.7l-0.6-23.4
				c0-0.3,0.1-0.5,0.4-0.7c0.3-0.2,0.6-0.3,0.9-0.3h8.3c0.4,0,0.7,0.1,0.9,0.3c0.3,0.2,0.4,0.4,0.4,0.7L251.2,326.1z"/>
		</g>
	</g>
</g>
</svg>
